{
.appVersion = "1143";
DisplayStrings = (
"¨",
"/dieresiscomb",
"´",
"/gravecomb",
"/acutecomb",
"/dotaccent",
"`",
"/dotaccent",
"/caroncomb",
"/circumflex",
"/circumflexcomb",
"/caron",
"/breve",
"/brevecomb",
"HO/zero.lf",
"/one.lf",
"/two.lf",
"/three.lf",
"/four.lf",
"/seven.lf",
"/nine.lf",
"/nine.lf",
"9",
"/nine.osf"
);
copyright = "Copyright (c) 2012, Sorkin Type Co (www.sorkintype.com), with Reserved Font Name 'Genoa'";
customParameters = (
{
name = macintoshFONDFamilyID;
value = 128;
},
{
name = macintoshFONDName;
value = Gelasio;
},
{
name = openTypeHeadFlags;
value = (
0,
1,
3,
4
);
},
{
name = description;
value = "";
},
{
name = openTypeNameLicense;
value = "";
},
{
name = openTypeNameLicenseURL;
value = "";
},
{
name = openTypeNameSampleText;
value = "";
},
{
name = openTypeNameUniqueID;
value = "EbenSorkin: Gelasio: 2012";
},
{
name = openTypeNameVersion;
value = "Version 1.000";
},
{
name = codePageRanges;
value = (
1252,
1250,
1251,
1253,
1254,
1257
);
},
{
name = openTypeOS2FamilyClass;
value = (
4,
3
);
},
{
name = openTypeOS2Panose;
value = (
2,
4,
5,
2,
5,
4,
5,
2,
3,
3
);
},
{
name = openTypeOS2Selection;
value = (
);
},
{
name = openTypeOS2StrikeoutPosition;
value = 594;
},
{
name = openTypeOS2StrikeoutSize;
value = 101;
},
{
name = openTypeOS2SubscriptXOffset;
value = 0;
},
{
name = openTypeOS2SubscriptXSize;
value = 1434;
},
{
name = openTypeOS2SubscriptYOffset;
value = 155;
},
{
name = openTypeOS2SubscriptYSize;
value = 1331;
},
{
name = openTypeOS2SuperscriptXOffset;
value = 0;
},
{
name = openTypeOS2SuperscriptXSize;
value = 1434;
},
{
name = openTypeOS2SuperscriptYOffset;
value = 542;
},
{
name = openTypeOS2SuperscriptYSize;
value = 1331;
},
{
name = fsType;
value = (
3
);
},
{
name = unicodeRanges;
value = (
0,
1,
2,
7,
9
);
},
{
name = vendorID;
value = STC;
},
{
name = blueFuzz;
value = 1;
},
{
name = blueScale;
value = 0.03963;
},
{
name = blueShift;
value = 7;
},
{
name = postscriptForceBold;
value = 0;
},
{

glyphs = (
{
glyphname = A;
lastChange = "2018-05-23 18:31:44 +0000";
layers = (
{
anchors = (
{
name = btm;
position = "{689, -200}";
},
{
name = top;
position = "{689, 2000}";
}
);
layerId = "DD6F9F34-BC40-4E8F-B1D3-DF3B42A9710F";
paths = (
{
closed = 1;
nodes = (
"1018 85 OFFCURVE",
"958 93 OFFCURVE",
"867 88 CURVE",
"841 85 OFFCURVE",
"834 72 OFFCURVE",
"834 51 CURVE SMOOTH",
"834 36 OFFCURVE",
"845 0 OFFCURVE",
"868 0 CURVE SMOOTH",
"1369 0 LINE SMOOTH",
"1391 0 OFFCURVE",
"1403 36 OFFCURVE",
"1403 51 CURVE SMOOTH",
"1403 81 OFFCURVE",
"1395 85 OFFCURVE",
"1367 88 CURVE SMOOTH",
"1318 93 OFFCURVE",
"1249 77 OFFCURVE",
"1216 165 CURVE SMOOTH",
"757 1441 LINE",
"612 1441 LINE",
"636 1187 LINE",
"1001 132 LINE"
);
},
{
closed = 1;
nodes = (
"612 1441 LINE",
"163 165 LINE SMOOTH",
"130 77 OFFCURVE",
"59 93 OFFCURVE",
"10 88 CURVE SMOOTH",
"-18 85 OFFCURVE",
"-26 81 OFFCURVE",
"-26 51 CURVE SMOOTH",
"-26 36 OFFCURVE",
"-14 0 OFFCURVE",
"8 0 CURVE SMOOTH",
"431 0 LINE SMOOTH",
"454 0 OFFCURVE",
"465 36 OFFCURVE",
"465 51 CURVE SMOOTH",
"465 72 OFFCURVE",
"458 85 OFFCURVE",
"432 88 CURVE",
"341 93 OFFCURVE",
"272 85 OFFCURVE",
"288 132 CURVE",
"643 1187 LINE"
);
},
{
closed = 1;
nodes = (
"1033 494 LINE",
"1033 580 LINE",
"336 580 LINE",
"336 494 LINE"
);
}
);
width = 1374;
}
);
leftKerningGroup = A;
rightKerningGroup = A;
unicode = 0041;
},
{
glyphname = Aogonek;
lastChange = "2018-05-23 18:31:44 +0000";
layers = (
{
components = (
{
name = A;
}
);
layerId = "DD6F9F34-BC40-4E8F-B1D3-DF3B42A9710F";
paths = (
{
closed = 1;
nodes = (
"956 -120 OFFCURVE",
"1035 -36 OFFCURVE",
"1136 23 CURVE",
"1136 23 OFFCURVE",
"1214 16 OFFCURVE",
"1214 16 CURVE",
"1145 -36 OFFCURVE",
"1104 -125 OFFCURVE",
"1104 -198 CURVE SMOOTH",
"1104 -381 OFFCURVE",
"1303 -346 OFFCURVE",
"1351 -349 CURVE SMOOTH",
"1368 -350 OFFCURVE",
"1372 -367 OFFCURVE",
"1367 -393 CURVE SMOOTH",
"1364 -408 OFFCURVE",
"1352 -418 OFFCURVE",
"1337 -422 CURVE SMOOTH",
"1280 -438 OFFCURVE",
"1227 -448 OFFCURVE",
"1176 -448 CURVE SMOOTH",
"1049 -448 OFFCURVE",
"956 -345 OFFCURVE",
"956 -238 CURVE SMOOTH"
);
}
);
width = 1374;
}
);
leftKerningGroup = A;
rightKerningGroup = A;
unicode = 0104;
},
{
glyphname = AE;
lastChange = "2018-05-23 18:31:44 +0000";
layers = (
{
anchors = (
{
name = btm;
position = "{963, -200}";
},
{
name = top;
position = "{1161, 2000}";
}
);
layerId = "DD6F9F34-BC40-4E8F-B1D3-DF3B42A9710F";
paths = (
{
closed = 1;
nodes = (
"855 1397 LINE",
"183 165 LINE SMOOTH",
"137 83 OFFCURVE",
"71 93 OFFCURVE",
"22 88 CURVE SMOOTH",
"-6 85 OFFCURVE",
"-14 81 OFFCURVE",
"-14 51 CURVE SMOOTH",
"-14 36 OFFCURVE",
"-2 0 OFFCURVE",
"20 0 CURVE SMOOTH",
"474 0 LINE SMOOTH",
"497 0 OFFCURVE",
"508 36 OFFCURVE",
"508 51 CURVE SMOOTH",
"508 72 OFFCURVE",
"501 85 OFFCURVE",
"475 88 CURVE",
"354 93 OFFCURVE",
"294 98 OFFCURVE",
"317 142 CURVE SMOOTH",
"950 1370 LINE"
);
},
{
closed = 1;
nodes = (
"1161 657 LINE",
"1161 743 LINE",
"558 743 LINE",
"558 657 LINE"
);
},
{
closed = 1;
nodes = (
"1266 1419 LINE",
"577 1419 LINE SMOOTH",
"554 1419 OFFCURVE",
"543 1393 OFFCURVE",
"543 1378 CURVE SMOOTH",
"543 1348 OFFCURVE",
"551 1333 OFFCURVE",
"579 1331 CURVE SMOOTH",
"676 1323 OFFCURVE",
"880 1315 OFFCURVE",
"955 1311 CURVE",
"954 152 LINE SMOOTH",
"954 108 OFFCURVE",
"863 93 OFFCURVE",
"799 88 CURVE SMOOTH",
"773 85 OFFCURVE",
"766 72 OFFCURVE",
"766 51 CURVE SMOOTH",
"766 36 OFFCURVE",
"777 0 OFFCURVE",
"800 0 CURVE SMOOTH",
"1275 0 LINE SMOOTH",
"1297 0 OFFCURVE",
"1309 16 OFFCURVE",
"1309 31 CURVE SMOOTH",
"1309 61 OFFCURVE",
"1325 100 OFFCURVE",
"1273 100 CURVE SMOOTH",
"1224 100 OFFCURVE",
"1161 111 OFFCURVE",
"1161 197 CURVE SMOOTH",
"1162 1335 LINE"
);
},
{
closed = 1;
nodes = (
"1667 1320 OFFCURVE",
"1760 1102 OFFCURVE",
"1765 1053 CURVE SMOOTH",
"1768 1027 OFFCURVE",
"1791 1020 OFFCURVE",
"1812 1020 CURVE SMOOTH",
"1827 1020 OFFCURVE",
"1853 1031 OFFCURVE",
"1853 1054 CURVE SMOOTH",
"1818 1418 LINE",
"1266 1419 LINE",
"1043 1320 LINE",
"1559 1320 LINE SMOOTH"
);
},
{
closed = 1;
nodes = (
"1010 1 LINE",
"1898 1 LINE",
"1941 412 LINE",
"1941 435 OFFCURVE",
"1915 446 OFFCURVE",
"1900 446 CURVE SMOOTH",
"1879 446 OFFCURVE",
"1856 439 OFFCURVE",
"1853 413 CURVE SMOOTH",
"1848 364 OFFCURVE",
"1722 101 OFFCURVE",
"1629 101 CURVE SMOOTH",
"1043 101 LINE"
);
},
{
closed = 1;
nodes = (
"1474 657 OFFCURVE",
"1514 516 OFFCURVE",
"1519 473 CURVE SMOOTH",
"1522 447 OFFCURVE",
"1555 440 OFFCURVE",
"1576 440 CURVE SMOOTH",
"1591 440 OFFCURVE",
"1617 451 OFFCURVE",
"1617 474 CURVE SMOOTH",
"1617 917 LINE SMOOTH",
"1617 940 OFFCURVE",
"1591 951 OFFCURVE",
"1576 951 CURVE SMOOTH",
"1555 951 OFFCURVE",
"1522 944 OFFCURVE",
"1519 918 CURVE SMOOTH",
"1514 878 OFFCURVE",
"1476 750 OFFCURVE",
"1424 743 CURVE",
"1065 743 LINE",
"1065 657 LINE",
"1418 657 LINE SMOOTH"
);
}
);
width = 1988;
}
);
leftKerningGroup = A;
rightKerningGroup = E;
unicode = 00C6;
},
{
glyphname = B;
lastChange = "2018-05-23 18:31:44 +0000";
layers = (
{
anchors = (
{
name = btm;
position = "{656, -200}";
},
{
name = top;
position = "{656, 2000}";
}
);
layerId = "DD6F9F34-BC40-4E8F-B1D3-DF3B42A9710F";
paths = (
{
closed = 1;
nodes = (
"543 1395 LINE",
"463 1419 LINE",
"105 1419 LINE SMOOTH",
"82 1419 OFFCURVE",
"71 1383 OFFCURVE",
"71 1368 CURVE SMOOTH",
"71 1338 OFFCURVE",
"79 1334 OFFCURVE",
"107 1331 CURVE SMOOTH",
"180 1326 OFFCURVE",
"289 1320 OFFCURVE",
"289 1234 CURVE SMOOTH",
"288 152 LINE SMOOTH",
"288 108 OFFCURVE",
"192 93 OFFCURVE",
"113 88 CURVE SMOOTH",
"87 85 OFFCURVE",
"80 72 OFFCURVE",
"80 51 CURVE SMOOTH",
"80 36 OFFCURVE",
"91 0 OFFCURVE",
"114 0 CURVE SMOOTH",
"609 0 LINE SMOOTH",
"631 0 OFFCURVE",
"643 16 OFFCURVE",
"643 31 CURVE SMOOTH",
"643 61 OFFCURVE",
"635 65 OFFCURVE",
"607 68 CURVE SMOOTH",
"558 73 OFFCURVE",
"495 19 OFFCURVE",
"495 105 CURVE SMOOTH",
"495 1347 LINE"
);
},
{
closed = 1;
nodes = (
"455 1322 LINE",
"455 1322 OFFCURVE",
"479 1322 OFFCURVE",
"588 1322 CURVE SMOOTH",
"762 1322 OFFCURVE",
"949 1277 OFFCURVE",
"949 1073 CURVE SMOOTH",
"949 847 OFFCURVE",
"769 817 OFFCURVE",
"651 817 CURVE SMOOTH",
"566 817 OFFCURVE",
"450 817 OFFCURVE",
"450 817 CURVE",
"450 817 OFFCURVE",
"450 721 OFFCURVE",
"450 721 CURVE",
"450 721 OFFCURVE",
"555 721 OFFCURVE",
"654 721 CURVE SMOOTH",
"743 721 OFFCURVE",
"1026 713 OFFCURVE",
"1026 418 CURVE SMOOTH",
"1026 141 OFFCURVE",
"802 101 OFFCURVE",
"658 101 CURVE SMOOTH",
"503 101 OFFCURVE",
"495 138 OFFCURVE",
"495 138 CURVE",
"495 138 OFFCURVE",
"455 0 OFFCURVE",
"455 0 CURVE",
"455 0 OFFCURVE",
"538 0 OFFCURVE",
"727 0 CURVE SMOOTH",
"966 0 OFFCURVE",
"1242 124 OFFCURVE",
"1242 416 CURVE SMOOTH",
"1242 677 OFFCURVE",
"1033 758 OFFCURVE",
"869 776 CURVE",
"1019 806 OFFCURVE",
"1157 913 OFFCURVE",
"1157 1100 CURVE SMOOTH",
"1157 1349 OFFCURVE",
"886 1419 OFFCURVE",
"645 1419 CURVE",
"463 1419 LINE"
);
}
);
width = 1339;
}
);
leftKerningGroup = H;
rightKerningGroup = B;
unicode = 0042;
},
{
glyphname = C;
lastChange = "2018-05-23 18:31:44 +0000";
layers = (
{
anchors = (
{
name = btm;
position = "{761, -200}";
},
{
name = top;
position = "{737, 2000}";
}
);
layerId = "DD6F9F34-BC40-4E8F-B1D3-DF3B42A9710F";
paths = (
{
closed = 1;
nodes = (
"988 1354 OFFCURVE",
"1110 1207 OFFCURVE",
"1157 1039 CURVE",
"1161 1013 OFFCURVE",
"1181 1008 OFFCURVE",
"1203 1011 CURVE SMOOTH",
"1219 1013 OFFCURVE",
"1242 1028 OFFCURVE",
"1239 1051 CURVE",
"1217 1361 LINE",
"1146 1392 OFFCURVE",
"1019 1449 OFFCURVE",
"754 1449 CURVE SMOOTH",
"466 1449 OFFCURVE",
"78 1235 OFFCURVE",
"78 706 CURVE SMOOTH",
"78 144 OFFCURVE",
"444 -30 OFFCURVE",
"765 -30 CURVE SMOOTH",
"1018 -30 OFFCURVE",
"1192 80 OFFCURVE",
"1196 108 CURVE SMOOTH",
"1228 372 LINE",
"1228 395 OFFCURVE",
"1183 406 OFFCURVE",
"1167 406 CURVE SMOOTH",
"1145 406 OFFCURVE",
"1135 399 OFFCURVE",
"1130 373 CURVE SMOOTH",
"1098 200 OFFCURVE",
"996 65 OFFCURVE",
"764 65 CURVE SMOOTH",
"605 65 OFFCURVE",
"327 152 OFFCURVE",
"327 706 CURVE SMOOTH",
"327 1289 OFFCURVE",
"581 1353 OFFCURVE",
"752 1353 CURVE SMOOTH"
);
}
);
width = 1315;
}
);
leftKerningGroup = O;
rightKerningGroup = C;
unicode = 0043;
},
{
glyphname = D;
lastChange = "2018-05-23 18:31:44 +0000";
layers = (
{
anchors = (
{
name = btm;
position = "{788, -200}";
},
{
name = top;
position = "{788, 2000}";
}
);
layerId = "DD6F9F34-BC40-4E8F-B1D3-DF3B42A9710F";
paths = (
{
closed = 1;
nodes = (
"600 1419 LINE",
"135 1419 LINE SMOOTH",
"112 1419 OFFCURVE",
"101 1383 OFFCURVE",
"101 1368 CURVE SMOOTH",
"101 1338 OFFCURVE",
"109 1334 OFFCURVE",
"137 1331 CURVE SMOOTH",
"198 1326 OFFCURVE",
"289 1320 OFFCURVE",
"289 1234 CURVE SMOOTH",
"288 152 LINE SMOOTH",
"288 108 OFFCURVE",
"207 93 OFFCURVE",
"143 88 CURVE SMOOTH",
"117 85 OFFCURVE",
"110 72 OFFCURVE",
"110 51 CURVE SMOOTH",
"110 36 OFFCURVE",
"121 0 OFFCURVE",
"144 0 CURVE SMOOTH",
"609 0 LINE SMOOTH",
"643 0 OFFCURVE",
"663 16 OFFCURVE",
"663 31 CURVE SMOOTH",
"663 61 OFFCURVE",
"651 65 OFFCURVE",
"607 68 CURVE SMOOTH",
"558 73 OFFCURVE",
"495 49 OFFCURVE",
"495 135 CURVE SMOOTH",
"496 1342 LINE"
);
},
{
closed = 1;
nodes = (
"460 1417 OFFCURVE",
"446 1322 OFFCURVE",
"446 1322 CURVE",
"446 1322 OFFCURVE",
"533 1322 OFFCURVE",
"718 1322 CURVE SMOOTH",
"951 1322 OFFCURVE",
"1209 1229 OFFCURVE",
"1209 734 CURVE SMOOTH",
"1209 161 OFFCURVE",
"941 101 OFFCURVE",
"698 101 CURVE SMOOTH",
"524 101 OFFCURVE",
"495 140 OFFCURVE",
"495 168 CURVE",
"495 168 OFFCURVE",
"455 0 OFFCURVE",
"455 0 CURVE",
"455 0 OFFCURVE",
"536 0 OFFCURVE",
"767 0 CURVE SMOOTH",
"1067 0 OFFCURVE",
"1455 217 OFFCURVE",
"1455 738 CURVE SMOOTH",
"1455 1083 OFFCURVE",
"1269 1417 OFFCURVE",
"725 1419 CURVE",
"463 1419 LINE"
);
}
);
width = 1534;
}
);
leftKerningGroup = H;
rightKerningGroup = O;
unicode = 0044;
},
{
glyphname = Eth;
lastChange = "2018-05-23 18:31:44 +0000";
layers = (
{
components = (
{
name = D;
}
);
layerId = "DD6F9F34-BC40-4E8F-B1D3-DF3B42A9710F";
paths = (
{
closed = 1;
nodes = (
"802 700 OFFCURVE",
"812 722 OFFCURVE",
"812 747 CURVE SMOOTH",
"812 763 OFFCURVE",
"804 780 OFFCURVE",
"788 781 CURVE",
"149 781 LINE",
"135 775 OFFCURVE",
"125 753 OFFCURVE",
"125 728 CURVE SMOOTH",
"125 712 OFFCURVE",
"133 695 OFFCURVE",
"149 694 CURVE",
"788 694 LINE"
);
}
);
width = 1534;
}
);
leftKerningGroup = H;
rightKerningGroup = O;
unicode = 00D0;
},
{
glyphname = Dcroat;
lastChange = "2018-05-23 18:31:44 +0000";
layers = (
{
components = (
{
name = D;
}
);
layerId = "DD6F9F34-BC40-4E8F-B1D3-DF3B42A9710F";
paths = (
{
closed = 1;
nodes = (
"802 700 OFFCURVE",
"812 722 OFFCURVE",
"812 747 CURVE SMOOTH",
"812 763 OFFCURVE",
"804 780 OFFCURVE",
"788 781 CURVE",
"149 781 LINE",
"135 775 OFFCURVE",
"125 753 OFFCURVE",
"125 728 CURVE SMOOTH",
"125 712 OFFCURVE",
"133 695 OFFCURVE",
"149 694 CURVE",
"788 694 LINE"
);
}
);
width = 1534;
}
);
leftKerningGroup = H;
rightKerningGroup = O;
unicode = 0110;
},
{
glyphname = E;
lastChange = "2018-05-23 18:31:44 +0000";
layers = (
{
anchors = (
{
name = btm;
position = "{696, -200}";
},
{
name = top;
position = "{696, 2000}";
}
);
layerId = "DD6F9F34-BC40-4E8F-B1D3-DF3B42A9710F";
paths = (
{
closed = 1;
nodes = (
"600 1419 LINE",
"135 1419 LINE SMOOTH",
"112 1419 OFFCURVE",
"101 1383 OFFCURVE",
"101 1368 CURVE SMOOTH",
"101 1338 OFFCURVE",
"109 1334 OFFCURVE",
"137 1331 CURVE SMOOTH",
"198 1326 OFFCURVE",
"289 1320 OFFCURVE",
"289 1234 CURVE SMOOTH",
"288 152 LINE SMOOTH",
"288 108 OFFCURVE",
"207 93 OFFCURVE",
"143 88 CURVE SMOOTH",
"117 85 OFFCURVE",
"110 72 OFFCURVE",
"110 51 CURVE SMOOTH",
"110 36 OFFCURVE",
"121 0 OFFCURVE",
"144 0 CURVE SMOOTH",
"609 0 LINE SMOOTH",
"631 0 OFFCURVE",
"643 16 OFFCURVE",
"643 31 CURVE SMOOTH",
"643 61 OFFCURVE",
"659 100 OFFCURVE",
"607 100 CURVE SMOOTH",
"558 100 OFFCURVE",
"495 111 OFFCURVE",
"495 197 CURVE SMOOTH",
"496 1335 LINE"
);
},
{
closed = 1;
nodes = (
"1017 1320 OFFCURVE",
"1110 1134 OFFCURVE",
"1115 1093 CURVE SMOOTH",
"1118 1067 OFFCURVE",
"1147 1060 OFFCURVE",
"1168 1060 CURVE SMOOTH",
"1183 1060 OFFCURVE",
"1209 1071 OFFCURVE",
"1209 1094 CURVE SMOOTH",
"1174 1418 LINE",
"600 1419 LINE",
"377 1320 LINE",
"909 1320 LINE SMOOTH"
);
},
{
closed = 1;
nodes = (
"344 1 LINE",
"1253 1 LINE",
"1296 372 LINE",
"1296 395 OFFCURVE",
"1281 406 OFFCURVE",
"1256 406 CURVE SMOOTH",
"1235 406 OFFCURVE",
"1207 398 OFFCURVE",
"1199 373 CURVE SMOOTH",
"1186 332 OFFCURVE",
"1072 101 OFFCURVE",
"979 101 CURVE SMOOTH",
"377 101 LINE"
);
},
{
closed = 1;
nodes = (
"824 687 OFFCURVE",
"864 546 OFFCURVE",
"869 503 CURVE SMOOTH",
"872 477 OFFCURVE",
"900 470 OFFCURVE",
"921 470 CURVE SMOOTH",
"936 470 OFFCURVE",
"962 481 OFFCURVE",
"962 504 CURVE SMOOTH",
"962 947 LINE SMOOTH",
"962 970 OFFCURVE",
"936 981 OFFCURVE",
"921 981 CURVE SMOOTH",
"900 981 OFFCURVE",
"872 974 OFFCURVE",
"869 948 CURVE SMOOTH",
"864 908 OFFCURVE",
"826 780 OFFCURVE",
"774 773 CURVE",
"399 773 LINE",
"399 687 LINE",
"768 687 LINE SMOOTH"
);
}
);
width = 1338;
}
);
leftKerningGroup = H;
rightKerningGroup = E;
unicode = 0045;
},
{
glyphname = Eogonek;
lastChange = "2018-05-23 18:31:45 +0000";
layers = (
{
components = (
{
name = E;
}
);
layerId = "DD6F9F34-BC40-4E8F-B1D3-DF3B42A9710F";
paths = (
{
closed = 1;
nodes = (
"826 -120 OFFCURVE",
"905 -36 OFFCURVE",
"1006 23 CURVE",
"1006 23 OFFCURVE",
"1084 16 OFFCURVE",
"1084 16 CURVE",
"1015 -36 OFFCURVE",
"974 -125 OFFCURVE",
"974 -198 CURVE SMOOTH",
"974 -381 OFFCURVE",
"1173 -346 OFFCURVE",
"1221 -349 CURVE SMOOTH",
"1238 -350 OFFCURVE",
"1242 -367 OFFCURVE",
"1237 -393 CURVE SMOOTH",
"1234 -408 OFFCURVE",
"1222 -418 OFFCURVE",
"1207 -422 CURVE SMOOTH",
"1150 -438 OFFCURVE",
"1097 -448 OFFCURVE",
"1046 -448 CURVE SMOOTH",
"919 -448 OFFCURVE",
"826 -345 OFFCURVE",
"826 -238 CURVE SMOOTH"
);
}
);
width = 1338;
}
);
leftKerningGroup = H;
rightKerningGroup = E;
unicode = 0118;
},
{
glyphname = F;
lastChange = "2018-05-23 18:31:45 +0000";
layers = (
{
anchors = (
{
name = btm;
position = "{620, -200}";
},
{
name = top;
position = "{620, 2000}";
}
);
layerId = "DD6F9F34-BC40-4E8F-B1D3-DF3B42A9710F";
paths = (
{
closed = 1;
nodes = (
"600 1419 LINE",
"105 1419 LINE SMOOTH",
"82 1419 OFFCURVE",
"71 1383 OFFCURVE",
"71 1368 CURVE SMOOTH",
"71 1338 OFFCURVE",
"79 1334 OFFCURVE",
"107 1331 CURVE SMOOTH",
"180 1326 OFFCURVE",
"289 1320 OFFCURVE",
"289 1234 CURVE SMOOTH",
"288 152 LINE SMOOTH",
"288 108 OFFCURVE",
"192 93 OFFCURVE",
"113 88 CURVE SMOOTH",
"87 85 OFFCURVE",
"80 72 OFFCURVE",
"80 51 CURVE SMOOTH",
"80 36 OFFCURVE",
"91 0 OFFCURVE",
"114 0 CURVE SMOOTH",
"719 0 LINE SMOOTH",
"742 0 OFFCURVE",
"753 36 OFFCURVE",
"753 51 CURVE SMOOTH",
"753 81 OFFCURVE",
"739 88 OFFCURVE",
"717 88 CURVE SMOOTH",
"632 88 OFFCURVE",
"495 111 OFFCURVE",
"495 197 CURVE SMOOTH",
"495 1340 LINE"
);
},
{
closed = 1;
nodes = (
"982 1320 OFFCURVE",
"1077 1108 OFFCURVE",
"1082 1069 CURVE SMOOTH",
"1085 1043 OFFCURVE",
"1104 1036 OFFCURVE",
"1125 1036 CURVE SMOOTH",
"1140 1036 OFFCURVE",
"1166 1047 OFFCURVE",
"1166 1070 CURVE SMOOTH",
"1129 1418 LINE",
"570 1419 LINE",
"347 1320 LINE",
"874 1320 LINE SMOOTH"
);
},
{
closed = 1;
nodes = (
"809 655 OFFCURVE",
"849 514 OFFCURVE",
"854 471 CURVE SMOOTH",
"857 445 OFFCURVE",
"885 438 OFFCURVE",
"906 438 CURVE SMOOTH",
"921 438 OFFCURVE",
"947 449 OFFCURVE",
"947 472 CURVE SMOOTH",
"947 915 LINE SMOOTH",
"947 938 OFFCURVE",
"921 949 OFFCURVE",
"906 949 CURVE SMOOTH",
"885 949 OFFCURVE",
"857 942 OFFCURVE",
"854 916 CURVE SMOOTH",
"849 876 OFFCURVE",
"811 748 OFFCURVE",
"759 741 CURVE",
"399 741 LINE",
"399 655 LINE",
"753 655 LINE SMOOTH"
);
}
);
width = 1227;
}
);
leftKerningGroup = H;
rightKerningGroup = F;
unicode = 0046;
},
{
glyphname = G;
lastChange = "2018-05-23 18:31:45 +0000";
layers = (
{
anchors = (
{
name = btm;
position = "{766, -200}";
},
{
name = top;
position = "{766, 2000}";
}
);
layerId = "DD6F9F34-BC40-4E8F-B1D3-DF3B42A9710F";
paths = (
{
closed = 1;
nodes = (
"1083 116 OFFCURVE",
"1293 123 OFFCURVE",
"1293 123 CURVE",
"1286 489 LINE SMOOTH",
"1286 533 OFFCURVE",
"1352 548 OFFCURVE",
"1411 553 CURVE SMOOTH",
"1437 556 OFFCURVE",
"1444 569 OFFCURVE",
"1444 590 CURVE SMOOTH",
"1444 605 OFFCURVE",
"1433 641 OFFCURVE",
"1410 641 CURVE SMOOTH",
"895 641 LINE SMOOTH",
"872 641 OFFCURVE",
"861 605 OFFCURVE",
"861 590 CURVE SMOOTH",
"861 560 OFFCURVE",
"869 556 OFFCURVE",
"897 553 CURVE SMOOTH",
"974 548 OFFCURVE",
"1083 542 OFFCURVE",
"1083 456 CURVE SMOOTH",
"1083 116 LINE"
);
},
{
closed = 1;
nodes = (
"1021 1354 OFFCURVE",
"1143 1207 OFFCURVE",
"1190 1039 CURVE",
"1194 1013 OFFCURVE",
"1216 1008 OFFCURVE",
"1238 1011 CURVE SMOOTH",
"1254 1013 OFFCURVE",
"1277 1028 OFFCURVE",
"1274 1051 CURVE",
"1252 1361 LINE",
"1181 1392 OFFCURVE",
"1052 1449 OFFCURVE",
"787 1449 CURVE SMOOTH",
"491 1449 OFFCURVE",
"88 1256 OFFCURVE",
"88 706 CURVE SMOOTH",
"88 153 OFFCURVE",
"486 -30 OFFCURVE",
"758 -30 CURVE SMOOTH",
"1082 -30 OFFCURVE",
"1261 79 OFFCURVE",
"1293 123 CURVE",
"1227 280 LINE",
"1155 279 LINE SMOOTH",
"1144 279 OFFCURVE",
"1083 207 OFFCURVE",
"1083 199 CURVE",
"1083 135 OFFCURVE",
"1012 65 OFFCURVE",
"804 65 CURVE SMOOTH",
"634 65 OFFCURVE",
"337 217 OFFCURVE",
"337 706 CURVE SMOOTH",
"337 1260 OFFCURVE",
"633 1354 OFFCURVE",
"785 1353 CURVE SMOOTH"
);
}
);
width = 1485;
}
);
leftKerningGroup = O;
rightKerningGroup = G;
unicode = 0047;
},
{
glyphname = H;
lastChange = "2018-05-23 18:31:45 +0000";
layers = (
{
anchors = (
{
name = btm;
position = "{834, -200}";
},
{
name = top;
position = "{834, 2000}";
}
);
layerId = "DD6F9F34-BC40-4E8F-B1D3-DF3B42A9710F";
paths = (
{
closed = 1;
nodes = (
"486 1311 OFFCURVE",
"567 1326 OFFCURVE",
"631 1331 CURVE SMOOTH",
"657 1334 OFFCURVE",
"664 1347 OFFCURVE",
"664 1368 CURVE SMOOTH",
"664 1383 OFFCURVE",
"653 1419 OFFCURVE",
"630 1419 CURVE SMOOTH",
"135 1419 LINE SMOOTH",
"112 1419 OFFCURVE",
"101 1383 OFFCURVE",
"101 1368 CURVE SMOOTH",
"101 1338 OFFCURVE",
"109 1334 OFFCURVE",
"137 1331 CURVE SMOOTH",
"198 1326 OFFCURVE",
"279 1320 OFFCURVE",
"279 1234 CURVE",
"278 152 LINE SMOOTH",
"278 108 OFFCURVE",
"207 93 OFFCURVE",
"143 88 CURVE SMOOTH",
"117 85 OFFCURVE",
"110 72 OFFCURVE",
"110 51 CURVE SMOOTH",
"110 36 OFFCURVE",
"121 0 OFFCURVE",
"144 0 CURVE SMOOTH",
"639 0 LINE SMOOTH",
"662 0 OFFCURVE",
"673 36 OFFCURVE",
"673 51 CURVE SMOOTH",
"673 81 OFFCURVE",
"665 85 OFFCURVE",
"637 88 CURVE SMOOTH",
"576 93 OFFCURVE",
"485 99 OFFCURVE",
"485 185 CURVE SMOOTH",
"486 1267 LINE SMOOTH"
);
},
{
closed = 1;
nodes = (
"1391 1311 OFFCURVE",
"1472 1326 OFFCURVE",
"1536 1331 CURVE SMOOTH",
"1562 1334 OFFCURVE",
"1569 1347 OFFCURVE",
"1569 1368 CURVE SMOOTH",
"1569 1383 OFFCURVE",
"1558 1419 OFFCURVE",
"1535 1419 CURVE SMOOTH",
"1030 1419 LINE SMOOTH",
"1007 1419 OFFCURVE",
"996 1383 OFFCURVE",
"996 1368 CURVE SMOOTH",
"996 1338 OFFCURVE",
"1004 1334 OFFCURVE",
"1032 1331 CURVE SMOOTH",
"1093 1326 OFFCURVE",
"1184 1320 OFFCURVE",
"1184 1234 CURVE SMOOTH",
"1183 152 LINE SMOOTH",
"1183 108 OFFCURVE",
"1102 93 OFFCURVE",
"1038 88 CURVE SMOOTH",
"1012 85 OFFCURVE",
"1005 72 OFFCURVE",
"1005 51 CURVE SMOOTH",
"1005 36 OFFCURVE",
"1016 0 OFFCURVE",
"1039 0 CURVE SMOOTH",
"1544 0 LINE SMOOTH",
"1567 0 OFFCURVE",
"1578 36 OFFCURVE",
"1578 51 CURVE SMOOTH",
"1578 81 OFFCURVE",
"1570 85 OFFCURVE",
"1542 88 CURVE SMOOTH",
"1481 93 OFFCURVE",
"1390 99 OFFCURVE",
"1390 185 CURVE SMOOTH",
"1391 1267 LINE SMOOTH"
);
},
{
closed = 1;
nodes = (
"1221 710 LINE",
"1221 796 LINE",
"424 796 LINE",
"424 710 LINE"
);
}
);
width = 1669;
}
);
leftKerningGroup = H;
rightKerningGroup = H;
unicode = 0048;
},
{
glyphname = Hbar;
lastChange = "2018-05-23 18:31:45 +0000";
layers = (
{
layerId = "DD6F9F34-BC40-4E8F-B1D3-DF3B42A9710F";
paths = (
{
closed = 1;
nodes = (
"486 1331 OFFCURVE",
"557 1346 OFFCURVE",
"621 1351 CURVE",
"647 1354 OFFCURVE",
"654 1367 OFFCURVE",
"654 1388 CURVE SMOOTH",
"654 1403 OFFCURVE",
"643 1419 OFFCURVE",
"620 1419 CURVE SMOOTH",
"135 1419 LINE SMOOTH",
"112 1419 OFFCURVE",
"101 1403 OFFCURVE",
"101 1388 CURVE SMOOTH",
"101 1358 OFFCURVE",
"109 1354 OFFCURVE",
"137 1351 CURVE SMOOTH",
"198 1346 OFFCURVE",
"279 1340 OFFCURVE",
"279 1254 CURVE SMOOTH",
"278 132 LINE SMOOTH",
"278 88 OFFCURVE",
"207 73 OFFCURVE",
"143 68 CURVE",
"117 65 OFFCURVE",
"110 52 OFFCURVE",
"110 31 CURVE SMOOTH",
"110 16 OFFCURVE",
"121 0 OFFCURVE",
"144 0 CURVE SMOOTH",
"629 0 LINE SMOOTH",
"652 0 OFFCURVE",
"663 16 OFFCURVE",
"663 31 CURVE SMOOTH",
"663 61 OFFCURVE",
"655 65 OFFCURVE",
"627 68 CURVE SMOOTH",
"566 73 OFFCURVE",
"485 79 OFFCURVE",
"485 165 CURVE SMOOTH",
"486 1287 LINE SMOOTH"
);
},
{
closed = 1;
nodes = (
"1391 1331 OFFCURVE",
"1462 1346 OFFCURVE",
"1526 1351 CURVE",
"1552 1354 OFFCURVE",
"1559 1367 OFFCURVE",
"1559 1388 CURVE SMOOTH",
"1559 1403 OFFCURVE",
"1548 1419 OFFCURVE",
"1525 1419 CURVE SMOOTH",
"1040 1419 LINE SMOOTH",
"1017 1419 OFFCURVE",
"1006 1403 OFFCURVE",
"1006 1388 CURVE SMOOTH",
"1006 1358 OFFCURVE",
"1014 1354 OFFCURVE",
"1042 1351 CURVE SMOOTH",
"1103 1346 OFFCURVE",
"1184 1340 OFFCURVE",
"1184 1254 CURVE SMOOTH",
"1183 132 LINE SMOOTH",
"1183 88 OFFCURVE",
"1112 73 OFFCURVE",
"1048 68 CURVE",
"1022 65 OFFCURVE",
"1015 52 OFFCURVE",
"1015 31 CURVE SMOOTH",
"1015 16 OFFCURVE",
"1026 0 OFFCURVE",
"1049 0 CURVE SMOOTH",
"1534 0 LINE SMOOTH",
"1557 0 OFFCURVE",
"1568 16 OFFCURVE",
"1568 31 CURVE SMOOTH",
"1568 61 OFFCURVE",
"1560 65 OFFCURVE",
"1532 68 CURVE SMOOTH",
"1471 73 OFFCURVE",
"1390 79 OFFCURVE",
"1390 165 CURVE SMOOTH",
"1391 1287 LINE SMOOTH"
);
},
{
closed = 1;
nodes = (
"1221 593 LINE",
"1221 679 LINE",
"424 679 LINE",
"424 593 LINE"
);
},
{
closed = 1;
nodes = (
"1567 916 LINE",
"1567 1002 LINE",
"102 1002 LINE",
"102 916 LINE"
);
}
);
width = 1669;
}
);
leftKerningGroup = H;
rightKerningGroup = H;
unicode = 0126;
},
{
glyphname = I;
lastChange = "2018-05-23 18:31:45 +0000";
layers = (
{
anchors = (
{
name = btm;
position = "{399, -200}";
},
{
name = top;
position = "{399, 2000}";
}
);
layerId = "DD6F9F34-BC40-4E8F-B1D3-DF3B42A9710F";
paths = (
{
closed = 1;
nodes = (
"503 1311 OFFCURVE",
"584 1326 OFFCURVE",
"648 1331 CURVE SMOOTH",
"674 1334 OFFCURVE",
"681 1347 OFFCURVE",
"681 1368 CURVE SMOOTH",
"681 1383 OFFCURVE",
"670 1419 OFFCURVE",
"647 1419 CURVE SMOOTH",
"142 1419 LINE SMOOTH",
"119 1419 OFFCURVE",
"108 1383 OFFCURVE",
"108 1368 CURVE SMOOTH",
"108 1338 OFFCURVE",
"116 1334 OFFCURVE",
"144 1331 CURVE SMOOTH",
"205 1326 OFFCURVE",
"296 1320 OFFCURVE",
"296 1234 CURVE SMOOTH",
"295 152 LINE SMOOTH",
"295 108 OFFCURVE",
"214 93 OFFCURVE",
"150 88 CURVE SMOOTH",
"124 85 OFFCURVE",
"117 72 OFFCURVE",
"117 51 CURVE SMOOTH",
"117 36 OFFCURVE",
"128 0 OFFCURVE",
"151 0 CURVE SMOOTH",
"656 0 LINE SMOOTH",
"679 0 OFFCURVE",
"690 36 OFFCURVE",
"690 51 CURVE SMOOTH",
"690 81 OFFCURVE",
"682 85 OFFCURVE",
"654 88 CURVE SMOOTH",
"593 93 OFFCURVE",
"502 99 OFFCURVE",
"502 185 CURVE SMOOTH",
"503 1267 LINE SMOOTH"
);
}
);
width = 798;
}
);
leftKerningGroup = I;
rightKerningGroup = I;
unicode = 0049;
},
{
glyphname = Iogonek;
lastChange = "2018-05-23 18:31:45 +0000";
layers = (
{
components = (
{
name = I;
}
);
layerId = "DD6F9F34-BC40-4E8F-B1D3-DF3B42A9710F";
paths = (
{
closed = 1;
nodes = (
"210 -120 OFFCURVE",
"289 -36 OFFCURVE",
"390 23 CURVE",
"390 23 OFFCURVE",
"468 16 OFFCURVE",
"468 16 CURVE",
"399 -36 OFFCURVE",
"358 -125 OFFCURVE",
"358 -198 CURVE SMOOTH",
"358 -381 OFFCURVE",
"557 -346 OFFCURVE",
"605 -349 CURVE SMOOTH",
"622 -350 OFFCURVE",
"626 -367 OFFCURVE",
"621 -393 CURVE SMOOTH",
"618 -408 OFFCURVE",
"606 -418 OFFCURVE",
"591 -422 CURVE SMOOTH",
"534 -438 OFFCURVE",
"481 -448 OFFCURVE",
"430 -448 CURVE SMOOTH",
"303 -448 OFFCURVE",
"210 -345 OFFCURVE",
"210 -238 CURVE SMOOTH"
);
}
);
width = 798;
}
);
leftKerningGroup = I;
rightKerningGroup = I;
unicode = 012E;
},
{
glyphname = J;
lastChange = "2018-05-23 18:31:45 +0000";
layers = (
{
anchors = (
{
name = btm;
position = "{537, -200}";
},
{
name = top;
position = "{745, 2000}";
}
);
layerId = "DD6F9F34-BC40-4E8F-B1D3-DF3B42A9710F";
paths = (
{
closed = 1;
nodes = (
"849 1311 OFFCURVE",
"916 1326 OFFCURVE",
"975 1331 CURVE SMOOTH",
"1001 1334 OFFCURVE",
"1008 1347 OFFCURVE",
"1008 1368 CURVE SMOOTH",
"1008 1383 OFFCURVE",
"997 1419 OFFCURVE",
"974 1419 CURVE SMOOTH",
"459 1419 LINE SMOOTH",
"436 1419 OFFCURVE",
"425 1383 OFFCURVE",
"425 1368 CURVE SMOOTH",
"425 1338 OFFCURVE",
"433 1334 OFFCURVE",
"461 1331 CURVE SMOOTH",
"534 1326 OFFCURVE",
"643 1320 OFFCURVE",
"643 1234 CURVE SMOOTH",
"642 406 LINE",
"849 439 LINE",
"849 1267 LINE SMOOTH"
);
},
{
closed = 1;
nodes = (
"642 161 OFFCURVE",
"558 59 OFFCURVE",
"418 59 CURVE SMOOTH",
"323 59 OFFCURVE",
"252 104 OFFCURVE",
"216 152 CURVE",
"182 130 LINE",
"209 113 OFFCURVE",
"251 88 OFFCURVE",
"253 102 CURVE SMOOTH",
"266 221 OFFCURVE",
"290 398 OFFCURVE",
"278 431 CURVE SMOOTH",
"266 464 OFFCURVE",
"230 471 OFFCURVE",
"206 471 CURVE SMOOTH",
"153 471 OFFCURVE",
"106 427 OFFCURVE",
"84 373 CURVE SMOOTH",
"55 303 OFFCURVE",
"53 171 OFFCURVE",
"151 76 CURVE SMOOTH",
"239 1 OFFCURVE",
"337 -30 OFFCURVE",
"427 -30 CURVE SMOOTH",
"578 -30 OFFCURVE",
"849 48 OFFCURVE",
"849 439 CURVE",
"754 467 LINE",
"642 406 LINE"
);
}
);
width = 1060;
}
);
leftKerningGroup = J;
rightKerningGroup = U;
unicode = 004A;
},
{
glyphname = K;
lastChange = "2018-05-23 18:31:45 +0000";
layers = (
{
anchors = (
{
name = btm;
position = "{778, -200}";
},
{
name = top;
position = "{778, 2000}";
}
);
layerId = "DD6F9F34-BC40-4E8F-B1D3-DF3B42A9710F";
paths = (
{
closed = 1;
nodes = (
"496 1311 OFFCURVE",
"567 1326 OFFCURVE",
"631 1331 CURVE",
"657 1334 OFFCURVE",
"664 1347 OFFCURVE",
"664 1368 CURVE SMOOTH",
"664 1383 OFFCURVE",
"653 1419 OFFCURVE",
"630 1419 CURVE SMOOTH",
"135 1419 LINE SMOOTH",
"112 1419 OFFCURVE",
"101 1383 OFFCURVE",
"101 1368 CURVE SMOOTH",
"101 1338 OFFCURVE",
"109 1334 OFFCURVE",
"137 1331 CURVE SMOOTH",
"198 1326 OFFCURVE",
"289 1320 OFFCURVE",
"289 1234 CURVE SMOOTH",
"288 152 LINE SMOOTH",
"288 108 OFFCURVE",
"207 93 OFFCURVE",
"143 88 CURVE",
"117 85 OFFCURVE",
"110 72 OFFCURVE",
"110 51 CURVE SMOOTH",
"110 36 OFFCURVE",
"121 0 OFFCURVE",
"144 0 CURVE SMOOTH",
"639 0 LINE SMOOTH",
"662 0 OFFCURVE",
"673 36 OFFCURVE",
"673 51 CURVE SMOOTH",
"673 81 OFFCURVE",
"665 85 OFFCURVE",
"637 88 CURVE SMOOTH",
"576 93 OFFCURVE",
"495 99 OFFCURVE",
"495 185 CURVE SMOOTH",
"496 1267 LINE SMOOTH"
);
},
{
closed = 1;
nodes = (
"1159 1263 LINE",
"1129 1318 LINE",
"1026 1276 LINE",
"543 692 LINE",
"696 708 LINE"
);
},
{
closed = 1;
nodes = (
"900 1418 OFFCURVE",
"889 1382 OFFCURVE",
"889 1367 CURVE SMOOTH",
"889 1346 OFFCURVE",
"894 1333 OFFCURVE",
"920 1330 CURVE SMOOTH",
"962 1326 OFFCURVE",
"1064 1319 OFFCURVE",
"1026 1276 CURVE",
"1159 1263 LINE",
"1212 1302 OFFCURVE",
"1288 1330 OFFCURVE",
"1356 1330 CURVE SMOOTH",
"1378 1330 OFFCURVE",
"1389 1343 OFFCURVE",
"1389 1367 CURVE SMOOTH",
"1389 1382 OFFCURVE",
"1378 1418 OFFCURVE",
"1355 1418 CURVE SMOOTH",
"923 1418 LINE SMOOTH"
);
},
{
closed = 1;
nodes = (
"1433 0 OFFCURVE",
"1445 17 OFFCURVE",
"1445 32 CURVE SMOOTH",
"1445 62 OFFCURVE",
"1437 86 OFFCURVE",
"1409 89 CURVE SMOOTH",
"1360 94 OFFCURVE",
"1259 155 OFFCURVE",
"1213 222 CURVE",
"1090 404 OFFCURVE",
"822 765 OFFCURVE",
"708 793 CURVE",
"626 758 LINE",
"543 692 LINE",
"686 674 OFFCURVE",
"914 219 OFFCURVE",
"1071 52 CURVE",
"1102 19 OFFCURVE",
"1121 0 OFFCURVE",
"1196 0 CURVE SMOOTH",
"1411 0 LINE SMOOTH"
);
}
);
width = 1422;
}
);
leftKerningGroup = H;
rightKerningGroup = K;
unicode = 004B;
},
{
glyphname = L;
lastChange = "2018-05-23 18:31:45 +0000";
layers = (
{
anchors = (
{
name = btm;
position = "{658, -200}";
},
{
name = top;
position = "{658, 2000}";
}
);
layerId = "DD6F9F34-BC40-4E8F-B1D3-DF3B42A9710F";
paths = (
{
closed = 1;
nodes = (
"496 1311 OFFCURVE",
"585 1331 OFFCURVE",
"651 1331 CURVE SMOOTH",
"677 1331 OFFCURVE",
"684 1347 OFFCURVE",
"684 1368 CURVE SMOOTH",
"684 1383 OFFCURVE",
"673 1419 OFFCURVE",
"650 1419 CURVE SMOOTH",
"135 1419 LINE SMOOTH",
"112 1419 OFFCURVE",
"101 1383 OFFCURVE",
"101 1368 CURVE SMOOTH",
"101 1338 OFFCURVE",
"109 1334 OFFCURVE",
"137 1331 CURVE SMOOTH",
"198 1326 OFFCURVE",
"289 1320 OFFCURVE",
"289 1234 CURVE SMOOTH",
"288 152 LINE SMOOTH",
"288 108 OFFCURVE",
"207 93 OFFCURVE",
"143 88 CURVE SMOOTH",
"117 85 OFFCURVE",
"110 72 OFFCURVE",
"110 51 CURVE SMOOTH",
"110 36 OFFCURVE",
"121 0 OFFCURVE",
"144 0 CURVE SMOOTH",
"609 0 LINE SMOOTH",
"631 0 OFFCURVE",
"643 16 OFFCURVE",
"643 31 CURVE SMOOTH",
"643 61 OFFCURVE",
"639 101 OFFCURVE",
"587 101 CURVE SMOOTH",
"538 101 OFFCURVE",
"495 111 OFFCURVE",
"495 177 CURVE SMOOTH",
"496 1237 LINE SMOOTH"
);
},
{
closed = 1;
nodes = (
"436 1 LINE",
"1151 1 LINE",
"1210 439 LINE SMOOTH",
"1213 462 OFFCURVE",
"1195 473 OFFCURVE",
"1170 473 CURVE SMOOTH",
"1149 473 OFFCURVE",
"1130 464 OFFCURVE",
"1122 440 CURVE SMOOTH",
"1072 296 OFFCURVE",
"975 101 OFFCURVE",
"882 101 CURVE SMOOTH",
"469 101 LINE"
);
}
);
width = 1236;
}
);
leftKerningGroup = H;
rightKerningGroup = L;
unicode = 004C;
},
{
glyphname = Lslash;
lastChange = "2018-05-23 18:31:45 +0000";
layers = (
{
layerId = "DD6F9F34-BC40-4E8F-B1D3-DF3B42A9710F";
paths = (
{
closed = 1;
nodes = (
"496 1331 OFFCURVE",
"585 1351 OFFCURVE",
"651 1351 CURVE SMOOTH",
"677 1351 OFFCURVE",
"684 1367 OFFCURVE",
"684 1388 CURVE SMOOTH",
"684 1403 OFFCURVE",
"673 1419 OFFCURVE",
"650 1419 CURVE SMOOTH",
"145 1419 LINE SMOOTH",
"122 1419 OFFCURVE",
"111 1403 OFFCURVE",
"111 1388 CURVE SMOOTH",
"111 1358 OFFCURVE",
"119 1354 OFFCURVE",
"147 1351 CURVE SMOOTH",
"208 1346 OFFCURVE",
"289 1340 OFFCURVE",
"289 1254 CURVE SMOOTH",
"288 132 LINE SMOOTH",
"288 88 OFFCURVE",
"217 73 OFFCURVE",
"153 68 CURVE",
"127 65 OFFCURVE",
"120 52 OFFCURVE",
"120 31 CURVE SMOOTH",
"120 16 OFFCURVE",
"131 0 OFFCURVE",
"154 0 CURVE SMOOTH",
"609 0 LINE SMOOTH",
"631 0 OFFCURVE",
"643 16 OFFCURVE",
"643 31 CURVE SMOOTH",
"643 61 OFFCURVE",
"639 101 OFFCURVE",
"587 101 CURVE SMOOTH",
"538 101 OFFCURVE",
"495 111 OFFCURVE",
"495 177 CURVE SMOOTH",
"496 1257 LINE SMOOTH"
);
},
{
closed = 1;
nodes = (
"436 1 LINE",
"1151 1 LINE",
"1204 372 LINE SMOOTH",
"1207 395 OFFCURVE",
"1176 406 OFFCURVE",
"1161 406 CURVE SMOOTH",
"1140 406 OFFCURVE",
"1124 397 OFFCURVE",
"1116 373 CURVE SMOOTH",
"1066 229 OFFCURVE",
"975 101 OFFCURVE",
"882 101 CURVE SMOOTH",
"469 101 LINE"
);
},
{
closed = 1;
nodes = (
"853 853 LINE",
"814 941 LINE",
"92 640 LINE",
"131 552 LINE"
);
}
);
width = 1236;
}
);
leftKerningGroup = H;
rightKerningGroup = L;
unicode = 0141;
},
{
glyphname = M;
lastChange = "2018-05-23 18:31:45 +0000";
layers = (
{
anchors = (
{
name = btm;
position = "{930, -200}";
},
{
name = top;
position = "{930, 2000}";
}
);
layerId = "DD6F9F34-BC40-4E8F-B1D3-DF3B42A9710F";
paths = (
{
closed = 1;
nodes = (
"1612 1311 OFFCURVE",
"1693 1326 OFFCURVE",
"1757 1331 CURVE",
"1783 1334 OFFCURVE",
"1790 1347 OFFCURVE",
"1790 1368 CURVE SMOOTH",
"1790 1383 OFFCURVE",
"1779 1419 OFFCURVE",
"1756 1419 CURVE SMOOTH",
"1520 1419 LINE",
"1360 1281 LINE",
"1405 1281 LINE",
"1404 152 LINE SMOOTH",
"1404 108 OFFCURVE",
"1313 93 OFFCURVE",
"1249 88 CURVE",
"1223 85 OFFCURVE",
"1216 72 OFFCURVE",
"1216 51 CURVE SMOOTH",
"1216 36 OFFCURVE",
"1227 0 OFFCURVE",
"1250 0 CURVE SMOOTH",
"1765 0 LINE SMOOTH",
"1788 0 OFFCURVE",
"1799 36 OFFCURVE",
"1799 51 CURVE SMOOTH",
"1799 81 OFFCURVE",
"1791 85 OFFCURVE",
"1763 88 CURVE SMOOTH",
"1702 93 OFFCURVE",
"1611 99 OFFCURVE",
"1611 185 CURVE SMOOTH",
"1612 1267 LINE SMOOTH"
);
},
{
closed = 1;
nodes = (
"72 1418 OFFCURVE",
"61 1383 OFFCURVE",
"61 1368 CURVE SMOOTH",
"61 1338 OFFCURVE",
"69 1334 OFFCURVE",
"97 1331 CURVE",
"170 1326 OFFCURVE",
"278 1320 OFFCURVE",
"278 1234 CURVE SMOOTH",
"278 184 LINE SMOOTH",
"278 100 OFFCURVE",
"182 93 OFFCURVE",
"103 88 CURVE",
"77 85 OFFCURVE",
"70 72 OFFCURVE",
"70 51 CURVE SMOOTH",
"70 36 OFFCURVE",
"81 0 OFFCURVE",
"104 0 CURVE SMOOTH",
"569 0 LINE SMOOTH",
"592 0 OFFCURVE",
"603 36 OFFCURVE",
"603 51 CURVE SMOOTH",
"603 81 OFFCURVE",
"595 85 OFFCURVE",
"567 88 CURVE",
"494 93 OFFCURVE",
"375 99 OFFCURVE",
"375 185 CURVE SMOOTH",
"375 1281 LINE",
"418 1281 LINE",
"474 1292 OFFCURVE",
"609 1328 OFFCURVE",
"589 1419 CURVE",
"95 1419 LINE"
);
},
{
closed = 1;
nodes = (
"890 0 LINE",
"973 164 LINE",
"951 366 LINE",
"589 1419 LINE",
"390 1339 LINE"
);
},
{
closed = 1;
nodes = (
"941 0 LINE",
"1380 1291 LINE",
"1518 1351 LINE",
"1520 1419 LINE",
"1318 1419 LINE",
"1308 1373 OFFCURVE",
"1291 1326 OFFCURVE",
"1265 1246 CURVE SMOOTH",
"963 366 LINE",
"951 366 LINE",
"891 0 LINE"
);
}
);
width = 1899;
}
);
leftKerningGroup = M;
rightKerningGroup = M;
unicode = 004D;
userData = {
com.typemytype.robofont.guides = (
{
angle = 0;
isGlobal = 0;
magnetic = 5;
x = 0;
y = 1281;
}
);
};
},
{
glyphname = N;
lastChange = "2018-05-23 18:31:45 +0000";
layers = (
{
anchors = (
{
name = btm;
position = "{805, -200}";
},
{
name = top;
position = "{805, 2000}";
}
);
layerId = "DD6F9F34-BC40-4E8F-B1D3-DF3B42A9710F";
paths = (
{
closed = 1;
nodes = (
"105 1419 LINE SMOOTH",
"82 1419 OFFCURVE",
"71 1383 OFFCURVE",
"71 1368 CURVE SMOOTH",
"71 1338 OFFCURVE",
"79 1334 OFFCURVE",
"107 1331 CURVE SMOOTH",
"168 1326 OFFCURVE",
"268 1320 OFFCURVE",
"268 1234 CURVE SMOOTH",
"268 172 LINE SMOOTH",
"268 108 OFFCURVE",
"177 93 OFFCURVE",
"113 88 CURVE",
"87 85 OFFCURVE",
"80 72 OFFCURVE",
"80 51 CURVE SMOOTH",
"80 36 OFFCURVE",
"91 0 OFFCURVE",
"114 0 CURVE SMOOTH",
"539 0 LINE SMOOTH",
"562 0 OFFCURVE",
"573 36 OFFCURVE",
"573 51 CURVE SMOOTH",
"573 81 OFFCURVE",
"565 85 OFFCURVE",
"537 88 CURVE SMOOTH",
"476 93 OFFCURVE",
"365 99 OFFCURVE",
"365 185 CURVE SMOOTH",
"365 1138 LINE",
"433 1212 LINE",
"443 1419 LINE"
);
},
{
closed = 1;
nodes = (
"382 1130 LINE",
"1223 -8 LINE",
"1328 2 LINE",
"1263 343 LINE",
"1222 343 LINE",
"443 1419 LINE",
"358 1130 LINE"
);
},
{
closed = 1;
nodes = (
"1331 1320 OFFCURVE",
"1445 1325 OFFCURVE",
"1506 1331 CURVE SMOOTH",
"1532 1334 OFFCURVE",
"1539 1347 OFFCURVE",
"1539 1368 CURVE SMOOTH",
"1539 1383 OFFCURVE",
"1528 1419 OFFCURVE",
"1505 1419 CURVE SMOOTH",
"1050 1419 LINE SMOOTH",
"1027 1419 OFFCURVE",
"1016 1383 OFFCURVE",
"1016 1368 CURVE SMOOTH",
"1016 1338 OFFCURVE",
"1024 1334 OFFCURVE",
"1052 1331 CURVE SMOOTH",
"1113 1326 OFFCURVE",
"1234 1320 OFFCURVE",
"1234 1234 CURVE SMOOTH",
"1234 297 LINE",
"1213 219 OFFCURVE",
"1152 99 OFFCURVE",
"1223 -8 CURVE",
"1233 -20 OFFCURVE",
"1256 -30 OFFCURVE",
"1277 -30 CURVE SMOOTH",
"1305 -30 OFFCURVE",
"1342 -16 OFFCURVE",
"1337 40 CURVE SMOOTH",
"1334 78 OFFCURVE",
"1331 88 OFFCURVE",
"1331 113 CURVE SMOOTH",
"1331 186 OFFCURVE",
"1331 163 OFFCURVE",
"1331 1234 CURVE SMOOTH"
);
}
);
width = 1571;
}
);
leftKerningGroup = H;
rightKerningGroup = H;
unicode = 004E;
},
{
glyphname = Eng;
lastChange = "2018-05-23 18:31:45 +0000";
layers = (
{
layerId = "DD6F9F34-BC40-4E8F-B1D3-DF3B42A9710F";
paths = (
{
closed = 1;
nodes = (
"125 1419 LINE SMOOTH",
"102 1419 OFFCURVE",
"91 1383 OFFCURVE",
"91 1368 CURVE SMOOTH",
"91 1338 OFFCURVE",
"99 1334 OFFCURVE",
"127 1331 CURVE SMOOTH",
"188 1326 OFFCURVE",
"268 1320 OFFCURVE",
"268 1234 CURVE SMOOTH",
"268 172 LINE SMOOTH",
"268 108 OFFCURVE",
"197 93 OFFCURVE",
"133 88 CURVE",
"107 85 OFFCURVE",
"100 72 OFFCURVE",
"100 51 CURVE SMOOTH",
"100 36 OFFCURVE",
"111 0 OFFCURVE",
"134 0 CURVE SMOOTH",
"509 0 LINE SMOOTH",
"532 0 OFFCURVE",
"543 36 OFFCURVE",
"543 51 CURVE SMOOTH",
"543 81 OFFCURVE",
"535 85 OFFCURVE",
"507 88 CURVE SMOOTH",
"446 93 OFFCURVE",
"365 99 OFFCURVE",
"365 185 CURVE SMOOTH",
"365 1148 LINE",
"433 1212 LINE",
"443 1419 LINE"
);
},
{
closed = 1;
nodes = (
"382 1140 LINE",
"1223 -8 LINE",
"1328 2 LINE",
"1263 333 LINE",
"1222 333 LINE",
"443 1419 LINE",
"358 1140 LINE"
);
},
{
closed = 1;
nodes = (
"1331 1311 OFFCURVE",
"1425 1326 OFFCURVE",
"1486 1331 CURVE",
"1512 1334 OFFCURVE",
"1519 1347 OFFCURVE",
"1519 1368 CURVE SMOOTH",
"1519 1383 OFFCURVE",
"1508 1419 OFFCURVE",
"1485 1419 CURVE SMOOTH",
"1080 1419 LINE SMOOTH",
"1057 1419 OFFCURVE",
"1046 1383 OFFCURVE",
"1046 1368 CURVE SMOOTH",
"1046 1338 OFFCURVE",
"1054 1334 OFFCURVE",
"1082 1331 CURVE SMOOTH",
"1143 1326 OFFCURVE",
"1234 1320 OFFCURVE",
"1234 1234 CURVE SMOOTH",
"1234 297 LINE",
"1213 219 OFFCURVE",
"1152 99 OFFCURVE",
"1223 -8 CURVE",
"1233 -20 OFFCURVE",
"1256 -27 OFFCURVE",
"1277 -30 CURVE SMOOTH",
"1331 -38 OFFCURVE",
"1331 -6 OFFCURVE",
"1331 44 CURVE SMOOTH",
"1331 117 OFFCURVE",
"1331 196 OFFCURVE",
"1331 1267 CURVE SMOOTH"
);
},
{
closed = 1;
nodes = (
"1224 -296 OFFCURVE",
"1068 -357 OFFCURVE",
"994 -357 CURVE SMOOTH",
"968 -357 OFFCURVE",
"914 -369 OFFCURVE",
"914 -369 CURVE",
"914 -369 OFFCURVE",
"940 -369 OFFCURVE",
"966 -379 CURVE",
"994 -379 OFFCURVE",
"1025 -375 OFFCURVE",
"1018 -362 CURVE SMOOTH",
"974 -282 OFFCURVE",
"961 -226 OFFCURVE",
"936 -212 CURVE",
"914 -198 OFFCURVE",
"804 -220 OFFCURVE",
"804 -310 CURVE SMOOTH",
"804 -379 OFFCURVE",
"852 -449 OFFCURVE",
"980 -449 CURVE SMOOTH",
"1208 -449 OFFCURVE",
"1331 -187 OFFCURVE",
"1331 88 CURVE",
"1243 119 LINE",
"1224 49 LINE"
);
}
);
width = 1571;
}
);
leftKerningGroup = Eng;
rightKerningGroup = Eng;
unicode = 014A;
},
{
glyphname = O;
lastChange = "2018-05-23 18:31:45 +0000";
layers = (
{
anchors = (
{
name = btm;
position = "{762, -200}";
},
{
name = top;
position = "{762, 2000}";
}
);
layerId = "DD6F9F34-BC40-4E8F-B1D3-DF3B42A9710F";
paths = (
{
closed = 1;
nodes = (
"94 306 OFFCURVE",
"338 -29 OFFCURVE",
"759 -29 CURVE SMOOTH",
"1181 -29 OFFCURVE",
"1430 306 OFFCURVE",
"1430 716 CURVE SMOOTH",
"1430 1126 OFFCURVE",
"1191 1449 OFFCURVE",
"769 1449 CURVE SMOOTH",
"347 1449 OFFCURVE",
"94 1126 OFFCURVE",
"94 716 CURVE SMOOTH"
);
},
{
closed = 1;
nodes = (
"339 1116 OFFCURVE",
"425 1356 OFFCURVE",
"758 1356 CURVE SMOOTH",
"1088 1356 OFFCURVE",
"1182 1116 OFFCURVE",
"1182 714 CURVE SMOOTH",
"1182 312 OFFCURVE",
"1094 65 OFFCURVE",
"763 65 CURVE SMOOTH",
"432 65 OFFCURVE",
"339 312 OFFCURVE",
"339 714 CURVE SMOOTH"
);
}
);
width = 1524;
}
);
leftKerningGroup = O;
rightKerningGroup = O;
unicode = 004F;
},
{
glyphname = Oslash;
lastChange = "2018-05-23 18:31:45 +0000";
layers = (
{
components = (
{
name = O;
}
);
layerId = "DD6F9F34-BC40-4E8F-B1D3-DF3B42A9710F";
paths = (
{
closed = 1;
nodes = (
"1318 1537 LINE",
"1234 1585 LINE",
"215 -124 LINE",
"298 -173 LINE"
);
}
);
width = 1524;
}
);
leftKerningGroup = O;
rightKerningGroup = O;
unicode = 00D8;
},
{
glyphname = OE;
lastChange = "2018-05-23 18:31:45 +0000";
layers = (
{
layerId = "DD6F9F34-BC40-4E8F-B1D3-DF3B42A9710F";
paths = (
{
closed = 1;
nodes = (
"964 78 OFFCURVE",
"880 65 OFFCURVE",
"743 65 CURVE SMOOTH",
"426 65 OFFCURVE",
"336 312 OFFCURVE",
"336 714 CURVE SMOOTH",
"336 1116 OFFCURVE",
"421 1360 OFFCURVE",
"738 1360 CURVE SMOOTH",
"903 1360 OFFCURVE",
"974 1313 OFFCURVE",
"1003 1275 CURVE",
"1021 1419 LINE",
"950 1419 OFFCURVE",
"915 1449 OFFCURVE",
"749 1449 CURVE SMOOTH",
"341 1449 OFFCURVE",
"94 1126 OFFCURVE",
"94 716 CURVE SMOOTH",
"94 306 OFFCURVE",
"334 -29 OFFCURVE",
"739 -29 CURVE SMOOTH",
"918 -29 OFFCURVE",
"956 0 OFFCURVE",
"1137 0 CURVE",
"1003 143 LINE"
);
},
{
closed = 1;
nodes = (
"1210 1301 OFFCURVE",
"1261 1320 OFFCURVE",
"1315 1320 CURVE SMOOTH",
"1341 1320 OFFCURVE",
"1348 1367 OFFCURVE",
"1348 1388 CURVE SMOOTH",
"1348 1403 OFFCURVE",
"1336 1419 OFFCURVE",
"1314 1419 CURVE SMOOTH",
"859 1419 LINE SMOOTH",
"837 1419 OFFCURVE",
"825 1403 OFFCURVE",
"825 1388 CURVE SMOOTH",
"825 1358 OFFCURVE",
"833 1354 OFFCURVE",
"861 1351 CURVE SMOOTH",
"922 1346 OFFCURVE",
"1003 1360 OFFCURVE",
"1003 1274 CURVE SMOOTH",
"1002 132 LINE SMOOTH",
"1002 88 OFFCURVE",
"932 73 OFFCURVE",
"867 68 CURVE",
"842 65 OFFCURVE",
"834 52 OFFCURVE",
"834 31 CURVE SMOOTH",
"834 16 OFFCURVE",
"845 0 OFFCURVE",
"868 0 CURVE SMOOTH",
"1323 0 LINE SMOOTH",
"1345 0 OFFCURVE",
"1357 16 OFFCURVE",
"1357 31 CURVE SMOOTH",
"1357 61 OFFCURVE",
"1373 100 OFFCURVE",
"1321 100 CURVE SMOOTH",
"1272 100 OFFCURVE",
"1209 111 OFFCURVE",
"1209 197 CURVE SMOOTH",
"1210 1257 LINE SMOOTH"
);
},
{
closed = 1;
nodes = (
"1743 1320 OFFCURVE",
"1836 1102 OFFCURVE",
"1841 1053 CURVE SMOOTH",
"1844 1027 OFFCURVE",
"1867 1020 OFFCURVE",
"1888 1020 CURVE SMOOTH",
"1903 1020 OFFCURVE",
"1929 1031 OFFCURVE",
"1929 1054 CURVE",
"1894 1418 LINE",
"1250 1419 LINE",
"1188 1320 LINE",
"1635 1320 LINE SMOOTH"
);
},
{
closed = 1;
nodes = (
"1155 0 LINE",
"1964 1 LINE",
"2007 412 LINE",
"2007 435 OFFCURVE",
"1982 446 OFFCURVE",
"1966 446 CURVE SMOOTH",
"1944 446 OFFCURVE",
"1921 439 OFFCURVE",
"1919 413 CURVE SMOOTH",
"1914 364 OFFCURVE",
"1788 101 OFFCURVE",
"1695 101 CURVE SMOOTH",
"1188 101 LINE"
);
},
{
closed = 1;
nodes = (
"1570 697 OFFCURVE",
"1610 556 OFFCURVE",
"1615 513 CURVE SMOOTH",
"1618 487 OFFCURVE",
"1641 480 OFFCURVE",
"1662 480 CURVE SMOOTH",
"1677 480 OFFCURVE",
"1703 491 OFFCURVE",
"1703 514 CURVE SMOOTH",
"1703 957 LINE SMOOTH",
"1703 980 OFFCURVE",
"1678 991 OFFCURVE",
"1662 991 CURVE SMOOTH",
"1640 991 OFFCURVE",
"1617 984 OFFCURVE",
"1615 958 CURVE",
"1610 918 OFFCURVE",
"1572 791 OFFCURVE",
"1520 784 CURVE",
"1200 784 LINE",
"1200 697 LINE",
"1514 697 LINE SMOOTH"
);
}
);
width = 2044;
}
);
leftKerningGroup = O;
rightKerningGroup = E;
unicode = 0152;
},
{
glyphname = P;
lastChange = "2018-05-23 18:31:45 +0000";
layers = (
{
anchors = (
{
name = btm;
position = "{654, -200}";
},
{
name = top;
position = "{654, 2000}";
}
);
layerId = "DD6F9F34-BC40-4E8F-B1D3-DF3B42A9710F";
paths = (
{
closed = 1;
nodes = (
"550 1419 LINE",
"135 1419 LINE SMOOTH",
"112 1419 OFFCURVE",
"101 1383 OFFCURVE",
"101 1368 CURVE SMOOTH",
"101 1338 OFFCURVE",
"109 1334 OFFCURVE",
"137 1331 CURVE SMOOTH",
"198 1326 OFFCURVE",
"289 1320 OFFCURVE",
"289 1234 CURVE SMOOTH",
"288 152 LINE SMOOTH",
"288 108 OFFCURVE",
"207 93 OFFCURVE",
"143 88 CURVE SMOOTH",
"117 85 OFFCURVE",
"110 72 OFFCURVE",
"110 51 CURVE SMOOTH",
"110 36 OFFCURVE",
"121 0 OFFCURVE",
"144 0 CURVE SMOOTH",
"699 0 LINE SMOOTH",
"722 0 OFFCURVE",
"733 36 OFFCURVE",
"733 51 CURVE SMOOTH",
"733 81 OFFCURVE",
"725 85 OFFCURVE",
"697 88 CURVE SMOOTH",
"620 93 OFFCURVE",
"495 99 OFFCURVE",
"495 185 CURVE SMOOTH",
"496 1357 LINE"
);
},
{
closed = 1;
nodes = (
"460 1417 OFFCURVE",
"442 1342 OFFCURVE",
"442 1342 CURVE",
"442 1342 OFFCURVE",
"530 1342 OFFCURVE",
"638 1342 CURVE SMOOTH",
"797 1342 OFFCURVE",
"979 1265 OFFCURVE",
"979 989 CURVE SMOOTH",
"979 721 OFFCURVE",
"746 641 OFFCURVE",
"671 641 CURVE SMOOTH",
"594 641 OFFCURVE",
"450 641 OFFCURVE",
"450 641 CURVE",
"450 641 OFFCURVE",
"450 555 OFFCURVE",
"450 555 CURVE",
"450 555 OFFCURVE",
"585 555 OFFCURVE",
"674 555 CURVE SMOOTH",
"974 555 OFFCURVE",
"1197 742 OFFCURVE",
"1197 1010 CURVE SMOOTH",
"1197 1321 OFFCURVE",
"950 1421 OFFCURVE",
"715 1421 CURVE",
"463 1419 LINE"
);
}
);
width = 1249;
}
);
leftKerningGroup = H;
rightKerningGroup = P;
unicode = 0050;
},
{
glyphname = Thorn;
lastChange = "2018-05-23 18:31:45 +0000";
layers = (
{
layerId = "DD6F9F34-BC40-4E8F-B1D3-DF3B42A9710F";
paths = (
{
closed = 1;
nodes = (
"496 1311 OFFCURVE",
"577 1326 OFFCURVE",
"641 1331 CURVE",
"667 1334 OFFCURVE",
"674 1347 OFFCURVE",
"674 1368 CURVE SMOOTH",
"674 1383 OFFCURVE",
"663 1419 OFFCURVE",
"640 1419 CURVE SMOOTH",
"135 1419 LINE SMOOTH",
"112 1419 OFFCURVE",
"101 1383 OFFCURVE",
"101 1368 CURVE SMOOTH",
"101 1338 OFFCURVE",
"109 1334 OFFCURVE",
"137 1331 CURVE SMOOTH",
"198 1326 OFFCURVE",
"289 1320 OFFCURVE",
"289 1234 CURVE SMOOTH",
"288 152 LINE SMOOTH",
"288 108 OFFCURVE",
"207 93 OFFCURVE",
"143 88 CURVE",
"117 85 OFFCURVE",
"110 72 OFFCURVE",
"110 51 CURVE SMOOTH",
"110 36 OFFCURVE",
"121 0 OFFCURVE",
"144 0 CURVE SMOOTH",
"699 0 LINE SMOOTH",
"722 0 OFFCURVE",
"733 36 OFFCURVE",
"733 51 CURVE SMOOTH",
"733 81 OFFCURVE",
"725 85 OFFCURVE",
"697 88 CURVE SMOOTH",
"636 93 OFFCURVE",
"495 99 OFFCURVE",
"495 185 CURVE SMOOTH",
"496 1267 LINE SMOOTH"
);
},
{
closed = 1;
nodes = (
"460 1151 OFFCURVE",
"442 1076 OFFCURVE",
"442 1076 CURVE",
"442 1076 OFFCURVE",
"560 1076 OFFCURVE",
"668 1076 CURVE SMOOTH",
"827 1076 OFFCURVE",
"979 1001 OFFCURVE",
"979 733 CURVE SMOOTH",
"979 473 OFFCURVE",
"776 395 OFFCURVE",
"701 395 CURVE SMOOTH",
"624 395 OFFCURVE",
"450 395 OFFCURVE",
"450 395 CURVE",
"450 395 OFFCURVE",
"450 309 OFFCURVE",
"450 309 CURVE",
"450 309 OFFCURVE",
"615 309 OFFCURVE",
"704 309 CURVE SMOOTH",
"1004 309 OFFCURVE",
"1197 492 OFFCURVE",
"1197 754 CURVE SMOOTH",
"1197 1057 OFFCURVE",
"980 1155 OFFCURVE",
"745 1155 CURVE",
"463 1153 LINE"
);
}
);
width = 1258;
}
);
leftKerningGroup = H;
rightKerningGroup = Thorn;
unicode = 00DE;
},
{
glyphname = Q;
lastChange = "2018-05-23 18:31:45 +0000";
layers = (
{
anchors = (
{
name = btm;
position = "{762, -200}";
},
{
name = top;
position = "{762, 2000}";
}
);
components = (
{
name = O;
}
);
layerId = "DD6F9F34-BC40-4E8F-B1D3-DF3B42A9710F";
paths = (
{
closed = 1;
nodes = (
"733 -369 OFFCURVE",
"980 -419 OFFCURVE",
"1202 -419 CURVE SMOOTH",
"1311 -419 OFFCURVE",
"1365 -393 OFFCURVE",
"1365 -393 CURVE",
"1365 -393 OFFCURVE",
"1365 -323 OFFCURVE",
"1365 -323 CURVE",
"993 -330 OFFCURVE",
"928 -76 OFFCURVE",
"925 29 CURVE SMOOTH",
"925 29 OFFCURVE",
"673 0 OFFCURVE",
"673 0 CURVE"
);
}
);
width = 1524;
}
);
leftKerningGroup = O;
rightKerningGroup = O;
unicode = 0051;
},
{
glyphname = R;
lastChange = "2018-05-23 18:31:45 +0000";
layers = (
{
anchors = (
{
name = btm;
position = "{776, -200}";
},
{
name = top;
position = "{776, 2000}";
}
);
layerId = "DD6F9F34-BC40-4E8F-B1D3-DF3B42A9710F";
paths = (
{
closed = 1;
nodes = (
"545 1380 LINE",
"463 1419 LINE",
"135 1419 LINE SMOOTH",
"112 1419 OFFCURVE",
"101 1383 OFFCURVE",
"101 1368 CURVE SMOOTH",
"101 1338 OFFCURVE",
"109 1334 OFFCURVE",
"137 1331 CURVE SMOOTH",
"198 1326 OFFCURVE",
"289 1320 OFFCURVE",
"289 1234 CURVE SMOOTH",
"288 152 LINE SMOOTH",
"288 108 OFFCURVE",
"207 93 OFFCURVE",
"143 88 CURVE SMOOTH",
"117 85 OFFCURVE",
"110 72 OFFCURVE",
"110 51 CURVE SMOOTH",
"110 36 OFFCURVE",
"121 0 OFFCURVE",
"144 0 CURVE SMOOTH",
"669 0 LINE SMOOTH",
"692 0 OFFCURVE",
"703 36 OFFCURVE",
"703 51 CURVE SMOOTH",
"703 81 OFFCURVE",
"695 85 OFFCURVE",
"667 88 CURVE SMOOTH",
"594 93 OFFCURVE",
"495 99 OFFCURVE",
"495 185 CURVE SMOOTH",
"496 1363 LINE"
);
},
{
closed = 1;
nodes = (
"476 1332 LINE",
"476 1332 OFFCURVE",
"512 1332 OFFCURVE",
"658 1332 CURVE SMOOTH",
"850 1332 OFFCURVE",
"1002 1263 OFFCURVE",
"1002 1019 CURVE SMOOTH",
"1002 775 OFFCURVE",
"816 711 OFFCURVE",
"651 711 CURVE SMOOTH",
"581 711 OFFCURVE",
"450 711 OFFCURVE",
"450 711 CURVE",
"450 711 OFFCURVE",
"450 625 OFFCURVE",
"450 625 CURVE",
"450 625 OFFCURVE",
"637 625 OFFCURVE",
"724 625 CURVE SMOOTH",
"791 625 OFFCURVE",
"783 633 OFFCURVE",
"841 649 CURVE SMOOTH",
"1066 705 OFFCURVE",
"1211 834 OFFCURVE",
"1211 1050 CURVE SMOOTH",
"1211 1329 OFFCURVE",
"987 1417 OFFCURVE",
"705 1419 CURVE",
"463 1419 LINE"
);
},
{
closed = 1;
nodes = (
"1429 0 OFFCURVE",
"1441 31 OFFCURVE",
"1441 46 CURVE SMOOTH",
"1441 76 OFFCURVE",
"1433 86 OFFCURVE",
"1405 89 CURVE SMOOTH",
"1356 94 OFFCURVE",
"1289 119 OFFCURVE",
"1244 206 CURVE SMOOTH",
"1122 400 OFFCURVE",
"1124 656 OFFCURVE",
"809 656 CURVE",
"767 656 LINE",
"700 625 LINE",
"995 625 OFFCURVE",
"873 0 OFFCURVE",
"1204 0 CURVE",
"1407 0 LINE"
);
}
);
width = 1437;
}
);
leftKerningGroup = H;
rightKerningGroup = R;
unicode = 0052;
},
{
glyphname = S;
lastChange = "2018-05-23 18:31:45 +0000";
layers = (
{
anchors = (
{
name = btm;
position = "{586, -200}";
},
{
name = top;
position = "{586, 2000}";
}
);
layerId = "DD6F9F34-BC40-4E8F-B1D3-DF3B42A9710F";
paths = (
{
closed = 1;
nodes = (
"371 1308 OFFCURVE",
"469 1370 OFFCURVE",
"607 1370 CURVE SMOOTH",
"752 1370 OFFCURVE",
"880 1265 OFFCURVE",
"920 1051 CURVE SMOOTH",
"925 1023 OFFCURVE",
"1028 1003 OFFCURVE",
"1015 1100 CURVE SMOOTH",
"1001 1210 OFFCURVE",
"990 1369 OFFCURVE",
"990 1394 CURVE SMOOTH",
"990 1421 OFFCURVE",
"939 1444 OFFCURVE",
"909 1425 CURVE SMOOTH",
"886 1411 OFFCURVE",
"882 1391 OFFCURVE",
"827 1401 CURVE SMOOTH",
"792 1407 OFFCURVE",
"708 1449 OFFCURVE",
"590 1449 CURVE SMOOTH",
"407 1449 OFFCURVE",
"180 1344 OFFCURVE",
"180 1069 CURVE SMOOTH",
"180 831 OFFCURVE",
"372 720 OFFCURVE",
"556 626 CURVE SMOOTH",
"713 544 OFFCURVE",
"850 452 OFFCURVE",
"850 321 CURVE SMOOTH",
"850 125 OFFCURVE",
"740 59 OFFCURVE",
"620 59 CURVE SMOOTH",
"516 59 OFFCURVE",
"354 121 OFFCURVE",
"282 274 CURVE SMOOTH",
"228 389 OFFCURVE",
"215 444 OFFCURVE",
"208 478 CURVE SMOOTH",
"196 538 OFFCURVE",
"98 536 OFFCURVE",
"108 458 CURVE",
"117 378 OFFCURVE",
"135 214 OFFCURVE",
"126 72 CURVE SMOOTH",
"123 22 OFFCURVE",
"180 -1 OFFCURVE",
"238 65 CURVE SMOOTH",
"275 107 OFFCURVE",
"296 62 OFFCURVE",
"352 41 CURVE SMOOTH",
"396 25 OFFCURVE",
"475 -30 OFFCURVE",
"637 -30 CURVE SMOOTH",
"878 -30 OFFCURVE",
"1054 121 OFFCURVE",
"1054 382 CURVE SMOOTH",
"1054 581 OFFCURVE",
"862 713 OFFCURVE",
"677 815 CURVE SMOOTH",
"519 899 OFFCURVE",
"371 1000 OFFCURVE",
"371 1129 CURVE SMOOTH"
);
}
);
width = 1149;
}
);
leftKerningGroup = S;
rightKerningGroup = S;
unicode = 0053;
},
{
glyphname = T;
lastChange = "2018-05-23 18:31:45 +0000";
layers = (
{
anchors = (
{
name = btm;
position = "{633, -200}";
},
{
name = top;
position = "{633, 2000}";
}
);
layerId = "DD6F9F34-BC40-4E8F-B1D3-DF3B42A9710F";
paths = (
{
closed = 1;
nodes = (
"737 1381 OFFCURVE",
"752 1320 OFFCURVE",
"836 1320 CURVE SMOOTH",
"862 1320 OFFCURVE",
"875 1367 OFFCURVE",
"875 1388 CURVE SMOOTH",
"875 1403 OFFCURVE",
"864 1419 OFFCURVE",
"841 1419 CURVE SMOOTH",
"416 1419 LINE SMOOTH",
"394 1419 OFFCURVE",
"382 1403 OFFCURVE",
"382 1388 CURVE SMOOTH",
"382 1358 OFFCURVE",
"388 1320 OFFCURVE",
"422 1320 CURVE SMOOTH",
"506 1320 OFFCURVE",
"530 1381 OFFCURVE",
"530 1336 CURVE SMOOTH",
"529 182 LINE SMOOTH",
"529 108 OFFCURVE",
"418 93 OFFCURVE",
"324 88 CURVE SMOOTH",
"298 85 OFFCURVE",
"291 72 OFFCURVE",
"291 51 CURVE SMOOTH",
"291 36 OFFCURVE",
"302 0 OFFCURVE",
"325 0 CURVE SMOOTH",
"940 0 LINE SMOOTH",
"963 0 OFFCURVE",
"974 36 OFFCURVE",
"974 51 CURVE SMOOTH",
"974 81 OFFCURVE",
"966 85 OFFCURVE",
"938 88 CURVE SMOOTH",
"857 93 OFFCURVE",
"736 99 OFFCURVE",
"736 185 CURVE SMOOTH",
"737 1337 LINE SMOOTH"
);
},
{
closed = 1;
nodes = (
"601 1419 LINE",
"65 1419 LINE",
"50 1419 OFFCURVE",
"29 1151 OFFCURVE",
"25 1020 CURVE",
"25 997 OFFCURVE",
"61 986 OFFCURVE",
"76 986 CURVE SMOOTH",
"97 986 OFFCURVE",
"110 993 OFFCURVE",
"113 1019 CURVE SMOOTH",
"118 1084 OFFCURVE",
"153 1320 OFFCURVE",
"267 1320 CURVE SMOOTH",
"625 1320 LINE"
);
},
{
closed = 1;
nodes = (
"1114 1320 OFFCURVE",
"1149 1084 OFFCURVE",
"1154 1019 CURVE",
"1157 993 OFFCURVE",
"1170 986 OFFCURVE",
"1191 986 CURVE SMOOTH",
"1206 986 OFFCURVE",
"1242 997 OFFCURVE",
"1242 1020 CURVE",
"1238 1151 OFFCURVE",
"1217 1419 OFFCURVE",
"1202 1419 CURVE SMOOTH",
"666 1419 LINE",
"642 1320 LINE",
"1000 1320 LINE"
);
}
);
width = 1267;
}
);
leftKerningGroup = T;
rightKerningGroup = T;
unicode = 0054;
},
{
glyphname = Tbar;
lastChange = "2018-05-23 18:31:45 +0000";
layers = (
{
components = (
{
name = T;
}
);
layerId = "DD6F9F34-BC40-4E8F-B1D3-DF3B42A9710F";
paths = (
{
closed = 1;
nodes = (
"1093 647 OFFCURVE",
"1103 669 OFFCURVE",
"1103 694 CURVE SMOOTH",
"1103 710 OFFCURVE",
"1095 727 OFFCURVE",
"1079 728 CURVE",
"194 728 LINE",
"180 722 OFFCURVE",
"170 700 OFFCURVE",
"170 675 CURVE SMOOTH",
"170 659 OFFCURVE",
"178 642 OFFCURVE",
"194 641 CURVE",
"1079 641 LINE"
);
}
);
width = 1267;
}
);
leftKerningGroup = T;
rightKerningGroup = T;
unicode = 0166;
},
{
glyphname = U;
lastChange = "2018-05-23 18:31:45 +0000";
layers = (
{
anchors = (
{
name = btm;
position = "{787, -200}";
},
{
name = top;
position = "{831, 2000}";
}
);
layerId = "DD6F9F34-BC40-4E8F-B1D3-DF3B42A9710F";
paths = (
{
closed = 1;
nodes = (
"1304 1294 OFFCURVE",
"1376 1326 OFFCURVE",
"1479 1331 CURVE SMOOTH",
"1505 1332 OFFCURVE",
"1512 1347 OFFCURVE",
"1512 1368 CURVE SMOOTH",
"1512 1383 OFFCURVE",
"1501 1419 OFFCURVE",
"1478 1419 CURVE SMOOTH",
"1022 1419 LINE SMOOTH",
"999 1419 OFFCURVE",
"988 1383 OFFCURVE",
"988 1368 CURVE SMOOTH",
"988 1338 OFFCURVE",
"996 1334 OFFCURVE",
"1024 1331 CURVE SMOOTH",
"1079 1326 OFFCURVE",
"1200 1311 OFFCURVE",
"1200 1244 CURVE SMOOTH",
"1200 514 LINE SMOOTH",
"1200 250 OFFCURVE",
"1108 65 OFFCURVE",
"793 65 CURVE SMOOTH",
"585 65 OFFCURVE",
"476 212 OFFCURVE",
"476 524 CURVE SMOOTH",
"477 1267 LINE SMOOTH",
"477 1311 OFFCURVE",
"563 1326 OFFCURVE",
"632 1331 CURVE SMOOTH",
"658 1334 OFFCURVE",
"665 1347 OFFCURVE",
"665 1368 CURVE SMOOTH",
"665 1383 OFFCURVE",
"654 1419 OFFCURVE",
"631 1419 CURVE SMOOTH",
"116 1419 LINE SMOOTH",
"93 1419 OFFCURVE",
"82 1383 OFFCURVE",
"82 1368 CURVE SMOOTH",
"82 1338 OFFCURVE",
"90 1334 OFFCURVE",
"118 1331 CURVE SMOOTH",
"179 1326 OFFCURVE",
"260 1320 OFFCURVE",
"260 1234 CURVE SMOOTH",
"259 516 LINE SMOOTH",
"259 194 OFFCURVE",
"461 -29 OFFCURVE",
"789 -29 CURVE SMOOTH",
"1109 -29 OFFCURVE",
"1301 154 OFFCURVE",
"1302 516 CURVE SMOOTH",
"1304 1230 LINE SMOOTH"
);
}
);
width = 1549;
}
);
leftKerningGroup = U;
rightKerningGroup = U;
unicode = 0055;
},
{
glyphname = Uogonek;
lastChange = "2018-05-23 18:31:45 +0000";
layers = (
{
components = (
{
name = U;
}
);
layerId = "DD6F9F34-BC40-4E8F-B1D3-DF3B42A9710F";
paths = (
{
closed = 1;
nodes = (
"767 -122 OFFCURVE",
"912 2 OFFCURVE",
"952 19 CURVE",
"952 19 OFFCURVE",
"1084 44 OFFCURVE",
"1084 44 CURVE",
"1005 3 OFFCURVE",
"915 -116 OFFCURVE",
"915 -198 CURVE SMOOTH",
"915 -381 OFFCURVE",
"1114 -346 OFFCURVE",
"1162 -349 CURVE SMOOTH",
"1179 -350 OFFCURVE",
"1183 -367 OFFCURVE",
"1178 -393 CURVE SMOOTH",
"1175 -408 OFFCURVE",
"1163 -418 OFFCURVE",
"1148 -422 CURVE SMOOTH",
"1091 -438 OFFCURVE",
"1038 -448 OFFCURVE",
"987 -448 CURVE SMOOTH",
"860 -448 OFFCURVE",
"767 -345 OFFCURVE",
"767 -238 CURVE SMOOTH"
);
}
);
width = 1549;
}
);
leftKerningGroup = U;
rightKerningGroup = U;
unicode = 0172;
},
{
glyphname = V;
lastChange = "2018-05-23 18:31:45 +0000";
layers = (
{
anchors = (
{
name = btm;
position = "{689, -200}";
},
{
name = top;
position = "{689, 2000}";
}
);
layerId = "DD6F9F34-BC40-4E8F-B1D3-DF3B42A9710F";
paths = (
{
closed = 1;
nodes = (
"361 1334 OFFCURVE",
"425 1326 OFFCURVE",
"516 1331 CURVE SMOOTH",
"542 1334 OFFCURVE",
"549 1347 OFFCURVE",
"549 1368 CURVE SMOOTH",
"549 1383 OFFCURVE",
"538 1419 OFFCURVE",
"515 1419 CURVE SMOOTH",
"-10 1419 LINE SMOOTH",
"-32 1419 OFFCURVE",
"-44 1383 OFFCURVE",
"-44 1368 CURVE SMOOTH",
"-44 1338 OFFCURVE",
"-36 1334 OFFCURVE",
"-8 1331 CURVE SMOOTH",
"41 1326 OFFCURVE",
"120 1342 OFFCURVE",
"153 1254 CURVE SMOOTH",
"638 -18 LINE",
"761 -18 LINE",
"748 222 LINE",
"378 1287 LINE SMOOTH"
);
},
{
closed = 1;
nodes = (
"761 -18 LINE",
"1226 1254 LINE SMOOTH",
"1259 1342 OFFCURVE",
"1338 1326 OFFCURVE",
"1387 1331 CURVE SMOOTH",
"1415 1334 OFFCURVE",
"1423 1338 OFFCURVE",
"1423 1368 CURVE SMOOTH",
"1423 1383 OFFCURVE",
"1411 1419 OFFCURVE",
"1389 1419 CURVE SMOOTH",
"934 1419 LINE SMOOTH",
"911 1419 OFFCURVE",
"900 1383 OFFCURVE",
"900 1368 CURVE SMOOTH",
"900 1347 OFFCURVE",
"907 1334 OFFCURVE",
"933 1331 CURVE",
"1024 1326 OFFCURVE",
"1107 1304 OFFCURVE",
"1091 1257 CURVE SMOOTH",
"741 222 LINE"
);
}
);
width = 1365;
}
);
leftKerningGroup = V;
rightKerningGroup = V;
unicode = 0056;
},
{
glyphname = W;
lastChange = "2018-05-23 18:31:45 +0000";
layers = (
{
anchors = (
{
name = btm;
position = "{1007, -200}";
},
{
name = top;
position = "{1040, 2000}";
}
);
layerId = "DD6F9F34-BC40-4E8F-B1D3-DF3B42A9710F";
paths = (
{
closed = 1;
nodes = (
"361 1334 OFFCURVE",
"445 1326 OFFCURVE",
"536 1331 CURVE",
"562 1334 OFFCURVE",
"569 1347 OFFCURVE",
"569 1368 CURVE SMOOTH",
"569 1383 OFFCURVE",
"558 1419 OFFCURVE",
"535 1419 CURVE SMOOTH",
"20 1419 LINE SMOOTH",
"-2 1419 OFFCURVE",
"-14 1383 OFFCURVE",
"-14 1368 CURVE SMOOTH",
"-14 1338 OFFCURVE",
"-6 1334 OFFCURVE",
"22 1331 CURVE SMOOTH",
"71 1326 OFFCURVE",
"140 1342 OFFCURVE",
"173 1254 CURVE SMOOTH",
"542 -18 LINE",
"665 -18 LINE",
"672 222 LINE",
"378 1287 LINE SMOOTH"
);
},
{
closed = 1;
nodes = (
"665 -18 LINE",
"1099 1399 LINE",
"991 1399 LINE",
"635 222 LINE"
);
},
{
closed = 1;
nodes = (
"956 1150 LINE",
"1345 -18 LINE",
"1468 -18 LINE",
"1473 222 LINE",
"1099 1399 LINE"
);
},
{
closed = 1;
nodes = (
"1468 -18 LINE",
"1841 1254 LINE SMOOTH",
"1868 1344 OFFCURVE",
"1943 1326 OFFCURVE",
"1992 1331 CURVE SMOOTH",
"2020 1334 OFFCURVE",
"2028 1338 OFFCURVE",
"2028 1368 CURVE SMOOTH",
"2028 1383 OFFCURVE",
"2016 1419 OFFCURVE",
"1994 1419 CURVE SMOOTH",
"1549 1419 LINE SMOOTH",
"1526 1419 OFFCURVE",
"1515 1383 OFFCURVE",
"1515 1368 CURVE SMOOTH",
"1515 1347 OFFCURVE",
"1522 1334 OFFCURVE",
"1548 1331 CURVE",
"1639 1326 OFFCURVE",
"1736 1335 OFFCURVE",
"1723 1287 CURVE SMOOTH",
"1438 222 LINE"
);
}
);
width = 1998;
}
);
leftKerningGroup = W;
rightKerningGroup = W;
unicode = 0057;
},
{
glyphname = X;
lastChange = "2018-05-23 18:31:45 +0000";
layers = (
{
anchors = (
{
name = btm;
position = "{719, -200}";
},
{
name = top;
position = "{719, 2000}";
}
);
layerId = "DD6F9F34-BC40-4E8F-B1D3-DF3B42A9710F";
paths = (
{
closed = 1;
nodes = (
"459 1329 OFFCURVE",
"543 1326 OFFCURVE",
"634 1331 CURVE",
"660 1334 OFFCURVE",
"667 1347 OFFCURVE",
"667 1368 CURVE SMOOTH",
"667 1383 OFFCURVE",
"656 1419 OFFCURVE",
"633 1419 CURVE SMOOTH",
"108 1419 LINE SMOOTH",
"86 1419 OFFCURVE",
"74 1383 OFFCURVE",
"74 1368 CURVE SMOOTH",
"74 1338 OFFCURVE",
"82 1334 OFFCURVE",
"110 1331 CURVE SMOOTH",
"159 1326 OFFCURVE",
"230 1333 OFFCURVE",
"281 1254 CURVE SMOOTH",
"665 647 LINE",
"788 647 LINE",
"785 807 LINE",
"486 1287 LINE SMOOTH"
);
},
{
closed = 1;
nodes = (
"1016 90 OFFCURVE",
"922 93 OFFCURVE",
"831 88 CURVE",
"805 85 OFFCURVE",
"798 72 OFFCURVE",
"798 51 CURVE SMOOTH",
"798 36 OFFCURVE",
"809 0 OFFCURVE",
"832 0 CURVE SMOOTH",
"1377 0 LINE SMOOTH",
"1399 0 OFFCURVE",
"1411 36 OFFCURVE",
"1411 51 CURVE SMOOTH",
"1411 81 OFFCURVE",
"1403 85 OFFCURVE",
"1375 88 CURVE SMOOTH",
"1326 93 OFFCURVE",
"1245 86 OFFCURVE",
"1194 165 CURVE SMOOTH",
"785 807 LINE",
"687 772 LINE",
"665 647 LINE",
"989 132 LINE SMOOTH"
);
},
{
closed = 1;
nodes = (
"727 647 LINE",
"1154 1254 LINE SMOOTH",
"1210 1330 OFFCURVE",
"1306 1326 OFFCURVE",
"1355 1331 CURVE SMOOTH",
"1383 1334 OFFCURVE",
"1391 1338 OFFCURVE",
"1391 1368 CURVE SMOOTH",
"1391 1383 OFFCURVE",
"1379 1419 OFFCURVE",
"1357 1419 CURVE SMOOTH",
"902 1419 LINE SMOOTH",
"879 1419 OFFCURVE",
"868 1383 OFFCURVE",
"868 1368 CURVE SMOOTH",
"868 1347 OFFCURVE",
"875 1334 OFFCURVE",
"901 1331 CURVE",
"992 1326 OFFCURVE",
"1047 1298 OFFCURVE",
"1019 1257 CURVE SMOOTH",
"717 787 LINE"
);
},
{
closed = 1;
nodes = (
"698 772 LINE",
"291 165 LINE SMOOTH",
"237 88 OFFCURVE",
"139 93 OFFCURVE",
"90 88 CURVE SMOOTH",
"62 85 OFFCURVE",
"54 81 OFFCURVE",
"54 51 CURVE SMOOTH",
"54 36 OFFCURVE",
"66 0 OFFCURVE",
"88 0 CURVE SMOOTH",
"523 0 LINE SMOOTH",
"546 0 OFFCURVE",
"557 36 OFFCURVE",
"557 51 CURVE SMOOTH",
"557 72 OFFCURVE",
"550 85 OFFCURVE",
"524 88 CURVE",
"433 93 OFFCURVE",
"399 121 OFFCURVE",
"426 162 CURVE SMOOTH",
"708 632 LINE"
);
}
);
width = 1455;
}
);
leftKerningGroup = X;
rightKerningGroup = X;
unicode = 0058;
},
{
glyphname = Y;
lastChange = "2018-05-23 18:31:45 +0000";
layers = (
{
anchors = (
{
name = btm;
position = "{639, -200}";
},
{
name = top;
position = "{639, 2000}";
}
);
layerId = "DD6F9F34-BC40-4E8F-B1D3-DF3B42A9710F";
paths = (
{
closed = 1;
nodes = (
"346 1332 OFFCURVE",
"425 1336 OFFCURVE",
"516 1341 CURVE",
"542 1344 OFFCURVE",
"549 1357 OFFCURVE",
"549 1378 CURVE SMOOTH",
"549 1393 OFFCURVE",
"538 1419 OFFCURVE",
"515 1419 CURVE SMOOTH",
"0 1419 LINE SMOOTH",
"-22 1419 OFFCURVE",
"-34 1393 OFFCURVE",
"-34 1378 CURVE SMOOTH",
"-34 1348 OFFCURVE",
"-26 1344 OFFCURVE",
"2 1341 CURVE SMOOTH",
"51 1336 OFFCURVE",
"108 1337 OFFCURVE",
"153 1254 CURVE SMOOTH",
"622 382 LINE",
"645 382 LINE",
"692 632 LINE",
"368 1287 LINE SMOOTH"
);
},
{
closed = 1;
nodes = (
"645 382 LINE",
"1126 1254 LINE SMOOTH",
"1171 1336 OFFCURVE",
"1228 1336 OFFCURVE",
"1277 1341 CURVE SMOOTH",
"1305 1344 OFFCURVE",
"1313 1348 OFFCURVE",
"1313 1378 CURVE SMOOTH",
"1313 1393 OFFCURVE",
"1301 1419 OFFCURVE",
"1279 1419 CURVE SMOOTH",
"864 1419 LINE SMOOTH",
"841 1419 OFFCURVE",
"830 1393 OFFCURVE",
"830 1378 CURVE SMOOTH",
"830 1357 OFFCURVE",
"837 1344 OFFCURVE",
"863 1341 CURVE",
"954 1336 OFFCURVE",
"1033 1331 OFFCURVE",
"1011 1287 CURVE SMOOTH",
"685 632 LINE"
);
},
{
closed = 1;
nodes = (
"540 152 LINE SMOOTH",
"540 81 OFFCURVE",
"442 93 OFFCURVE",
"375 88 CURVE SMOOTH",
"350 85 OFFCURVE",
"332 72 OFFCURVE",
"332 51 CURVE SMOOTH",
"332 36 OFFCURVE",
"343 0 OFFCURVE",
"366 0 CURVE SMOOTH",
"931 0 LINE SMOOTH",
"953 0 OFFCURVE",
"965 36 OFFCURVE",
"965 51 CURVE SMOOTH",
"965 81 OFFCURVE",
"947 85 OFFCURVE",
"919 88 CURVE SMOOTH",
"852 93 OFFCURVE",
"747 79 OFFCURVE",
"747 165 CURVE SMOOTH",
"747 611 LINE",
"540 611 LINE"
);
}
);
width = 1260;
}
);
leftKerningGroup = Y;
rightKerningGroup = Y;
unicode = 0059;
},
{
glyphname = Z;
lastChange = "2018-05-23 18:31:45 +0000";
layers = (
{
anchors = (
{
name = btm;
position = "{618, -200}";
},
{
name = top;
position = "{618, 2000}";
}
);
layerId = "DD6F9F34-BC40-4E8F-B1D3-DF3B42A9710F";
paths = (
{
closed = 1;
nodes = (
"951 1336 LINE",
"389 1336 LINE SMOOTH",
"301 1336 OFFCURVE",
"187 1068 OFFCURVE",
"182 1019 CURVE SMOOTH",
"179 993 OFFCURVE",
"166 986 OFFCURVE",
"145 986 CURVE SMOOTH",
"130 986 OFFCURVE",
"114 997 OFFCURVE",
"114 1020 CURVE SMOOTH",
"143 1378 LINE",
"155 1405 OFFCURVE",
"170 1418 OFFCURVE",
"190 1419 CURVE",
"1122 1419 LINE SMOOTH",
"1138 1419 OFFCURVE",
"1146 1414 OFFCURVE",
"1146 1395 CURVE SMOOTH",
"1146 1368 LINE SMOOTH",
"1146 1357 OFFCURVE",
"1142 1350 OFFCURVE",
"1136 1340 CURVE SMOOTH",
"294 26 LINE",
"235 83 LINE",
"840 83 LINE SMOOTH",
"928 83 OFFCURVE",
"1093 381 OFFCURVE",
"1098 430 CURVE SMOOTH",
"1101 456 OFFCURVE",
"1114 463 OFFCURVE",
"1135 463 CURVE SMOOTH",
"1150 463 OFFCURVE",
"1176 452 OFFCURVE",
"1176 429 CURVE SMOOTH",
"1126 41 LINE",
"1114 14 OFFCURVE",
"1099 1 OFFCURVE",
"1079 0 CURVE",
"84 0 LINE SMOOTH",
"68 0 OFFCURVE",
"60 5 OFFCURVE",
"60 24 CURVE SMOOTH",
"60 40 LINE SMOOTH",
"60 53 OFFCURVE",
"66 69 OFFCURVE",
"102 123 CURVE SMOOTH",
"895 1367 LINE"
);
}
);
width = 1232;
}
);
leftKerningGroup = Z;
rightKerningGroup = Z;
unicode = 005A;
},
{
glyphname = a;
lastChange = "2018-05-23 18:31:45 +0000";
layers = (
{
anchors = (
{
name = btm;
position = "{550, -200}";
},
{
name = top;
position = "{510, 2000}";
}
);
layerId = "DD6F9F34-BC40-4E8F-B1D3-DF3B42A9710F";
paths = (
{
closed = 1;
nodes = (
"102 48 OFFCURVE",
"259 -24 OFFCURVE",
"371 -24 CURVE SMOOTH",
"539 -24 OFFCURVE",
"656 40 OFFCURVE",
"741 170 CURVE SMOOTH",
"758 198 OFFCURVE",
"755 230 OFFCURVE",
"755 243 CURVE SMOOTH",
"755 250 OFFCURVE",
"751 253 OFFCURVE",
"745 253 CURVE SMOOTH",
"733 253 OFFCURVE",
"707 219 OFFCURVE",
"707 219 CURVE",
"707 219 OFFCURVE",
"648 90 OFFCURVE",
"443 90 CURVE SMOOTH",
"355 90 OFFCURVE",
"308 175 OFFCURVE",
"308 252 CURVE SMOOTH",
"308 464 OFFCURVE",
"504 510 OFFCURVE",
"684 529 CURVE",
"706 581 LINE",
"683 599 LINE",
"419 571 OFFCURVE",
"92 509 OFFCURVE",
"98 235 CURVE SMOOTH"
);
},
{
closed = 1;
nodes = (
"864 895 OFFCURVE",
"762 1014 OFFCURVE",
"520 1014 CURVE SMOOTH",
"434 1014 OFFCURVE",
"292 997 OFFCURVE",
"196 909 CURVE SMOOTH",
"77 799 OFFCURVE",
"148 665 OFFCURVE",
"203 665 CURVE SMOOTH",
"243 665 OFFCURVE",
"270 678 OFFCURVE",
"284 702 CURVE SMOOTH",
"309 744 OFFCURVE",
"359 877 OFFCURVE",
"378 907 CURVE",
"378 907 OFFCURVE",
"430 928 OFFCURVE",
"487 924 CURVE SMOOTH",
"617 914 OFFCURVE",
"677 860 OFFCURVE",
"677 753 CURVE SMOOTH",
"677 687 OFFCURVE",
"676 377 OFFCURVE",
"676 162 CURVE",
"678 149 OFFCURVE",
"695 125 OFFCURVE",
"695 109 CURVE SMOOTH",
"694 87 OFFCURVE",
"684 -25 OFFCURVE",
"797 -25 CURVE SMOOTH",
"905 -25 OFFCURVE",
"981 22 OFFCURVE",
"994 37 CURVE SMOOTH",
"1010 50 OFFCURVE",
"991 105 OFFCURVE",
"960 96 CURVE SMOOTH",
"936 89 OFFCURVE",
"921 88 OFFCURVE",
"902 88 CURVE SMOOTH",
"880 88 OFFCURVE",
"864 140 OFFCURVE",
"864 210 CURVE SMOOTH",
"864 736 LINE SMOOTH"
);
}
);
width = 1032;
}
);
leftKerningGroup = a;
rightKerningGroup = n;
unicode = 0061;
},
{
glyphname = aogonek;
lastChange = "2018-05-23 18:31:45 +0000";
layers = (
{
components = (
{
name = a;
}
);
layerId = "DD6F9F34-BC40-4E8F-B1D3-DF3B42A9710F";
paths = (
{
closed = 1;
nodes = (
"546 -105 OFFCURVE",
"664 0 OFFCURVE",
"783 16 CURVE",
"783 16 OFFCURVE",
"851 -21 OFFCURVE",
"851 -21 CURVE",
"737 -33 OFFCURVE",
"694 -116 OFFCURVE",
"694 -198 CURVE SMOOTH",
"694 -381 OFFCURVE",
"893 -346 OFFCURVE",
"941 -349 CURVE SMOOTH",
"958 -350 OFFCURVE",
"962 -367 OFFCURVE",
"957 -393 CURVE SMOOTH",
"954 -408 OFFCURVE",
"942 -418 OFFCURVE",
"927 -422 CURVE SMOOTH",
"870 -438 OFFCURVE",
"817 -448 OFFCURVE",
"766 -448 CURVE SMOOTH",
"639 -448 OFFCURVE",
"546 -345 OFFCURVE",
"546 -238 CURVE SMOOTH"
);
}
);
width = 1032;
}
);
leftKerningGroup = a;
rightKerningGroup = n;
unicode = 0105;
},
{
glyphname = ae;
lastChange = "2018-05-23 18:31:45 +0000";
layers = (
{
anchors = (
{
name = btm;
position = "{772, -200}";
},
{
name = top;
position = "{772, 2000}";
}
);
layerId = "DD6F9F34-BC40-4E8F-B1D3-DF3B42A9710F";
paths = (
{
closed = 1;
nodes = (
"1220 -29 OFFCURVE",
"1327 54 OFFCURVE",
"1384 173 CURVE SMOOTH",
"1388 181 OFFCURVE",
"1397 194 OFFCURVE",
"1379 201 CURVE",
"1329 224 LINE",
"1316 227 OFFCURVE",
"1314 216 OFFCURVE",
"1310 208 CURVE SMOOTH",
"1264 123 OFFCURVE",
"1177 75 OFFCURVE",
"1076 75 CURVE SMOOTH",
"953 75 OFFCURVE",
"818 188 OFFCURVE",
"818 510 CURVE SMOOTH",
"818 865 OFFCURVE",
"906 918 OFFCURVE",
"1047 918 CURVE SMOOTH",
"1149 918 OFFCURVE",
"1218 827 OFFCURVE",
"1218 595 CURVE SMOOTH",
"1218 595 OFFCURVE",
"757 588 OFFCURVE",
"757 588 CURVE",
"757 503 LINE",
"1440 503 LINE",
"1440 798 OFFCURVE",
"1363 1014 OFFCURVE",
"1048 1014 CURVE SMOOTH",
"903 1014 OFFCURVE",
"766 941 OFFCURVE",
"686 803 CURVE SMOOTH",
"640 723 OFFCURVE",
"682 622 OFFCURVE",
"682 500 CURVE SMOOTH",
"682 381 OFFCURVE",
"630 280 OFFCURVE",
"667 199 CURVE SMOOTH",
"734 52 OFFCURVE",
"862 -29 OFFCURVE",
"1050 -29 CURVE SMOOTH"
);
},
{
closed = 1;
nodes = (
"434 1013 OFFCURVE",
"295 997 OFFCURVE",
"199 909 CURVE SMOOTH",
"80 799 OFFCURVE",
"142 694 OFFCURVE",
"197 694 CURVE SMOOTH",
"254 694 OFFCURVE",
"268 701 OFFCURVE",
"291 744 CURVE",
"315 786 OFFCURVE",
"354 863 OFFCURVE",
"373 893 CURVE",
"373 893 OFFCURVE",
"430 923 OFFCURVE",
"487 919 CURVE",
"549 919 OFFCURVE",
"601 890 OFFCURVE",
"623 840 CURVE SMOOTH",
"633 817 OFFCURVE",
"634 783 OFFCURVE",
"634 758 CURVE SMOOTH",
"634 692 OFFCURVE",
"633 327 OFFCURVE",
"633 112 CURVE",
"636 99 OFFCURVE",
"747 241 OFFCURVE",
"746 225 CURVE",
"818 210 LINE",
"818 741 LINE SMOOTH",
"818 894 OFFCURVE",
"707 1013 OFFCURVE",
"520 1013 CURVE SMOOTH"
);
},
{
closed = 1;
nodes = (
"102 48 OFFCURVE",
"259 -24 OFFCURVE",
"371 -24 CURVE SMOOTH",
"539 -24 OFFCURVE",
"656 40 OFFCURVE",
"741 170 CURVE",
"758 198 OFFCURVE",
"755 230 OFFCURVE",
"755 243 CURVE SMOOTH",
"755 250 OFFCURVE",
"751 253 OFFCURVE",
"745 253 CURVE SMOOTH",
"733 253 OFFCURVE",
"707 219 OFFCURVE",
"707 219 CURVE",
"707 219 OFFCURVE",
"648 90 OFFCURVE",
"443 90 CURVE SMOOTH",
"355 90 OFFCURVE",
"308 175 OFFCURVE",
"308 252 CURVE SMOOTH",
"308 464 OFFCURVE",
"504 510 OFFCURVE",
"684 529 CURVE",
"706 587 LINE",
"683 605 LINE",
"419 577 OFFCURVE",
"92 509 OFFCURVE",
"98 235 CURVE SMOOTH"
);
}
);
width = 1509;
}
);
leftKerningGroup = a;
rightKerningGroup = e;
unicode = 00E6;
},
{
glyphname = b;
lastChange = "2018-05-23 18:31:45 +0000";
layers = (
{
anchors = (
{
name = btm;
position = "{536, -200}";
},
{
name = top;
position = "{680, 2000}";
}
);
layerId = "DD6F9F34-BC40-4E8F-B1D3-DF3B42A9710F";
paths = (
{
closed = 1;
nodes = (
"174 -17 OFFCURVE",
"181 -32 OFFCURVE",
"209 -32 CURVE SMOOTH",
"258 -32 OFFCURVE",
"360 89 OFFCURVE",
"360 156 CURVE SMOOTH",
"360 853 LINE",
"350 873 LINE",
"360 1104 LINE",
"360 1518 LINE",
"174 1339 LINE",
"174 12 LINE SMOOTH"
);
},
{
closed = 1;
nodes = (
"273 1557 OFFCURVE",
"148 1556 OFFCURVE",
"15 1548 CURVE SMOOTH",
"-1 1547 OFFCURVE",
"-9 1520 OFFCURVE",
"-9 1504 CURVE SMOOTH",
"-9 1479 OFFCURVE",
"1 1470 OFFCURVE",
"15 1464 CURVE",
"69 1450 OFFCURVE",
"174 1463 OFFCURVE",
"174 1339 CURVE SMOOTH",
"174 1338 OFFCURVE",
"174 1337 OFFCURVE",
"175 1337 CURVE SMOOTH",
"196 1337 OFFCURVE",
"360 1490 OFFCURVE",
"360 1518 CURVE",
"357 1550 OFFCURVE",
"341 1558 OFFCURVE",
"330 1558 CURVE SMOOTH"
);
},
{
closed = 1;
nodes = (
"372 -2 OFFCURVE",
"492 -30 OFFCURVE",
"622 -30 CURVE SMOOTH",
"931 -30 OFFCURVE",
"1072 223 OFFCURVE",
"1072 492 CURVE SMOOTH",
"1072 762 OFFCURVE",
"952 1013 OFFCURVE",
"644 1013 CURVE SMOOTH",
"534 1013 OFFCURVE",
"394 947 OFFCURVE",
"332 850 CURVE",
"350 793 LINE",
"386 858 OFFCURVE",
"497 918 OFFCURVE",
"581 918 CURVE SMOOTH",
"796 918 OFFCURVE",
"865 732 OFFCURVE",
"865 492 CURVE SMOOTH",
"865 252 OFFCURVE",
"800 65 OFFCURVE",
"585 65 CURVE SMOOTH",
"458 65 OFFCURVE",
"376 110 OFFCURVE",
"346 203 CURVE",
"320 89 LINE"
);
}
);
width = 1147;
}
);
leftKerningGroup = h;
rightKerningGroup = o;
unicode = 0062;
userData = {
com.typemytype.robofont.mark = (
0.967,
0.6,
1,
1
);
};
},
{
glyphname = c;
lastChange = "2018-05-23 18:31:45 +0000";
layers = (
{
anchors = (
{
name = btm;
position = "{523, -200}";
},
{
name = top;
position = "{481, 2000}";
}
);
layerId = "DD6F9F34-BC40-4E8F-B1D3-DF3B42A9710F";
paths = (
{
closed = 1;
nodes = (
"611 918 OFFCURVE",
"638 897 OFFCURVE",
"638 897 CURVE",
"722 710 LINE SMOOTH",
"742 666 OFFCURVE",
"765 662 OFFCURVE",
"804 662 CURVE SMOOTH",
"859 662 OFFCURVE",
"916 748 OFFCURVE",
"832 887 CURVE SMOOTH",
"770 989 OFFCURVE",
"653 1014 OFFCURVE",
"539 1014 CURVE SMOOTH",
"273 1014 OFFCURVE",
"67 834 OFFCURVE",
"67 500 CURVE SMOOTH",
"67 176 OFFCURVE",
"218 -29 OFFCURVE",
"510 -29 CURVE SMOOTH",
"680 -29 OFFCURVE",
"787 54 OFFCURVE",
"844 173 CURVE SMOOTH",
"848 181 OFFCURVE",
"857 194 OFFCURVE",
"839 201 CURVE SMOOTH",
"789 224 LINE SMOOTH",
"776 227 OFFCURVE",
"774 216 OFFCURVE",
"770 208 CURVE SMOOTH",
"724 123 OFFCURVE",
"637 75 OFFCURVE",
"536 75 CURVE SMOOTH",
"431 75 OFFCURVE",
"282 178 OFFCURVE",
"282 490 CURVE SMOOTH",
"282 815 OFFCURVE",
"392 918 OFFCURVE",
"554 918 CURVE SMOOTH"
);
}
);
width = 930;
}
);
leftKerningGroup = o;
rightKerningGroup = c;
unicode = 0063;
},
{
glyphname = d;
lastChange = "2018-05-23 18:31:45 +0000";
layers = (
{
anchors = (
{
name = btm;
position = "{603, -200}";
},
{
name = top;
position = "{393, 2000}";
}
);
layerId = "DD6F9F34-BC40-4E8F-B1D3-DF3B42A9710F";
paths = (
{
closed = 1;
nodes = (
"880 102 LINE",
"978 175 LINE",
"978 1518 LINE",
"792 1339 LINE",
"792 1104 LINE",
"802 931 LINE",
"792 893 LINE",
"792 132 LINE"
);
},
{
closed = 1;
nodes = (
"891 1557 OFFCURVE",
"736 1556 OFFCURVE",
"603 1548 CURVE SMOOTH",
"587 1547 OFFCURVE",
"579 1520 OFFCURVE",
"579 1504 CURVE SMOOTH",
"579 1479 OFFCURVE",
"589 1470 OFFCURVE",
"603 1464 CURVE",
"657 1450 OFFCURVE",
"792 1463 OFFCURVE",
"792 1339 CURVE SMOOTH",
"792 1338 OFFCURVE",
"792 1337 OFFCURVE",
"793 1337 CURVE SMOOTH",
"814 1337 OFFCURVE",
"978 1490 OFFCURVE",
"978 1518 CURVE",
"975 1550 OFFCURVE",
"959 1558 OFFCURVE",
"948 1558 CURVE SMOOTH"
);
},
{
closed = 1;
nodes = (
"1114 0 OFFCURVE",
"1126 26 OFFCURVE",
"1126 41 CURVE SMOOTH",
"1126 71 OFFCURVE",
"1118 75 OFFCURVE",
"1090 78 CURVE SMOOTH",
"1041 83 OFFCURVE",
"978 89 OFFCURVE",
"978 175 CURVE",
"792 132 LINE",
"792 46 OFFCURVE",
"780 0 OFFCURVE",
"868 0 CURVE SMOOTH",
"1092 0 LINE SMOOTH"
);
},
{
closed = 1;
nodes = (
"780 986 OFFCURVE",
"660 1014 OFFCURVE",
"530 1014 CURVE SMOOTH",
"214 1014 OFFCURVE",
"80 761 OFFCURVE",
"80 492 CURVE SMOOTH",
"80 222 OFFCURVE",
"193 -29 OFFCURVE",
"508 -29 CURVE SMOOTH",
"618 -29 OFFCURVE",
"758 37 OFFCURVE",
"820 134 CURVE",
"802 191 LINE",
"766 126 OFFCURVE",
"655 66 OFFCURVE",
"571 66 CURVE SMOOTH",
"348 66 OFFCURVE",
"287 253 OFFCURVE",
"287 492 CURVE SMOOTH",
"287 736 OFFCURVE",
"344 919 OFFCURVE",
"567 919 CURVE SMOOTH",
"694 919 OFFCURVE",
"776 874 OFFCURVE",
"806 781 CURVE",
"832 895 LINE"
);
}
);
width = 1176;
}
);
leftKerningGroup = o;
rightKerningGroup = l;
unicode = 0064;
userData = {
com.typemytype.robofont.mark = (
0.967,
0.6,
1,
1
);
};
},
{
glyphname = eth;
lastChange = "2018-05-23 18:31:45 +0000";
layers = (
{
layerId = "DD6F9F34-BC40-4E8F-B1D3-DF3B42A9710F";
paths = (
{
closed = 1;
nodes = (
"772 914 OFFCURVE",
"668 994 OFFCURVE",
"507 994 CURVE SMOOTH",
"260 994 OFFCURVE",
"80 781 OFFCURVE",
"80 462 CURVE SMOOTH",
"80 191 OFFCURVE",
"257 -29 OFFCURVE",
"557 -29 CURVE SMOOTH",
"856 -29 OFFCURVE",
"1006 260 OFFCURVE",
"1006 592 CURVE SMOOTH",
"1006 945 OFFCURVE",
"848 1448 OFFCURVE",
"198 1579 CURVE",
"187 1487 LINE",
"776 1359 OFFCURVE",
"794 807 OFFCURVE",
"794 572 CURVE SMOOTH",
"794 262 OFFCURVE",
"756 66 OFFCURVE",
"554 66 CURVE SMOOTH",
"353 66 OFFCURVE",
"297 218 OFFCURVE",
"297 462 CURVE SMOOTH",
"297 731 OFFCURVE",
"366 877 OFFCURVE",
"523 877 CURVE SMOOTH",
"658 877 OFFCURVE",
"749 839 OFFCURVE",
"802 729 CURVE",
"830 806 LINE"
);
},
{
closed = 1;
nodes = (
"274 1255 LINE",
"362 1195 LINE",
"640 1619 LINE",
"554 1685 LINE"
);
}
);
width = 1089;
}
);
leftKerningGroup = eth;
rightKerningGroup = eth;
unicode = 00F0;
},
{
glyphname = dcaron;
lastChange = "2018-05-23 18:31:45 +0000";
layers = (
{
components = (
{
name = d;
}
);
layerId = "DD6F9F34-BC40-4E8F-B1D3-DF3B42A9710F";
paths = (
{
closed = 1;
nodes = (
"1204 1444 OFFCURVE",
"1113 1449 OFFCURVE",
"1113 1570 CURVE SMOOTH",
"1113 1648 OFFCURVE",
"1161 1696 OFFCURVE",
"1244 1696 CURVE SMOOTH",
"1302 1696 OFFCURVE",
"1362 1657 OFFCURVE",
"1362 1511 CURVE SMOOTH",
"1362 1329 OFFCURVE",
"1255 1138 OFFCURVE",
"1201 1091 CURVE SMOOTH",
"1168 1068 OFFCURVE",
"1092 1098 OFFCURVE",
"1153 1162 CURVE SMOOTH",
"1215 1262 OFFCURVE",
"1214 1388 OFFCURVE",
"1207 1432 CURVE SMOOTH"
);
}
);
width = 1362;
}
);
leftKerningGroup = o;
rightKerningGroup = l;
unicode = 010F;
},
{
glyphname = dcroat;
lastChange = "2018-05-23 18:31:45 +0000";
layers = (
{
layerId = "DD6F9F34-BC40-4E8F-B1D3-DF3B42A9710F";
paths = (
{
closed = 1;
nodes = (
"880 102 LINE",
"978 165 LINE",
"978 1518 LINE",
"792 1349 LINE",
"792 132 LINE"
);
},
{
closed = 1;
nodes = (
"891 1557 OFFCURVE",
"746 1556 OFFCURVE",
"613 1548 CURVE SMOOTH",
"597 1547 OFFCURVE",
"589 1530 OFFCURVE",
"589 1514 CURVE SMOOTH",
"589 1489 OFFCURVE",
"599 1480 OFFCURVE",
"613 1474 CURVE",
"667 1460 OFFCURVE",
"792 1473 OFFCURVE",
"792 1349 CURVE SMOOTH",
"792 1348 OFFCURVE",
"792 1347 OFFCURVE",
"793 1347 CURVE SMOOTH",
"814 1347 OFFCURVE",
"978 1490 OFFCURVE",
"978 1518 CURVE",
"975 1550 OFFCURVE",
"959 1558 OFFCURVE",
"948 1558 CURVE SMOOTH"
);
},
{
closed = 1;
nodes = (
"1114 0 OFFCURVE",
"1126 16 OFFCURVE",
"1126 31 CURVE SMOOTH",
"1126 61 OFFCURVE",
"1118 65 OFFCURVE",
"1090 68 CURVE SMOOTH",
"1041 73 OFFCURVE",
"978 79 OFFCURVE",
"978 165 CURVE",
"792 132 LINE",
"792 46 OFFCURVE",
"780 0 OFFCURVE",
"868 0 CURVE SMOOTH",
"1092 0 LINE SMOOTH"
);
},
{
closed = 1;
nodes = (
"791 965 OFFCURVE",
"691 1013 OFFCURVE",
"551 1013 CURVE SMOOTH",
"231 1013 OFFCURVE",
"80 774 OFFCURVE",
"80 486 CURVE SMOOTH",
"80 198 OFFCURVE",
"199 -29 OFFCURVE",
"519 -29 CURVE SMOOTH",
"642 -29 OFFCURVE",
"769 37 OFFCURVE",
"827 134 CURVE",
"809 201 LINE",
"772 136 OFFCURVE",
"683 66 OFFCURVE",
"568 66 CURVE SMOOTH",
"353 66 OFFCURVE",
"297 230 OFFCURVE",
"297 492 CURVE SMOOTH",
"297 754 OFFCURVE",
"349 919 OFFCURVE",
"564 919 CURVE SMOOTH",
"696 919 OFFCURVE",
"782 873 OFFCURVE",
"813 804 CURVE",
"839 898 LINE"
);
},
{
closed = 1;
nodes = (
"1148 1190 LINE",
"1148 1276 LINE",
"494 1276 LINE",
"494 1190 LINE"
);
}
);
width = 1176;
}
);
leftKerningGroup = o;
rightKerningGroup = l;
unicode = 0111;
},
{
glyphname = e;
lastChange = "2018-05-23 18:31:45 +0000";
layers = (
{
anchors = (
{
name = btm;
position = "{497, -200}";
},
{
name = top;
position = "{526, 2000}";
}
);
layerId = "DD6F9F34-BC40-4E8F-B1D3-DF3B42A9710F";
paths = (
{
closed = 1;
nodes = (
"224 -29 OFFCURVE",
"67 166 OFFCURVE",
"67 500 CURVE SMOOTH",
"67 834 OFFCURVE",
"279 1014 OFFCURVE",
"518 1014 CURVE SMOOTH",
"833 1014 OFFCURVE",
"920 798 OFFCURVE",
"920 503 CURVE",
"212 503 LINE",
"212 588 LINE",
"212 588 OFFCURVE",
"698 595 OFFCURVE",
"698 595 CURVE",
"698 827 OFFCURVE",
"619 918 OFFCURVE",
"517 918 CURVE SMOOTH",
"362 918 OFFCURVE",
"282 865 OFFCURVE",
"282 510 CURVE SMOOTH",
"282 188 OFFCURVE",
"423 75 OFFCURVE",
"556 75 CURVE SMOOTH",
"657 75 OFFCURVE",
"744 123 OFFCURVE",
"790 208 CURVE SMOOTH",
"794 216 OFFCURVE",
"796 227 OFFCURVE",
"809 224 CURVE",
"859 201 LINE",
"877 194 OFFCURVE",
"868 181 OFFCURVE",
"864 173 CURVE SMOOTH",
"807 54 OFFCURVE",
"700 -29 OFFCURVE",
"530 -29 CURVE SMOOTH"
);
}
);
width = 990;
}
);
leftKerningGroup = o;
rightKerningGroup = e;
unicode = 0065;
},
{
glyphname = eogonek;
lastChange = "2018-05-23 18:31:45 +0000";
layers = (
{
components = (
{
name = e;
}
);
layerId = "DD6F9F34-BC40-4E8F-B1D3-DF3B42A9710F";
paths = (
{
closed = 1;
nodes = (
"469 -105 OFFCURVE",
"604 -9 OFFCURVE",
"674 14 CURVE",
"778 29 LINE",
"695 -11 OFFCURVE",
"617 -116 OFFCURVE",
"617 -198 CURVE SMOOTH",
"617 -381 OFFCURVE",
"816 -346 OFFCURVE",
"864 -349 CURVE SMOOTH",
"881 -350 OFFCURVE",
"885 -367 OFFCURVE",
"880 -393 CURVE SMOOTH",
"877 -408 OFFCURVE",
"865 -418 OFFCURVE",
"850 -422 CURVE SMOOTH",
"793 -438 OFFCURVE",
"740 -448 OFFCURVE",
"689 -448 CURVE SMOOTH",
"562 -448 OFFCURVE",
"469 -345 OFFCURVE",
"469 -238 CURVE SMOOTH"
);
}
);
width = 990;
}
);
leftKerningGroup = o;
rightKerningGroup = e;
unicode = 0119;
},
{
glyphname = f;
lastChange = "2018-05-23 18:31:45 +0000";
layers = (
{
anchors = (
{
name = btm;
position = "{429, -200}";
},
{
name = top;
position = "{263, 2271}";
}
);
layerId = "DD6F9F34-BC40-4E8F-B1D3-DF3B42A9710F";
paths = (
{
closed = 1;
nodes = (
"307 112 LINE",
"405 175 LINE",
"405 1107 LINE",
"219 1075 LINE",
"219 142 LINE"
);
},
{
closed = 1;
nodes = (
"592 0 OFFCURVE",
"603 26 OFFCURVE",
"603 41 CURVE SMOOTH",
"603 71 OFFCURVE",
"595 75 OFFCURVE",
"567 78 CURVE",
"502 83 OFFCURVE",
"405 89 OFFCURVE",
"405 175 CURVE",
"219 142 LINE",
"219 98 OFFCURVE",
"152 83 OFFCURVE",
"103 78 CURVE SMOOTH",
"77 75 OFFCURVE",
"70 62 OFFCURVE",
"70 41 CURVE SMOOTH",
"70 26 OFFCURVE",
"81 0 OFFCURVE",
"104 0 CURVE SMOOTH",
"569 0 LINE SMOOTH"
);
},
{
closed = 1;
nodes = (
"405 1467 OFFCURVE",
"503 1469 OFFCURVE",
"587 1480 CURVE SMOOTH",
"613 1483 OFFCURVE",
"665 1498 OFFCURVE",
"665 1501 CURVE SMOOTH",
"664 1507 OFFCURVE",
"638 1508 OFFCURVE",
"612 1505 CURVE SMOOTH",
"583 1502 OFFCURVE",
"544 1491 OFFCURVE",
"552 1479 CURVE",
"663 1312 LINE",
"665 1310 OFFCURVE",
"669 1309 OFFCURVE",
"674 1309 CURVE SMOOTH",
"709 1308 OFFCURVE",
"801 1362 OFFCURVE",
"792 1441 CURVE SMOOTH",
"784 1509 OFFCURVE",
"718 1573 OFFCURVE",
"590 1573 CURVE SMOOTH",
"348 1573 OFFCURVE",
"219 1330 OFFCURVE",
"219 1075 CURVE",
"307 1044 LINE",
"405 1107 LINE"
);
},
{
closed = 1;
nodes = (
"629 913 OFFCURVE",
"639 935 OFFCURVE",
"639 960 CURVE SMOOTH",
"639 976 OFFCURVE",
"631 993 OFFCURVE",
"615 994 CURVE",
"218 994 LINE",
"96 984 LINE",
"82 978 OFFCURVE",
"72 966 OFFCURVE",
"72 941 CURVE SMOOTH",
"72 925 OFFCURVE",
"80 908 OFFCURVE",
"96 907 CURVE",
"615 907 LINE"
);
}
);
width = 666;
}
);
leftKerningGroup = f;
rightKerningGroup = f;
unicode = 0066;
},
{
glyphname = g;
lastChange = "2018-05-23 18:31:45 +0000";
layers = (
{
anchors = (
{
name = btm;
position = "{570, -200}";
},
{
name = top;
position = "{509, 2000}";
}
);
layerId = "DD6F9F34-BC40-4E8F-B1D3-DF3B42A9710F";
paths = (
{
closed = 1;
nodes = (
"218 456 OFFCURVE",
"80 382 OFFCURVE",
"80 243 CURVE SMOOTH",
"80 109 OFFCURVE",
"172 7 OFFCURVE",
"344 1 CURVE SMOOTH",
"417 1 OFFCURVE",
"505 1 OFFCURVE",
"611 1 CURVE SMOOTH",
"723 1 OFFCURVE",
"818 -33 OFFCURVE",
"818 -139 CURVE SMOOTH",
"818 -313 OFFCURVE",
"593 -355 OFFCURVE",
"487 -355 CURVE SMOOTH",
"343 -355 OFFCURVE",
"223 -288 OFFCURVE",
"223 -126 CURVE SMOOTH",
"223 11 OFFCURVE",
"267 44 OFFCURVE",
"245 54 CURVE SMOOTH",
"234 60 OFFCURVE",
"225 75 OFFCURVE",
"202 63 CURVE SMOOTH",
"142 34 OFFCURVE",
"41 -8 OFFCURVE",
"41 -145 CURVE SMOOTH",
"41 -316 OFFCURVE",
"201 -451 OFFCURVE",
"467 -451 CURVE SMOOTH",
"765 -451 OFFCURVE",
"948 -275 OFFCURVE",
"949 -108 CURVE SMOOTH",
"951 123 OFFCURVE",
"832 194 OFFCURVE",
"620 194 CURVE SMOOTH",
"359 194 LINE SMOOTH",
"279 194 OFFCURVE",
"221 230 OFFCURVE",
"221 300 CURVE SMOOTH",
"221 360 OFFCURVE",
"289 433 OFFCURVE",
"359 433 CURVE",
"271 468 LINE"
);
},
{
closed = 1;
nodes = (
"112 517 OFFCURVE",
"243 369 OFFCURVE",
"469 369 CURVE SMOOTH",
"695 369 OFFCURVE",
"831 517 OFFCURVE",
"831 694 CURVE SMOOTH",
"831 872 OFFCURVE",
"701 1014 OFFCURVE",
"475 1014 CURVE SMOOTH",
"249 1014 OFFCURVE",
"112 872 OFFCURVE",
"112 694 CURVE SMOOTH"
);
},
{
closed = 1;
nodes = (
"295 820 OFFCURVE",
"332 918 OFFCURVE",
"469 918 CURVE SMOOTH",
"605 918 OFFCURVE",
"646 820 OFFCURVE",
"646 694 CURVE SMOOTH",
"646 569 OFFCURVE",
"609 464 OFFCURVE",
"473 464 CURVE SMOOTH",
"334 464 OFFCURVE",
"295 569 OFFCURVE",
"295 694 CURVE SMOOTH"
);
},
{
closed = 1;
nodes = (
"694 780 OFFCURVE",
"739 817 OFFCURVE",
"739 817 CURVE",
"751 847 OFFCURVE",
"753 856 OFFCURVE",
"798 902 CURVE SMOOTH",
"827 932 OFFCURVE",
"852 935 OFFCURVE",
"852 935 CURVE",
"863 911 OFFCURVE",
"892 860 OFFCURVE",
"909 826 CURVE SMOOTH",
"924 792 OFFCURVE",
"923 776 OFFCURVE",
"957 776 CURVE SMOOTH",
"1006 776 OFFCURVE",
"1059 840 OFFCURVE",
"1019 942 CURVE SMOOTH",
"1003 984 OFFCURVE",
"971 1022 OFFCURVE",
"897 1022 CURVE SMOOTH",
"776 1022 OFFCURVE",
"694 904 OFFCURVE",
"694 780 CURVE"
);
}
);
width = 1043;
}
);
leftKerningGroup = o;
rightKerningGroup = g;
unicode = 0067;
},
{
glyphname = h;
lastChange = "2018-05-23 18:31:45 +0000";
layers = (
{
anchors = (
{
name = btm;
position = "{593, -200}";
},
{
name = top;
position = "{720, 2000}";
}
);
layerId = "DD6F9F34-BC40-4E8F-B1D3-DF3B42A9710F";
paths = (
{
closed = 1;
nodes = (
"287 112 LINE",
"385 175 LINE",
"385 821 LINE",
"375 845 LINE",
"385 1104 LINE",
"385 1518 LINE",
"199 1339 LINE",
"199 142 LINE"
);
},
{
closed = 1;
nodes = (
"298 1557 OFFCURVE",
"183 1556 OFFCURVE",
"50 1548 CURVE SMOOTH",
"34 1547 OFFCURVE",
"26 1520 OFFCURVE",
"26 1504 CURVE SMOOTH",
"26 1479 OFFCURVE",
"36 1470 OFFCURVE",
"50 1464 CURVE",
"104 1450 OFFCURVE",
"199 1463 OFFCURVE",
"199 1339 CURVE SMOOTH",
"199 1338 OFFCURVE",
"199 1337 OFFCURVE",
"200 1337 CURVE SMOOTH",
"221 1337 OFFCURVE",
"385 1490 OFFCURVE",
"385 1518 CURVE",
"382 1550 OFFCURVE",
"366 1558 OFFCURVE",
"355 1558 CURVE SMOOTH"
);
},
{
closed = 1;
nodes = (
"521 0 OFFCURVE",
"533 26 OFFCURVE",
"533 41 CURVE SMOOTH",
"533 71 OFFCURVE",
"525 75 OFFCURVE",
"497 78 CURVE SMOOTH",
"448 83 OFFCURVE",
"385 89 OFFCURVE",
"385 175 CURVE",
"199 142 LINE",
"199 98 OFFCURVE",
"132 83 OFFCURVE",
"83 78 CURVE SMOOTH",
"57 75 OFFCURVE",
"50 62 OFFCURVE",
"50 41 CURVE SMOOTH",
"50 26 OFFCURVE",
"61 0 OFFCURVE",
"84 0 CURVE SMOOTH",
"499 0 LINE SMOOTH"
);
},
{
closed = 1;
nodes = (
"440 822 OFFCURVE",
"558 896 OFFCURVE",
"683 896 CURVE SMOOTH",
"801 896 OFFCURVE",
"812 829 OFFCURVE",
"812 795 CURVE SMOOTH",
"812 710 OFFCURVE",
"812 142 OFFCURVE",
"812 142 CURVE",
"900 120 LINE",
"1000 175 LINE",
"1000 175 OFFCURVE",
"1000 685 OFFCURVE",
"1000 766 CURVE SMOOTH",
"1000 974 OFFCURVE",
"869 1014 OFFCURVE",
"724 1014 CURVE SMOOTH",
"561 1014 OFFCURVE",
"410 880 OFFCURVE",
"375 845 CURVE",
"370 804 LINE",
"385 771 LINE"
);
},
{
closed = 1;
nodes = (
"1159 0 OFFCURVE",
"1170 26 OFFCURVE",
"1170 41 CURVE SMOOTH",
"1170 70 OFFCURVE",
"1159 75 OFFCURVE",
"1137 78 CURVE SMOOTH",
"1087 85 OFFCURVE",
"1000 79 OFFCURVE",
"1000 175 CURVE",
"812 142 LINE",
"812 104 OFFCURVE",
"748 82 OFFCURVE",
"706 78 CURVE SMOOTH",
"680 75 OFFCURVE",
"675 62 OFFCURVE",
"675 41 CURVE SMOOTH",
"675 26 OFFCURVE",
"686 0 OFFCURVE",
"709 0 CURVE SMOOTH",
"1136 0 LINE SMOOTH"
);
}
);
width = 1192;
}
);
leftKerningGroup = h;
rightKerningGroup = n;
unicode = 0068;
userData = {
com.typemytype.robofont.mark = (
0.967,
0.6,
1,
1
);
};
},
{
glyphname = hbar;
lastChange = "2018-05-23 18:31:45 +0000";
layers = (
{
layerId = "DD6F9F34-BC40-4E8F-B1D3-DF3B42A9710F";
paths = (
{
closed = 1;
nodes = (
"287 102 LINE",
"385 165 LINE",
"385 1518 LINE",
"199 1349 LINE",
"199 132 LINE"
);
},
{
closed = 1;
nodes = (
"298 1557 OFFCURVE",
"183 1556 OFFCURVE",
"50 1548 CURVE SMOOTH",
"34 1547 OFFCURVE",
"26 1530 OFFCURVE",
"26 1514 CURVE SMOOTH",
"26 1489 OFFCURVE",
"36 1480 OFFCURVE",
"50 1474 CURVE",
"104 1460 OFFCURVE",
"199 1473 OFFCURVE",
"199 1349 CURVE SMOOTH",
"199 1348 OFFCURVE",
"199 1347 OFFCURVE",
"200 1347 CURVE SMOOTH",
"221 1347 OFFCURVE",
"385 1490 OFFCURVE",
"385 1518 CURVE",
"382 1550 OFFCURVE",
"366 1558 OFFCURVE",
"355 1558 CURVE SMOOTH"
);
},
{
closed = 1;
nodes = (
"521 0 OFFCURVE",
"533 16 OFFCURVE",
"533 31 CURVE SMOOTH",
"533 61 OFFCURVE",
"525 65 OFFCURVE",
"497 68 CURVE SMOOTH",
"448 73 OFFCURVE",
"385 79 OFFCURVE",
"385 165 CURVE",
"199 132 LINE",
"199 88 OFFCURVE",
"142 73 OFFCURVE",
"93 68 CURVE SMOOTH",
"67 65 OFFCURVE",
"60 52 OFFCURVE",
"60 31 CURVE SMOOTH",
"60 16 OFFCURVE",
"71 0 OFFCURVE",
"94 0 CURVE SMOOTH",
"499 0 LINE SMOOTH"
);
},
{
closed = 1;
nodes = (
"440 822 OFFCURVE",
"558 896 OFFCURVE",
"683 896 CURVE SMOOTH",
"801 896 OFFCURVE",
"812 829 OFFCURVE",
"812 795 CURVE SMOOTH",
"812 710 OFFCURVE",
"812 132 OFFCURVE",
"812 132 CURVE",
"900 110 LINE",
"1000 165 LINE",
"1000 165 OFFCURVE",
"1000 685 OFFCURVE",
"1000 766 CURVE SMOOTH",
"1000 974 OFFCURVE",
"869 1013 OFFCURVE",
"724 1013 CURVE SMOOTH",
"561 1013 OFFCURVE",
"420 890 OFFCURVE",
"385 855 CURVE",
"370 804 LINE",
"385 771 LINE"
);
},
{
closed = 1;
nodes = (
"1149 0 OFFCURVE",
"1160 16 OFFCURVE",
"1160 31 CURVE SMOOTH",
"1160 60 OFFCURVE",
"1149 65 OFFCURVE",
"1127 68 CURVE SMOOTH",
"1077 75 OFFCURVE",
"1000 69 OFFCURVE",
"1000 165 CURVE",
"812 132 LINE",
"812 94 OFFCURVE",
"748 72 OFFCURVE",
"706 68 CURVE SMOOTH",
"680 65 OFFCURVE",
"675 52 OFFCURVE",
"675 31 CURVE SMOOTH",
"675 16 OFFCURVE",
"686 0 OFFCURVE",
"709 0 CURVE SMOOTH",
"1126 0 LINE SMOOTH"
);
},
{
closed = 1;
nodes = (
"676 1190 LINE",
"676 1276 LINE",
"22 1276 LINE",
"22 1190 LINE"
);
}
);
width = 1192;
}
);
leftKerningGroup = h;
rightKerningGroup = n;
unicode = 0127;
},
{
glyphname = i;
lastChange = "2018-05-23 18:31:45 +0000";
layers = (
{
anchors = (
{
name = btm;
position = "{297, -200}";
},
{
name = top;
position = "{297, 2000}";
}
);
layerId = "DD6F9F34-BC40-4E8F-B1D3-DF3B42A9710F";
paths = (
{
closed = 1;
nodes = (
"305 112 LINE",
"403 175 LINE",
"403 957 LINE",
"217 778 LINE",
"216 142 LINE"
);
},
{
closed = 1;
nodes = (
"316 996 OFFCURVE",
"201 995 OFFCURVE",
"68 987 CURVE SMOOTH",
"52 986 OFFCURVE",
"44 959 OFFCURVE",
"44 943 CURVE SMOOTH",
"44 918 OFFCURVE",
"54 909 OFFCURVE",
"68 903 CURVE",
"122 889 OFFCURVE",
"217 902 OFFCURVE",
"217 778 CURVE SMOOTH",
"217 777 OFFCURVE",
"217 776 OFFCURVE",
"218 776 CURVE SMOOTH",
"239 776 OFFCURVE",
"403 929 OFFCURVE",
"403 957 CURVE",
"400 989 OFFCURVE",
"384 997 OFFCURVE",
"373 997 CURVE SMOOTH"
);
},
{
closed = 1;
nodes = (
"549 0 OFFCURVE",
"561 26 OFFCURVE",
"561 41 CURVE SMOOTH",
"561 71 OFFCURVE",
"553 75 OFFCURVE",
"525 78 CURVE SMOOTH",
"476 83 OFFCURVE",
"403 89 OFFCURVE",
"403 175 CURVE",
"216 142 LINE",
"216 98 OFFCURVE",
"150 83 OFFCURVE",
"101 78 CURVE SMOOTH",
"75 75 OFFCURVE",
"68 62 OFFCURVE",
"68 41 CURVE SMOOTH",
"68 26 OFFCURVE",
"79 0 OFFCURVE",
"102 0 CURVE SMOOTH",
"527 0 LINE SMOOTH"
);
},
{
closed = 1;
nodes = (
"201 1301 OFFCURVE",
"248 1240 OFFCURVE",
"322 1240 CURVE SMOOTH",
"395 1240 OFFCURVE",
"443 1301 OFFCURVE",
"443 1379 CURVE SMOOTH",
"443 1457 OFFCURVE",
"395 1518 OFFCURVE",
"322 1518 CURVE SMOOTH",
"248 1518 OFFCURVE",
"201 1457 OFFCURVE",
"201 1379 CURVE SMOOTH"
);
}
);
width = 600;
}
);
leftKerningGroup = idotless;
rightKerningGroup = idotless;
unicode = 0069;
},
{
glyphname = idotless;
lastChange = "2018-05-23 18:31:45 +0000";
layers = (
{
anchors = (
{
name = btm;
position = "{297, -200}";
},
{
name = top;
position = "{297, 2000}";
}
);
layerId = "DD6F9F34-BC40-4E8F-B1D3-DF3B42A9710F";
paths = (
{
closed = 1;
nodes = (
"305 112 LINE",
"403 175 LINE",
"403 957 LINE",
"217 778 LINE",
"216 142 LINE"
);
},
{
closed = 1;
nodes = (
"316 996 OFFCURVE",
"201 995 OFFCURVE",
"68 987 CURVE SMOOTH",
"52 986 OFFCURVE",
"44 959 OFFCURVE",
"44 943 CURVE SMOOTH",
"44 918 OFFCURVE",
"54 909 OFFCURVE",
"68 903 CURVE",
"122 889 OFFCURVE",
"217 902 OFFCURVE",
"217 778 CURVE SMOOTH",
"217 777 OFFCURVE",
"217 776 OFFCURVE",
"218 776 CURVE SMOOTH",
"239 776 OFFCURVE",
"403 929 OFFCURVE",
"403 957 CURVE",
"400 989 OFFCURVE",
"384 997 OFFCURVE",
"373 997 CURVE SMOOTH"
);
},
{
closed = 1;
nodes = (
"549 0 OFFCURVE",
"561 26 OFFCURVE",
"561 41 CURVE SMOOTH",
"561 71 OFFCURVE",
"553 75 OFFCURVE",
"525 78 CURVE SMOOTH",
"476 83 OFFCURVE",
"403 89 OFFCURVE",
"403 175 CURVE",
"216 142 LINE",
"216 98 OFFCURVE",
"150 83 OFFCURVE",
"101 78 CURVE SMOOTH",
"75 75 OFFCURVE",
"68 62 OFFCURVE",
"68 41 CURVE SMOOTH",
"68 26 OFFCURVE",
"79 0 OFFCURVE",
"102 0 CURVE SMOOTH",
"527 0 LINE SMOOTH"
);
}
);
width = 600;
}
);
leftKerningGroup = idotless;
rightKerningGroup = idotless;
unicode = 0131;
},
{
glyphname = iogonek;
lastChange = "2018-05-23 18:31:45 +0000";
layers = (
{
components = (
{
name = i;
}
);
layerId = "DD6F9F34-BC40-4E8F-B1D3-DF3B42A9710F";
paths = (
{
closed = 1;
nodes = (
"122 -95 OFFCURVE",
"240 19 OFFCURVE",
"359 37 CURVE",
"359 37 OFFCURVE",
"427 0 OFFCURVE",
"427 0 CURVE",
"313 -14 OFFCURVE",
"270 -106 OFFCURVE",
"270 -198 CURVE SMOOTH",
"270 -381 OFFCURVE",
"469 -346 OFFCURVE",
"517 -349 CURVE SMOOTH",
"534 -350 OFFCURVE",
"538 -367 OFFCURVE",
"533 -393 CURVE SMOOTH",
"530 -408 OFFCURVE",
"518 -418 OFFCURVE",
"503 -422 CURVE SMOOTH",
"446 -438 OFFCURVE",
"393 -448 OFFCURVE",
"342 -448 CURVE SMOOTH",
"215 -448 OFFCURVE",
"122 -345 OFFCURVE",
"122 -238 CURVE SMOOTH"
);
}
);
width = 600;
}
);
leftKerningGroup = i;
rightKerningGroup = i;
unicode = 012F;
},
{
glyphname = j;
lastChange = "2018-05-23 18:31:45 +0000";
layers = (
{
anchors = (
{
name = btm;
position = "{173, -200}";
},
{
name = top;
position = "{173, 2000}";
}
);
layerId = "DD6F9F34-BC40-4E8F-B1D3-DF3B42A9710F";
paths = (
{
closed = 1;
nodes = (
"211 1301 OFFCURVE",
"258 1240 OFFCURVE",
"332 1240 CURVE SMOOTH",
"405 1240 OFFCURVE",
"453 1301 OFFCURVE",
"453 1379 CURVE SMOOTH",
"453 1457 OFFCURVE",
"405 1518 OFFCURVE",
"332 1518 CURVE SMOOTH",
"258 1518 OFFCURVE",
"211 1457 OFFCURVE",
"211 1379 CURVE SMOOTH"
);
},
{
closed = 1;
nodes = (
"341 67 LINE",
"431 88 LINE",
"432 957 LINE",
"246 778 LINE",
"245 56 LINE"
);
},
{
closed = 1;
nodes = (
"345 996 OFFCURVE",
"220 995 OFFCURVE",
"87 987 CURVE SMOOTH",
"71 986 OFFCURVE",
"63 959 OFFCURVE",
"63 943 CURVE SMOOTH",
"63 918 OFFCURVE",
"73 909 OFFCURVE",
"87 903 CURVE",
"141 889 OFFCURVE",
"246 902 OFFCURVE",
"246 778 CURVE SMOOTH",
"246 777 OFFCURVE",
"246 776 OFFCURVE",
"247 776 CURVE SMOOTH",
"268 776 OFFCURVE",
"432 929 OFFCURVE",
"432 957 CURVE",
"429 989 OFFCURVE",
"413 997 OFFCURVE",
"402 997 CURVE SMOOTH"
);
},
{
closed = 1;
nodes = (
"-116 -354 OFFCURVE",
"-48 -449 OFFCURVE",
"80 -449 CURVE SMOOTH",
"308 -449 OFFCURVE",
"431 -187 OFFCURVE",
"431 88 CURVE",
"343 119 LINE",
"245 56 LINE",
"245 -344 OFFCURVE",
"168 -347 OFFCURVE",
"94 -347 CURVE SMOOTH",
"68 -347 OFFCURVE",
"14 -369 OFFCURVE",
"14 -369 CURVE SMOOTH",
"14 -369 OFFCURVE",
"40 -369 OFFCURVE",
"66 -379 CURVE",
"117 -364 LINE",
"36 -202 LINE",
"27 -185 OFFCURVE",
"9 -178 OFFCURVE",
"-19 -178 CURVE SMOOTH",
"-54 -178 OFFCURVE",
"-116 -223 OFFCURVE",
"-116 -285 CURVE SMOOTH"
);
}
);
width = 598;
}
);
leftKerningGroup = dotaccent;
rightKerningGroup = dotlessj;
unicode = 006A;
},
{
glyphname = jdotless;
lastChange = "2018-05-23 18:31:45 +0000";
layers = (
{
anchors = (
{
name = btm;
position = "{168, -200}";
},
{
name = top;
position = "{340, 2000}";
}
);
layerId = "DD6F9F34-BC40-4E8F-B1D3-DF3B42A9710F";
paths = (
{
closed = 1;
nodes = (
"341 67 LINE",
"431 88 LINE",
"432 957 LINE",
"246 778 LINE",
"245 56 LINE"
);
},
{
closed = 1;
nodes = (
"345 996 OFFCURVE",
"220 995 OFFCURVE",
"87 987 CURVE SMOOTH",
"71 986 OFFCURVE",
"63 959 OFFCURVE",
"63 943 CURVE SMOOTH",
"63 918 OFFCURVE",
"73 909 OFFCURVE",
"87 903 CURVE",
"141 889 OFFCURVE",
"246 902 OFFCURVE",
"246 778 CURVE SMOOTH",
"246 777 OFFCURVE",
"246 776 OFFCURVE",
"247 776 CURVE SMOOTH",
"268 776 OFFCURVE",
"432 929 OFFCURVE",
"432 957 CURVE",
"429 989 OFFCURVE",
"413 997 OFFCURVE",
"402 997 CURVE SMOOTH"
);
},
{
closed = 1;
nodes = (
"245 -344 OFFCURVE",
"168 -347 OFFCURVE",
"94 -347 CURVE SMOOTH",
"68 -347 OFFCURVE",
"14 -369 OFFCURVE",
"14 -369 CURVE",
"14 -369 OFFCURVE",
"40 -369 OFFCURVE",
"66 -379 CURVE",
"94 -379 OFFCURVE",
"125 -365 OFFCURVE",
"118 -352 CURVE SMOOTH",
"74 -272 OFFCURVE",
"61 -216 OFFCURVE",
"36 -202 CURVE",
"14 -188 OFFCURVE",
"-96 -220 OFFCURVE",
"-96 -310 CURVE SMOOTH",
"-96 -379 OFFCURVE",
"-48 -449 OFFCURVE",
"80 -449 CURVE SMOOTH",
"308 -449 OFFCURVE",
"431 -187 OFFCURVE",
"431 88 CURVE",
"343 119 LINE",
"245 56 LINE"
);
}
);
width = 598;
}
);
leftKerningGroup = j;
rightKerningGroup = j;
unicode = 0237;
},
{
glyphname = k;
lastChange = "2018-05-23 18:31:45 +0000";
layers = (
{
anchors = (
{
name = btm;
position = "{576, -200}";
},
{
name = top;
position = "{576, 2000}";
}
);
layerId = "DD6F9F34-BC40-4E8F-B1D3-DF3B42A9710F";
paths = (
{
closed = 1;
nodes = (
"287 112 LINE",
"385 175 LINE",
"385 1518 LINE",
"199 1339 LINE",
"199 142 LINE"
);
},
{
closed = 1;
nodes = (
"298 1557 OFFCURVE",
"183 1556 OFFCURVE",
"50 1548 CURVE SMOOTH",
"34 1547 OFFCURVE",
"26 1520 OFFCURVE",
"26 1504 CURVE SMOOTH",
"26 1479 OFFCURVE",
"36 1470 OFFCURVE",
"50 1464 CURVE",
"104 1450 OFFCURVE",
"199 1463 OFFCURVE",
"199 1339 CURVE SMOOTH",
"199 1338 OFFCURVE",
"199 1337 OFFCURVE",
"200 1337 CURVE SMOOTH",
"221 1337 OFFCURVE",
"385 1490 OFFCURVE",
"385 1518 CURVE",
"382 1550 OFFCURVE",
"366 1558 OFFCURVE",
"355 1558 CURVE SMOOTH"
);
},
{
closed = 1;
nodes = (
"521 0 OFFCURVE",
"533 26 OFFCURVE",
"533 41 CURVE SMOOTH",
"533 71 OFFCURVE",
"525 75 OFFCURVE",
"497 78 CURVE SMOOTH",
"448 83 OFFCURVE",
"385 89 OFFCURVE",
"385 175 CURVE",
"199 142 LINE",
"199 98 OFFCURVE",
"132 83 OFFCURVE",
"83 78 CURVE SMOOTH",
"57 75 OFFCURVE",
"50 62 OFFCURVE",
"50 41 CURVE SMOOTH",
"50 26 OFFCURVE",
"61 0 OFFCURVE",
"84 0 CURVE SMOOTH",
"499 0 LINE SMOOTH"
);
},
{
closed = 1;
nodes = (
"833 819 LINE",
"803 874 LINE",
"735 842 LINE",
"350 491 LINE",
"314 352 LINE"
);
},
{
closed = 1;
nodes = (
"589 994 OFFCURVE",
"578 964 OFFCURVE",
"578 949 CURVE SMOOTH",
"578 928 OFFCURVE",
"583 909 OFFCURVE",
"609 906 CURVE",
"671 902 OFFCURVE",
"793 885 OFFCURVE",
"735 842 CURVE",
"833 819 LINE",
"883 858 OFFCURVE",
"955 906 OFFCURVE",
"1020 906 CURVE SMOOTH",
"1042 906 OFFCURVE",
"1053 925 OFFCURVE",
"1053 949 CURVE SMOOTH",
"1053 964 OFFCURVE",
"1042 994 OFFCURVE",
"1019 994 CURVE SMOOTH",
"612 994 LINE SMOOTH"
);
},
{
closed = 1;
nodes = (
"1116 0 OFFCURVE",
"1127 26 OFFCURVE",
"1127 41 CURVE SMOOTH",
"1127 70 OFFCURVE",
"1116 75 OFFCURVE",
"1094 78 CURVE SMOOTH",
"1044 85 OFFCURVE",
"992 116 OFFCURVE",
"941 175 CURVE SMOOTH",
"817 320 OFFCURVE",
"669 545 OFFCURVE",
"573 614 CURVE",
"457 513 LINE",
"563 417 OFFCURVE",
"725 145 OFFCURVE",
"809 0 CURVE",
"1093 0 LINE SMOOTH"
);
}
);
width = 1097;
}
);
leftKerningGroup = h;
rightKerningGroup = k;
unicode = 006B;
},
{
glyphname = kgreenlandic;
lastChange = "2018-05-23 18:31:45 +0000";
layers = (
{
layerId = "DD6F9F34-BC40-4E8F-B1D3-DF3B42A9710F";
paths = (
{
closed = 1;
nodes = (
"729 132 LINE",
"857 110 LINE",
"927 165 LINE",
"584 624 LINE",
"457 513 LINE"
);
},
{
closed = 1;
nodes = (
"1116 0 OFFCURVE",
"1127 16 OFFCURVE",
"1127 31 CURVE SMOOTH",
"1127 60 OFFCURVE",
"1116 65 OFFCURVE",
"1094 68 CURVE SMOOTH",
"1044 75 OFFCURVE",
"977 105 OFFCURVE",
"927 165 CURVE",
"729 132 LINE",
"767 89 OFFCURVE",
"715 72 OFFCURVE",
"673 68 CURVE SMOOTH",
"647 65 OFFCURVE",
"642 52 OFFCURVE",
"642 31 CURVE SMOOTH",
"642 16 OFFCURVE",
"653 0 OFFCURVE",
"676 0 CURVE SMOOTH",
"1093 0 LINE SMOOTH"
);
},
{
closed = 1;
nodes = (
"823 821 LINE",
"793 876 LINE",
"725 844 LINE",
"350 491 LINE",
"314 352 LINE"
);
},
{
closed = 1;
nodes = (
"609 986 OFFCURVE",
"598 970 OFFCURVE",
"598 955 CURVE SMOOTH",
"598 934 OFFCURVE",
"603 921 OFFCURVE",
"629 918 CURVE SMOOTH",
"671 914 OFFCURVE",
"763 887 OFFCURVE",
"725 844 CURVE",
"823 821 LINE",
"876 860 OFFCURVE",
"942 918 OFFCURVE",
"1010 918 CURVE SMOOTH",
"1032 918 OFFCURVE",
"1043 931 OFFCURVE",
"1043 955 CURVE SMOOTH",
"1043 970 OFFCURVE",
"1032 986 OFFCURVE",
"1009 986 CURVE SMOOTH",
"632 986 LINE"
);
},
{
closed = 1;
nodes = (
"305 102 LINE",
"403 165 LINE",
"403 947 LINE",
"217 778 LINE",
"217 132 LINE"
);
},
{
closed = 1;
nodes = (
"318 986 OFFCURVE",
"207 985 OFFCURVE",
"78 977 CURVE SMOOTH",
"62 976 OFFCURVE",
"54 959 OFFCURVE",
"54 943 CURVE SMOOTH",
"54 918 OFFCURVE",
"64 909 OFFCURVE",
"78 903 CURVE",
"128 889 OFFCURVE",
"217 902 OFFCURVE",
"217 778 CURVE SMOOTH",
"217 777 OFFCURVE",
"217 776 OFFCURVE",
"218 776 CURVE SMOOTH",
"239 776 OFFCURVE",
"403 919 OFFCURVE",
"403 947 CURVE",
"400 979 OFFCURVE",
"384 987 OFFCURVE",
"373 987 CURVE SMOOTH"
);
},
{
closed = 1;
nodes = (
"539 0 OFFCURVE",
"551 16 OFFCURVE",
"551 31 CURVE SMOOTH",
"551 61 OFFCURVE",
"543 65 OFFCURVE",
"515 68 CURVE SMOOTH",
"466 73 OFFCURVE",
"403 79 OFFCURVE",
"403 165 CURVE",
"217 132 LINE",
"217 88 OFFCURVE",
"160 73 OFFCURVE",
"111 68 CURVE SMOOTH",
"85 65 OFFCURVE",
"78 52 OFFCURVE",
"78 31 CURVE SMOOTH",
"78 16 OFFCURVE",
"89 0 OFFCURVE",
"112 0 CURVE SMOOTH",
"517 0 LINE SMOOTH"
);
}
);
width = 1115;
}
);
leftKerningGroup = h;
rightKerningGroup = k;
unicode = 0138;
},
{
glyphname = l;
lastChange = "2018-05-23 18:31:45 +0000";
layers = (
{
anchors = (
{
name = btm;
position = "{280, -200}";
},
{
name = top;
position = "{280, 2000}";
}
);
layerId = "DD6F9F34-BC40-4E8F-B1D3-DF3B42A9710F";
paths = (
{
closed = 1;
nodes = (
"288 112 LINE",
"386 175 LINE",
"386 1518 LINE",
"200 1339 LINE",
"199 142 LINE"
);
},
{
closed = 1;
nodes = (
"299 1557 OFFCURVE",
"174 1556 OFFCURVE",
"41 1548 CURVE SMOOTH",
"25 1547 OFFCURVE",
"17 1520 OFFCURVE",
"17 1504 CURVE SMOOTH",
"17 1479 OFFCURVE",
"27 1470 OFFCURVE",
"41 1464 CURVE",
"95 1450 OFFCURVE",
"200 1463 OFFCURVE",
"200 1339 CURVE SMOOTH",
"200 1338 OFFCURVE",
"200 1337 OFFCURVE",
"201 1337 CURVE SMOOTH",
"222 1337 OFFCURVE",
"386 1490 OFFCURVE",
"386 1518 CURVE",
"383 1550 OFFCURVE",
"367 1558 OFFCURVE",
"356 1558 CURVE SMOOTH"
);
},
{
closed = 1;
nodes = (
"532 0 OFFCURVE",
"544 26 OFFCURVE",
"544 41 CURVE SMOOTH",
"544 71 OFFCURVE",
"536 75 OFFCURVE",
"508 78 CURVE SMOOTH",
"459 83 OFFCURVE",
"386 89 OFFCURVE",
"386 175 CURVE",
"199 142 LINE",
"199 98 OFFCURVE",
"133 83 OFFCURVE",
"84 78 CURVE SMOOTH",
"58 75 OFFCURVE",
"51 62 OFFCURVE",
"51 41 CURVE SMOOTH",
"51 26 OFFCURVE",
"62 0 OFFCURVE",
"85 0 CURVE SMOOTH",
"510 0 LINE SMOOTH"
);
}
);
width = 586;
}
);
leftKerningGroup = h;
rightKerningGroup = l;
unicode = 006C;
},
{
glyphname = lacute;
layers = (
{
components = (
{
name = acute.cap;
transform = "{1, 0, 0, 1, 74, 0}";
}
);
layerId = "DD6F9F34-BC40-4E8F-B1D3-DF3B42A9710F";
paths = (
{
closed = 1;
nodes = (
"288 102 LINE",
"386 165 LINE",
"386 1379 LINE",
"200 1210 LINE",
"199 132 LINE"
);
},
{
closed = 1;
nodes = (
"299 1418 OFFCURVE",
"184 1417 OFFCURVE",
"51 1409 CURVE SMOOTH",
"35 1408 OFFCURVE",
"27 1391 OFFCURVE",
"27 1375 CURVE SMOOTH",
"27 1350 OFFCURVE",
"37 1341 OFFCURVE",
"51 1335 CURVE",
"105 1321 OFFCURVE",
"200 1334 OFFCURVE",
"200 1210 CURVE SMOOTH",
"200 1209 OFFCURVE",
"200 1208 OFFCURVE",
"201 1208 CURVE SMOOTH",
"222 1208 OFFCURVE",
"386 1351 OFFCURVE",
"386 1379 CURVE",
"383 1411 OFFCURVE",
"367 1419 OFFCURVE",
"356 1419 CURVE SMOOTH"
);
},
{
closed = 1;
nodes = (
"522 0 OFFCURVE",
"534 16 OFFCURVE",
"534 31 CURVE SMOOTH",
"534 61 OFFCURVE",
"526 65 OFFCURVE",
"498 68 CURVE SMOOTH",
"449 73 OFFCURVE",
"386 79 OFFCURVE",
"386 165 CURVE",
"199 132 LINE",
"199 88 OFFCURVE",
"143 73 OFFCURVE",
"94 68 CURVE SMOOTH",
"68 65 OFFCURVE",
"61 52 OFFCURVE",
"61 31 CURVE SMOOTH",
"61 16 OFFCURVE",
"72 0 OFFCURVE",
"95 0 CURVE SMOOTH",
"500 0 LINE SMOOTH"
);
}
);
width = 586;
}
);
unicode = 013A;
},
{
glyphname = lcaron;
lastChange = "2018-05-23 18:31:45 +0000";
layers = (
{
components = (
{
name = l;
}
);
layerId = "DD6F9F34-BC40-4E8F-B1D3-DF3B42A9710F";
paths = (
{
closed = 1;
nodes = (
"612 1444 OFFCURVE",
"521 1449 OFFCURVE",
"521 1570 CURVE SMOOTH",
"521 1648 OFFCURVE",
"569 1696 OFFCURVE",
"652 1696 CURVE SMOOTH",
"710 1696 OFFCURVE",
"770 1657 OFFCURVE",
"770 1511 CURVE SMOOTH",
"770 1329 OFFCURVE",
"663 1138 OFFCURVE",
"609 1091 CURVE",
"576 1068 OFFCURVE",
"500 1098 OFFCURVE",
"561 1162 CURVE",
"623 1262 OFFCURVE",
"622 1388 OFFCURVE",
"615 1432 CURVE"
);
}
);
width = 771;
}
);
leftKerningGroup = h;
rightKerningGroup = l;
unicode = 013E;
},
{
glyphname = lslash;
lastChange = "2018-05-23 18:31:45 +0000";
layers = (
{
components = (
{
name = l;
}
);
layerId = "DD6F9F34-BC40-4E8F-B1D3-DF3B42A9710F";
paths = (
{
closed = 1;
nodes = (
"564 761 LINE",
"525 849 LINE",
"25 637 LINE",
"64 549 LINE"
);
}
);
width = 586;
}
);
leftKerningGroup = lslash;
rightKerningGroup = lslash;
unicode = 0142;
},
{
glyphname = m;
lastChange = "2018-05-23 18:31:45 +0000";
layers = (
{
anchors = (
{
name = btm;
position = "{912, -200}";
},
{
name = top;
position = "{912, 2000}";
}
);
layerId = "DD6F9F34-BC40-4E8F-B1D3-DF3B42A9710F";
paths = (
{
closed = 1;
nodes = (
"305 112 LINE",
"403 175 LINE",
"403 827 LINE",
"393 832 LINE",
"393 957 LINE",
"217 778 LINE",
"217 142 LINE"
);
},
{
closed = 1;
nodes = (
"308 996 OFFCURVE",
"197 995 OFFCURVE",
"68 987 CURVE SMOOTH",
"52 986 OFFCURVE",
"44 959 OFFCURVE",
"44 943 CURVE SMOOTH",
"44 918 OFFCURVE",
"54 909 OFFCURVE",
"68 903 CURVE",
"118 889 OFFCURVE",
"217 902 OFFCURVE",
"217 778 CURVE SMOOTH",
"217 777 OFFCURVE",
"217 776 OFFCURVE",
"218 776 CURVE SMOOTH",
"239 776 OFFCURVE",
"393 929 OFFCURVE",
"393 957 CURVE",
"390 989 OFFCURVE",
"374 997 OFFCURVE",
"363 997 CURVE SMOOTH"
);
},
{
closed = 1;
nodes = (
"539 0 OFFCURVE",
"551 26 OFFCURVE",
"551 41 CURVE SMOOTH",
"551 71 OFFCURVE",
"543 75 OFFCURVE",
"515 78 CURVE SMOOTH",
"466 83 OFFCURVE",
"403 89 OFFCURVE",
"403 175 CURVE",
"217 142 LINE",
"217 98 OFFCURVE",
"150 83 OFFCURVE",
"101 78 CURVE SMOOTH",
"75 75 OFFCURVE",
"68 62 OFFCURVE",
"68 41 CURVE SMOOTH",
"68 26 OFFCURVE",
"79 0 OFFCURVE",
"102 0 CURVE SMOOTH",
"517 0 LINE SMOOTH"
);
},
{
closed = 1;
nodes = (
"1156 0 OFFCURVE",
"1167 26 OFFCURVE",
"1167 41 CURVE SMOOTH",
"1167 70 OFFCURVE",
"1156 75 OFFCURVE",
"1134 78 CURVE SMOOTH",
"1084 85 OFFCURVE",
"1007 79 OFFCURVE",
"1007 175 CURVE",
"819 142 LINE",
"819 104 OFFCURVE",
"755 82 OFFCURVE",
"713 78 CURVE SMOOTH",
"687 75 OFFCURVE",
"682 62 OFFCURVE",
"682 41 CURVE SMOOTH",
"682 26 OFFCURVE",
"693 0 OFFCURVE",
"716 0 CURVE SMOOTH",
"1133 0 LINE SMOOTH"
);
},
{
closed = 1;
nodes = (
"1050 811 OFFCURVE",
"1159 896 OFFCURVE",
"1294 896 CURVE SMOOTH",
"1412 896 OFFCURVE",
"1423 829 OFFCURVE",
"1423 795 CURVE SMOOTH",
"1423 710 OFFCURVE",
"1423 142 OFFCURVE",
"1423 142 CURVE",
"1511 120 LINE",
"1611 175 LINE",
"1611 175 OFFCURVE",
"1611 685 OFFCURVE",
"1611 766 CURVE SMOOTH",
"1611 974 OFFCURVE",
"1480 1014 OFFCURVE",
"1335 1014 CURVE SMOOTH",
"1172 1014 OFFCURVE",
"1030 886 OFFCURVE",
"995 846 CURVE",
"980 795 LINE",
"995 760 LINE"
);
},
{
closed = 1;
nodes = (
"1770 0 OFFCURVE",
"1781 26 OFFCURVE",
"1781 41 CURVE SMOOTH",
"1781 70 OFFCURVE",
"1770 75 OFFCURVE",
"1748 78 CURVE SMOOTH",
"1698 85 OFFCURVE",
"1611 79 OFFCURVE",
"1611 175 CURVE",
"1423 142 LINE",
"1423 104 OFFCURVE",
"1359 82 OFFCURVE",
"1317 78 CURVE SMOOTH",
"1291 75 OFFCURVE",
"1286 62 OFFCURVE",
"1286 41 CURVE SMOOTH",
"1286 26 OFFCURVE",
"1297 0 OFFCURVE",
"1320 0 CURVE SMOOTH",
"1747 0 LINE SMOOTH"
);
},
{
closed = 1;
nodes = (
"458 822 OFFCURVE",
"565 896 OFFCURVE",
"690 896 CURVE SMOOTH",
"808 896 OFFCURVE",
"819 829 OFFCURVE",
"819 795 CURVE SMOOTH",
"819 710 OFFCURVE",
"819 142 OFFCURVE",
"819 142 CURVE",
"907 120 LINE",
"1007 175 LINE",
"1007 175 OFFCURVE",
"1007 685 OFFCURVE",
"1007 766 CURVE SMOOTH",
"1007 974 OFFCURVE",
"876 1014 OFFCURVE",
"731 1014 CURVE SMOOTH",
"568 1014 OFFCURVE",
"428 880 OFFCURVE",
"393 845 CURVE",
"388 804 LINE",
"403 771 LINE"
);
}
);
width = 1804;
}
);
leftKerningGroup = n;
rightKerningGroup = n;
unicode = 006D;
userData = {
com.typemytype.robofont.mark = (
0.967,
0.6,
1,
1
);
};
},
{
glyphname = n;
lastChange = "2018-05-23 18:31:45 +0000";
layers = (
{
anchors = (
{
name = btm;
position = "{616, -200}";
},
{
name = top;
position = "{587, 2000}";
}
);
layerId = "DD6F9F34-BC40-4E8F-B1D3-DF3B42A9710F";
paths = (
{
closed = 1;
nodes = (
"458 822 OFFCURVE",
"576 896 OFFCURVE",
"701 896 CURVE SMOOTH",
"819 896 OFFCURVE",
"830 829 OFFCURVE",
"830 795 CURVE SMOOTH",
"830 710 OFFCURVE",
"830 142 OFFCURVE",
"830 142 CURVE",
"918 120 LINE",
"1018 175 LINE",
"1018 175 OFFCURVE",
"1018 685 OFFCURVE",
"1018 766 CURVE SMOOTH",
"1018 974 OFFCURVE",
"887 1014 OFFCURVE",
"742 1014 CURVE SMOOTH",
"579 1014 OFFCURVE",
"428 880 OFFCURVE",
"393 845 CURVE",
"388 804 LINE",
"403 771 LINE"
);
},
{
closed = 1;
nodes = (
"305 112 LINE",
"403 175 LINE",
"403 805 LINE",
"393 827 LINE",
"393 957 LINE",
"217 778 LINE",
"217 142 LINE"
);
},
{
closed = 1;
nodes = (
"308 996 OFFCURVE",
"197 995 OFFCURVE",
"68 987 CURVE SMOOTH",
"52 986 OFFCURVE",
"44 959 OFFCURVE",
"44 943 CURVE SMOOTH",
"44 918 OFFCURVE",
"54 909 OFFCURVE",
"68 903 CURVE",
"118 889 OFFCURVE",
"217 902 OFFCURVE",
"217 778 CURVE SMOOTH",
"217 777 OFFCURVE",
"217 776 OFFCURVE",
"218 776 CURVE SMOOTH",
"239 776 OFFCURVE",
"393 929 OFFCURVE",
"393 957 CURVE",
"390 989 OFFCURVE",
"374 997 OFFCURVE",
"363 997 CURVE SMOOTH"
);
},
{
closed = 1;
nodes = (
"539 0 OFFCURVE",
"551 26 OFFCURVE",
"551 41 CURVE SMOOTH",
"551 71 OFFCURVE",
"543 75 OFFCURVE",
"515 78 CURVE SMOOTH",
"466 83 OFFCURVE",
"403 89 OFFCURVE",
"403 175 CURVE",
"217 142 LINE",
"217 98 OFFCURVE",
"150 83 OFFCURVE",
"101 78 CURVE SMOOTH",
"75 75 OFFCURVE",
"68 62 OFFCURVE",
"68 41 CURVE SMOOTH",
"68 26 OFFCURVE",
"79 0 OFFCURVE",
"102 0 CURVE SMOOTH",
"517 0 LINE SMOOTH"
);
},
{
closed = 1;
nodes = (
"1177 0 OFFCURVE",
"1188 26 OFFCURVE",
"1188 41 CURVE SMOOTH",
"1188 70 OFFCURVE",
"1177 75 OFFCURVE",
"1155 78 CURVE SMOOTH",
"1105 85 OFFCURVE",
"1018 79 OFFCURVE",
"1018 175 CURVE",
"830 142 LINE",
"830 104 OFFCURVE",
"766 82 OFFCURVE",
"724 78 CURVE SMOOTH",
"698 75 OFFCURVE",
"693 62 OFFCURVE",
"693 41 CURVE SMOOTH",
"693 26 OFFCURVE",
"704 0 OFFCURVE",
"727 0 CURVE SMOOTH",
"1154 0 LINE SMOOTH"
);
}
);
width = 1210;
}
);
leftKerningGroup = n;
rightKerningGroup = n;
unicode = 006E;
userData = {
com.typemytype.robofont.mark = (
0.967,
0.6,
1,
1
);
};
},
{
glyphname = eng;
lastChange = "2018-05-23 18:31:45 +0000";
layers = (
{
layerId = "DD6F9F34-BC40-4E8F-B1D3-DF3B42A9710F";
paths = (
{
closed = 1;
nodes = (
"458 822 OFFCURVE",
"576 896 OFFCURVE",
"701 896 CURVE SMOOTH",
"819 896 OFFCURVE",
"830 829 OFFCURVE",
"830 795 CURVE SMOOTH",
"830 710 OFFCURVE",
"830 56 OFFCURVE",
"830 56 CURVE",
"918 34 LINE",
"1018 89 LINE",
"1018 89 OFFCURVE",
"1018 685 OFFCURVE",
"1018 766 CURVE SMOOTH",
"1018 974 OFFCURVE",
"887 1014 OFFCURVE",
"742 1014 CURVE SMOOTH",
"579 1014 OFFCURVE",
"438 890 OFFCURVE",
"403 855 CURVE",
"388 804 LINE",
"403 771 LINE"
);
},
{
closed = 1;
nodes = (
"305 112 LINE",
"403 175 LINE",
"403 957 LINE",
"217 778 LINE",
"217 142 LINE"
);
},
{
closed = 1;
nodes = (
"318 996 OFFCURVE",
"207 995 OFFCURVE",
"78 987 CURVE SMOOTH",
"62 986 OFFCURVE",
"54 959 OFFCURVE",
"54 943 CURVE SMOOTH",
"54 918 OFFCURVE",
"64 909 OFFCURVE",
"78 903 CURVE",
"128 889 OFFCURVE",
"217 902 OFFCURVE",
"217 778 CURVE SMOOTH",
"217 777 OFFCURVE",
"217 776 OFFCURVE",
"218 776 CURVE SMOOTH",
"239 776 OFFCURVE",
"403 929 OFFCURVE",
"403 957 CURVE",
"400 989 OFFCURVE",
"384 997 OFFCURVE",
"373 997 CURVE SMOOTH"
);
},
{
closed = 1;
nodes = (
"539 0 OFFCURVE",
"551 26 OFFCURVE",
"551 41 CURVE SMOOTH",
"551 71 OFFCURVE",
"543 75 OFFCURVE",
"515 78 CURVE SMOOTH",
"466 83 OFFCURVE",
"403 89 OFFCURVE",
"403 175 CURVE",
"217 142 LINE",
"217 98 OFFCURVE",
"160 83 OFFCURVE",
"111 78 CURVE SMOOTH",
"85 75 OFFCURVE",
"78 62 OFFCURVE",
"78 41 CURVE SMOOTH",
"78 26 OFFCURVE",
"89 0 OFFCURVE",
"112 0 CURVE SMOOTH",
"517 0 LINE SMOOTH"
);
},
{
closed = 1;
nodes = (
"830 -344 OFFCURVE",
"753 -347 OFFCURVE",
"679 -347 CURVE SMOOTH",
"653 -347 OFFCURVE",
"599 -369 OFFCURVE",
"599 -369 CURVE",
"599 -369 OFFCURVE",
"625 -369 OFFCURVE",
"651 -379 CURVE",
"679 -379 OFFCURVE",
"710 -365 OFFCURVE",
"703 -352 CURVE SMOOTH",
"659 -272 OFFCURVE",
"646 -216 OFFCURVE",
"621 -202 CURVE",
"599 -188 OFFCURVE",
"489 -220 OFFCURVE",
"489 -310 CURVE SMOOTH",
"489 -379 OFFCURVE",
"537 -449 OFFCURVE",
"665 -449 CURVE SMOOTH",
"893 -449 OFFCURVE",
"1018 -186 OFFCURVE",
"1018 89 CURVE",
"928 119 LINE",
"830 56 LINE"
);
}
);
width = 1185;
}
);
leftKerningGroup = n;
rightKerningGroup = j;
unicode = 014B;
},
{
glyphname = o;
lastChange = "2018-05-23 18:31:45 +0000";
layers = (
{
anchors = (
{
name = btm;
position = "{552, -200}";
},
{
name = top;
position = "{552, 2000}";
}
);
layerId = "DD6F9F34-BC40-4E8F-B1D3-DF3B42A9710F";
paths = (
{
closed = 1;
nodes = (
"77 204 OFFCURVE",
"250 -29 OFFCURVE",
"550 -29 CURVE SMOOTH",
"850 -29 OFFCURVE",
"1027 204 OFFCURVE",
"1027 492 CURVE SMOOTH",
"1027 780 OFFCURVE",
"857 1014 OFFCURVE",
"557 1014 CURVE SMOOTH",
"257 1014 OFFCURVE",
"77 780 OFFCURVE",
"77 492 CURVE SMOOTH"
);
},
{
closed = 1;
nodes = (
"292 759 OFFCURVE",
"347 918 OFFCURVE",
"549 918 CURVE SMOOTH",
"750 918 OFFCURVE",
"810 760 OFFCURVE",
"810 492 CURVE SMOOTH",
"810 224 OFFCURVE",
"754 66 OFFCURVE",
"553 66 CURVE SMOOTH",
"351 66 OFFCURVE",
"292 224 OFFCURVE",
"292 492 CURVE SMOOTH"
);
}
);
width = 1104;
}
);
leftKerningGroup = o;
rightKerningGroup = o;
unicode = 006F;
},
{
glyphname = oslash;
lastChange = "2018-05-23 18:31:45 +0000";
layers = (
{
components = (
{
name = o;
}
);
layerId = "DD6F9F34-BC40-4E8F-B1D3-DF3B42A9710F";
paths = (
{
closed = 1;
nodes = (
"962 1050 LINE",
"881 1101 LINE",
"141 -83 LINE",
"223 -134 LINE"
);
}
);
width = 1104;
}
);
leftKerningGroup = o;
rightKerningGroup = o;
unicode = 00F8;
},
{
glyphname = oe;
lastChange = "2018-05-23 18:31:45 +0000";
layers = (
{
layerId = "DD6F9F34-BC40-4E8F-B1D3-DF3B42A9710F";
paths = (
{
closed = 1;
nodes = (
"67 204 OFFCURVE",
"235 -29 OFFCURVE",
"529 -29 CURVE SMOOTH",
"823 -29 OFFCURVE",
"985 204 OFFCURVE",
"985 492 CURVE SMOOTH",
"985 780 OFFCURVE",
"830 1014 OFFCURVE",
"536 1014 CURVE SMOOTH",
"242 1014 OFFCURVE",
"67 780 OFFCURVE",
"67 492 CURVE SMOOTH"
);
},
{
closed = 1;
nodes = (
"282 754 OFFCURVE",
"334 918 OFFCURVE",
"528 918 CURVE SMOOTH",
"721 918 OFFCURVE",
"779 754 OFFCURVE",
"779 492 CURVE SMOOTH",
"779 230 OFFCURVE",
"725 66 OFFCURVE",
"532 66 CURVE SMOOTH",
"338 66 OFFCURVE",
"282 230 OFFCURVE",
"282 492 CURVE SMOOTH"
);
},
{
closed = 1;
nodes = (
"1389 -29 OFFCURVE",
"1496 54 OFFCURVE",
"1553 173 CURVE SMOOTH",
"1557 181 OFFCURVE",
"1566 194 OFFCURVE",
"1548 201 CURVE",
"1498 224 LINE",
"1485 227 OFFCURVE",
"1483 216 OFFCURVE",
"1479 208 CURVE SMOOTH",
"1433 123 OFFCURVE",
"1346 75 OFFCURVE",
"1245 75 CURVE SMOOTH",
"1122 75 OFFCURVE",
"987 188 OFFCURVE",
"987 510 CURVE SMOOTH",
"987 865 OFFCURVE",
"1075 918 OFFCURVE",
"1216 918 CURVE SMOOTH",
"1318 918 OFFCURVE",
"1387 827 OFFCURVE",
"1387 595 CURVE",
"1387 595 OFFCURVE",
"926 588 OFFCURVE",
"926 588 CURVE",
"926 503 LINE",
"1609 503 LINE",
"1609 798 OFFCURVE",
"1532 1014 OFFCURVE",
"1217 1014 CURVE SMOOTH",
"988 1014 OFFCURVE",
"781 834 OFFCURVE",
"781 500 CURVE SMOOTH",
"781 166 OFFCURVE",
"927 -29 OFFCURVE",
"1219 -29 CURVE SMOOTH"
);
}
);
width = 1672;
}
);
leftKerningGroup = o;
rightKerningGroup = e;
unicode = 0153;
},
{
glyphname = p;
lastChange = "2018-05-23 18:31:45 +0000";
layers = (
{
anchors = (
{
name = btm;
position = "{563, -200}";
},
{
name = top;
position = "{563, 2000}";
}
);
layerId = "DD6F9F34-BC40-4E8F-B1D3-DF3B42A9710F";
paths = (
{
closed = 1;
nodes = (
"287 -332 LINE",
"385 -302 LINE",
"385 -29 LINE",
"375 45 LINE",
"385 121 LINE",
"385 957 LINE",
"199 778 LINE",
"199 -302 LINE"
);
},
{
closed = 1;
nodes = (
"300 996 OFFCURVE",
"179 995 OFFCURVE",
"50 987 CURVE SMOOTH",
"34 986 OFFCURVE",
"26 959 OFFCURVE",
"26 943 CURVE SMOOTH",
"26 918 OFFCURVE",
"36 909 OFFCURVE",
"50 903 CURVE",
"100 889 OFFCURVE",
"199 902 OFFCURVE",
"199 778 CURVE SMOOTH",
"199 777 OFFCURVE",
"199 776 OFFCURVE",
"200 776 CURVE SMOOTH",
"221 776 OFFCURVE",
"385 929 OFFCURVE",
"385 957 CURVE",
"382 989 OFFCURVE",
"366 997 OFFCURVE",
"355 997 CURVE SMOOTH"
);
},
{
closed = 1;
nodes = (
"583 -444 OFFCURVE",
"594 -418 OFFCURVE",
"594 -403 CURVE SMOOTH",
"594 -382 OFFCURVE",
"587 -369 OFFCURVE",
"561 -366 CURVE",
"482 -361 OFFCURVE",
"385 -346 OFFCURVE",
"385 -302 CURVE",
"199 -269 LINE",
"199 -355 OFFCURVE",
"126 -361 OFFCURVE",
"77 -366 CURVE SMOOTH",
"49 -369 OFFCURVE",
"41 -373 OFFCURVE",
"41 -403 CURVE SMOOTH",
"41 -418 OFFCURVE",
"53 -444 OFFCURVE",
"75 -444 CURVE SMOOTH",
"560 -444 LINE SMOOTH"
);
},
{
closed = 1;
nodes = (
"390 -2 OFFCURVE",
"510 -30 OFFCURVE",
"640 -30 CURVE SMOOTH",
"956 -30 OFFCURVE",
"1090 223 OFFCURVE",
"1090 492 CURVE SMOOTH",
"1090 762 OFFCURVE",
"977 1014 OFFCURVE",
"662 1014 CURVE SMOOTH",
"552 1014 OFFCURVE",
"412 947 OFFCURVE",
"350 850 CURVE",
"368 793 LINE",
"404 858 OFFCURVE",
"515 918 OFFCURVE",
"599 918 CURVE SMOOTH",
"822 918 OFFCURVE",
"883 732 OFFCURVE",
"883 492 CURVE SMOOTH",
"883 252 OFFCURVE",
"826 65 OFFCURVE",
"603 65 CURVE SMOOTH",
"476 65 OFFCURVE",
"394 110 OFFCURVE",
"364 203 CURVE",
"338 89 LINE"
);
}
);
width = 1170;
}
);
leftKerningGroup = p;
rightKerningGroup = o;
unicode = 0070;
userData = {
com.typemytype.robofont.mark = (
0.967,
0.6,
1,
1
);
};
},
{
glyphname = thorn;
lastChange = "2018-05-23 18:31:45 +0000";
layers = (
{
components = (
{
name = b;
}
);
layerId = "DD6F9F34-BC40-4E8F-B1D3-DF3B42A9710F";
paths = (
{
closed = 1;
nodes = (
"262 -332 LINE",
"360 -302 LINE",
"360 130 LINE",
"174 65 LINE",
"174 -302 LINE"
);
},
{
closed = 1;
nodes = (
"548 -444 OFFCURVE",
"559 -418 OFFCURVE",
"559 -403 CURVE SMOOTH",
"559 -382 OFFCURVE",
"552 -369 OFFCURVE",
"526 -366 CURVE",
"447 -361 OFFCURVE",
"360 -346 OFFCURVE",
"360 -302 CURVE",
"174 -269 LINE",
"174 -355 OFFCURVE",
"101 -361 OFFCURVE",
"52 -366 CURVE SMOOTH",
"24 -369 OFFCURVE",
"16 -373 OFFCURVE",
"16 -403 CURVE SMOOTH",
"16 -418 OFFCURVE",
"28 -444 OFFCURVE",
"50 -444 CURVE SMOOTH",
"525 -444 LINE SMOOTH"
);
}
);
width = 1145;
}
);
leftKerningGroup = b;
rightKerningGroup = o;
unicode = 00FE;
userData = {
com.typemytype.robofont.mark = (
0.967,
0.6,
1,
1
);
};
},
{
glyphname = q;
lastChange = "2018-05-23 18:31:45 +0000";
layers = (
{
anchors = (
{
name = btm;
position = "{614, -200}";
},
{
name = top;
position = "{614, 2000}";
}
);
layerId = "DD6F9F34-BC40-4E8F-B1D3-DF3B42A9710F";
paths = (
{
closed = 1;
nodes = (
"790 928 LINE",
"790 141 LINE",
"800 108 LINE",
"790 -29 LINE",
"790 -302 LINE",
"888 -332 LINE",
"976 -302 LINE",
"976 778 LINE"
);
},
{
closed = 1;
nodes = (
"790 886 OFFCURVE",
"954 776 OFFCURVE",
"975 776 CURVE SMOOTH",
"976 776 OFFCURVE",
"976 777 OFFCURVE",
"976 778 CURVE",
"976 963 LINE SMOOTH",
"976 985 OFFCURVE",
"967 996 OFFCURVE",
"942 996 CURVE SMOOTH",
"834 996 LINE SMOOTH",
"797 996 OFFCURVE",
"790 988 OFFCURVE",
"790 914 CURVE SMOOTH"
);
},
{
closed = 1;
nodes = (
"1123 -444 OFFCURVE",
"1134 -418 OFFCURVE",
"1134 -403 CURVE SMOOTH",
"1134 -373 OFFCURVE",
"1126 -369 OFFCURVE",
"1098 -366 CURVE SMOOTH",
"1045 -361 OFFCURVE",
"976 -355 OFFCURVE",
"976 -269 CURVE",
"790 -302 LINE",
"790 -346 OFFCURVE",
"708 -361 OFFCURVE",
"634 -366 CURVE",
"608 -369 OFFCURVE",
"601 -382 OFFCURVE",
"601 -403 CURVE SMOOTH",
"601 -418 OFFCURVE",
"612 -444 OFFCURVE",
"635 -444 CURVE SMOOTH",
"1100 -444 LINE SMOOTH"
);
},
{
closed = 1;
nodes = (
"780 985 OFFCURVE",
"660 1014 OFFCURVE",
"530 1014 CURVE SMOOTH",
"214 1014 OFFCURVE",
"80 760 OFFCURVE",
"80 491 CURVE SMOOTH",
"80 221 OFFCURVE",
"193 -30 OFFCURVE",
"508 -30 CURVE SMOOTH",
"618 -30 OFFCURVE",
"758 36 OFFCURVE",
"820 133 CURVE",
"802 190 LINE",
"766 125 OFFCURVE",
"655 65 OFFCURVE",
"571 65 CURVE SMOOTH",
"348 65 OFFCURVE",
"287 251 OFFCURVE",
"287 491 CURVE SMOOTH",
"287 731 OFFCURVE",
"344 918 OFFCURVE",
"567 918 CURVE SMOOTH",
"694 918 OFFCURVE",
"776 873 OFFCURVE",
"806 780 CURVE",
"832 894 LINE"
);
}
);
width = 1146;
}
);
leftKerningGroup = o;
rightKerningGroup = q;
unicode = 0071;
userData = {
com.typemytype.robofont.mark = (
0.967,
0.6,
1,
1
);
};
},
{
glyphname = r;
lastChange = "2018-05-23 18:31:45 +0000";
layers = (
{
anchors = (
{
name = btm;
position = "{451, -200}";
},
{
name = top;
position = "{451, 2000}";
}
);
layerId = "DD6F9F34-BC40-4E8F-B1D3-DF3B42A9710F";
paths = (
{
closed = 1;
nodes = (
"315 112 LINE",
"413 175 LINE",
"413 797 LINE",
"403 814 LINE",
"403 957 LINE",
"227 778 LINE",
"227 142 LINE"
);
},
{
closed = 1;
nodes = (
"316 996 OFFCURVE",
"211 995 OFFCURVE",
"78 987 CURVE SMOOTH",
"63 986 OFFCURVE",
"54 959 OFFCURVE",
"54 943 CURVE SMOOTH",
"54 918 OFFCURVE",
"64 909 OFFCURVE",
"78 903 CURVE",
"132 889 OFFCURVE",
"227 902 OFFCURVE",
"227 778 CURVE SMOOTH",
"227 777 OFFCURVE",
"227 776 OFFCURVE",
"228 776 CURVE SMOOTH",
"249 776 OFFCURVE",
"403 929 OFFCURVE",
"403 957 CURVE",
"400 989 OFFCURVE",
"384 997 OFFCURVE",
"373 997 CURVE SMOOTH"
);
},
{
closed = 1;
nodes = (
"610 0 OFFCURVE",
"621 26 OFFCURVE",
"621 41 CURVE SMOOTH",
"621 71 OFFCURVE",
"613 75 OFFCURVE",
"585 78 CURVE",
"516 83 OFFCURVE",
"413 89 OFFCURVE",
"413 175 CURVE",
"227 142 LINE",
"227 98 OFFCURVE",
"165 83 OFFCURVE",
"111 78 CURVE SMOOTH",
"85 75 OFFCURVE",
"78 62 OFFCURVE",
"78 41 CURVE SMOOTH",
"78 26 OFFCURVE",
"89 0 OFFCURVE",
"112 0 CURVE SMOOTH",
"587 0 LINE SMOOTH"
);
},
{
closed = 1;
nodes = (
"461 830 OFFCURVE",
"547 910 OFFCURVE",
"629 910 CURVE SMOOTH",
"655 910 OFFCURVE",
"709 929 OFFCURVE",
"709 932 CURVE SMOOTH",
"709 938 OFFCURVE",
"683 942 OFFCURVE",
"657 942 CURVE SMOOTH",
"629 942 OFFCURVE",
"598 928 OFFCURVE",
"605 915 CURVE SMOOTH",
"649 835 OFFCURVE",
"662 789 OFFCURVE",
"687 775 CURVE",
"709 760 OFFCURVE",
"819 783 OFFCURVE",
"819 873 CURVE SMOOTH",
"819 942 OFFCURVE",
"791 1014 OFFCURVE",
"663 1014 CURVE SMOOTH",
"498 1014 OFFCURVE",
"406 845 OFFCURVE",
"393 815 CURVE",
"394 747 LINE",
"423 732 LINE"
);
}
);
width = 839;
}
);
leftKerningGroup = n;
rightKerningGroup = r;
unicode = 0072;
},
{
glyphname = s;
lastChange = "2018-05-23 18:31:45 +0000";
layers = (
{
anchors = (
{
name = btm;
position = "{463, -200}";
},
{
name = top;
position = "{450, 2000}";
}
);
layerId = "DD6F9F34-BC40-4E8F-B1D3-DF3B42A9710F";
paths = (
{
closed = 1;
nodes = (
"291 903 OFFCURVE",
"361 928 OFFCURVE",
"456 928 CURVE SMOOTH",
"620 928 OFFCURVE",
"667 802 OFFCURVE",
"701 722 CURVE SMOOTH",
"709 703 OFFCURVE",
"766 688 OFFCURVE",
"757 757 CURVE SMOOTH",
"747 836 OFFCURVE",
"755 975 OFFCURVE",
"755 994 CURVE SMOOTH",
"755 1033 OFFCURVE",
"709 1041 OFFCURVE",
"691 1008 CURVE SMOOTH",
"681 991 OFFCURVE",
"686 969 OFFCURVE",
"639 977 CURVE SMOOTH",
"612 982 OFFCURVE",
"563 1014 OFFCURVE",
"452 1014 CURVE SMOOTH",
"312 1014 OFFCURVE",
"129 953 OFFCURVE",
"129 759 CURVE SMOOTH",
"129 403 OFFCURVE",
"641 415 OFFCURVE",
"641 206 CURVE SMOOTH",
"641 92 OFFCURVE",
"541 55 OFFCURVE",
"462 55 CURVE SMOOTH",
"389 55 OFFCURVE",
"261 93 OFFCURVE",
"211 188 CURVE SMOOTH",
"156 282 OFFCURVE",
"156 328 OFFCURVE",
"148 357 CURVE SMOOTH",
"140 387 OFFCURVE",
"82 393 OFFCURVE",
"82 336 CURVE SMOOTH",
"82 279 OFFCURVE",
"96 86 OFFCURVE",
"96 54 CURVE SMOOTH",
"96 22 OFFCURVE",
"132 10 OFFCURVE",
"169 28 CURVE SMOOTH",
"190 38 OFFCURVE",
"211 33 OFFCURVE",
"252 20 CURVE SMOOTH",
"287 7 OFFCURVE",
"348 -30 OFFCURVE",
"475 -30 CURVE SMOOTH",
"663 -30 OFFCURVE",
"819 56 OFFCURVE",
"819 262 CURVE SMOOTH",
"819 560 OFFCURVE",
"291 612 OFFCURVE",
"291 805 CURVE SMOOTH"
);
}
);
width = 885;
}
);
leftKerningGroup = s;
rightKerningGroup = s;
unicode = 0073;
},
{
glyphname = germandbls;
lastChange = "2018-05-23 18:31:45 +0000";
layers = (
{
layerId = "DD6F9F34-BC40-4E8F-B1D3-DF3B42A9710F";
paths = (
{
closed = 1;
nodes = (
"257 102 LINE",
"355 165 LINE",
"355 1093 LINE",
"169 1061 LINE",
"169 152 LINE"
);
},
{
closed = 1;
nodes = (
"355 165 LINE",
"169 152 LINE",
"169 108 OFFCURVE",
"122 93 OFFCURVE",
"73 88 CURVE SMOOTH",
"47 85 OFFCURVE",
"40 72 OFFCURVE",
"40 51 CURVE SMOOTH",
"40 36 OFFCURVE",
"51 0 OFFCURVE",
"74 0 CURVE SMOOTH",
"355 0 LINE"
);
},
{
closed = 1;
nodes = (
"686 55 OFFCURVE",
"665 89 OFFCURVE",
"665 89 CURVE",
"611 222 LINE",
"607 239 OFFCURVE",
"586 244 OFFCURVE",
"560 244 CURVE SMOOTH",
"527 244 OFFCURVE",
"469 212 OFFCURVE",
"469 156 CURVE SMOOTH",
"469 66 OFFCURVE",
"547 -29 OFFCURVE",
"742 -29 CURVE SMOOTH",
"943 -29 OFFCURVE",
"1068 139 OFFCURVE",
"1068 344 CURVE SMOOTH",
"1068 660 OFFCURVE",
"706 823 OFFCURVE",
"706 928 CURVE SMOOTH",
"706 1098 OFFCURVE",
"957 1050 OFFCURVE",
"957 1296 CURVE SMOOTH",
"957 1483 OFFCURVE",
"794 1559 OFFCURVE",
"627 1559 CURVE SMOOTH",
"331 1559 OFFCURVE",
"169 1316 OFFCURVE",
"169 1061 CURVE",
"257 1030 LINE",
"355 1093 LINE",
"355 1453 OFFCURVE",
"504 1474 OFFCURVE",
"598 1474 CURVE SMOOTH",
"697 1474 OFFCURVE",
"766 1404 OFFCURVE",
"766 1288 CURVE SMOOTH",
"766 1064 OFFCURVE",
"545 1066 OFFCURVE",
"545 878 CURVE SMOOTH",
"545 636 OFFCURVE",
"879 564 OFFCURVE",
"879 294 CURVE SMOOTH",
"879 108 OFFCURVE",
"802 55 OFFCURVE",
"736 55 CURVE SMOOTH"
);
}
);
width = 1123;
}
);
leftKerningGroup = h;
rightKerningGroup = germandbls;
unicode = 00DF;
userData = {
com.typemytype.robofont.mark = (
0.967,
0.6,
1,
1
);
};
},
{
glyphname = t;
lastChange = "2018-05-23 18:31:45 +0000";
layers = (
{
anchors = (
{
name = btm;
position = "{393, -200}";
},
{
name = top;
position = "{289, 2132}";
}
);
layerId = "DD6F9F34-BC40-4E8F-B1D3-DF3B42A9710F";
paths = (
{
closed = 1;
nodes = (
"602 113 OFFCURVE",
"558 89 OFFCURVE",
"466 89 CURVE SMOOTH",
"415 89 OFFCURVE",
"355 126 OFFCURVE",
"355 296 CURVE SMOOTH",
"355 1267 LINE SMOOTH",
"355 1275 OFFCURVE",
"356 1291 OFFCURVE",
"339 1291 CURVE",
"316 1291 OFFCURVE",
"289 1295 OFFCURVE",
"283 1268 CURVE SMOOTH",
"235 1056 OFFCURVE",
"177 994 OFFCURVE",
"54 984 CURVE",
"169 945 LINE",
"169 223 LINE SMOOTH",
"169 20 OFFCURVE",
"273 -30 OFFCURVE",
"424 -30 CURVE SMOOTH",
"522 -30 OFFCURVE",
"654 41 OFFCURVE",
"689 78 CURVE",
"655 138 LINE"
);
},
{
closed = 1;
nodes = (
"664 913 OFFCURVE",
"674 935 OFFCURVE",
"674 960 CURVE SMOOTH",
"674 976 OFFCURVE",
"666 993 OFFCURVE",
"650 994 CURVE",
"156 994 LINE",
"54 984 LINE",
"40 978 OFFCURVE",
"30 966 OFFCURVE",
"30 941 CURVE SMOOTH",
"30 925 OFFCURVE",
"38 908 OFFCURVE",
"54 907 CURVE",
"650 907 LINE"
);
}
);
width = 707;
}
);
leftKerningGroup = t;
rightKerningGroup = t;
unicode = 0074;
userData = {
com.typemytype.robofont.mark = (
0.967,
0.6,
1,
1
);
};
},
{
glyphname = tbar;
lastChange = "2018-05-23 18:31:45 +0000";
layers = (
{
components = (
{
name = t;
}
);
layerId = "DD6F9F34-BC40-4E8F-B1D3-DF3B42A9710F";
paths = (
{
closed = 1;
nodes = (
"675 488 OFFCURVE",
"685 510 OFFCURVE",
"685 535 CURVE SMOOTH",
"685 551 OFFCURVE",
"677 568 OFFCURVE",
"661 569 CURVE",
"82 569 LINE",
"68 563 OFFCURVE",
"58 541 OFFCURVE",
"58 516 CURVE SMOOTH",
"58 500 OFFCURVE",
"66 483 OFFCURVE",
"82 482 CURVE",
"661 482 LINE"
);
}
);
width = 707;
}
);
leftKerningGroup = t;
rightKerningGroup = t;
unicode = 0167;
},
{
glyphname = tcaron;
lastChange = "2018-05-23 18:31:45 +0000";
layers = (
{
components = (
{
name = t;
}
);
layerId = "DD6F9F34-BC40-4E8F-B1D3-DF3B42A9710F";
paths = (
{
closed = 1;
nodes = (
"600 1444 OFFCURVE",
"509 1449 OFFCURVE",
"509 1570 CURVE SMOOTH",
"509 1648 OFFCURVE",
"557 1696 OFFCURVE",
"640 1696 CURVE SMOOTH",
"698 1696 OFFCURVE",
"758 1657 OFFCURVE",
"758 1511 CURVE SMOOTH",
"758 1329 OFFCURVE",
"651 1138 OFFCURVE",
"597 1091 CURVE",
"564 1068 OFFCURVE",
"488 1098 OFFCURVE",
"549 1162 CURVE",
"611 1262 OFFCURVE",
"610 1388 OFFCURVE",
"603 1432 CURVE"
);
}
);
width = 707;
}
);
leftKerningGroup = t;
rightKerningGroup = t;
unicode = 0165;
},
{
glyphname = u;
lastChange = "2018-05-23 18:31:45 +0000";
layers = (
{
anchors = (
{
name = btm;
position = "{597, -200}";
},
{
name = top;
position = "{561, 2000}";
}
);
layerId = "DD6F9F34-BC40-4E8F-B1D3-DF3B42A9710F";
paths = (
{
closed = 1;
nodes = (
"726 150 OFFCURVE",
"651 113 OFFCURVE",
"516 113 CURVE SMOOTH",
"398 113 OFFCURVE",
"387 212 OFFCURVE",
"387 261 CURVE SMOOTH",
"387 341 OFFCURVE",
"387 862 OFFCURVE",
"387 862 CURVE",
"299 874 LINE",
"199 819 LINE",
"199 819 OFFCURVE",
"199 346 OFFCURVE",
"199 270 CURVE SMOOTH",
"199 22 OFFCURVE",
"340 -27 OFFCURVE",
"485 -27 CURVE SMOOTH",
"618 -27 OFFCURVE",
"756 66 OFFCURVE",
"791 131 CURVE",
"806 182 LINE",
"791 220 LINE"
);
},
{
closed = 1;
nodes = (
"615 994 OFFCURVE",
"603 968 OFFCURVE",
"603 953 CURVE SMOOTH",
"603 923 OFFCURVE",
"611 919 OFFCURVE",
"639 916 CURVE SMOOTH",
"706 911 OFFCURVE",
"791 905 OFFCURVE",
"791 819 CURVE",
"977 862 LINE",
"977 958 LINE SMOOTH",
"977 979 OFFCURVE",
"968 994 OFFCURVE",
"940 994 CURVE SMOOTH",
"637 994 LINE SMOOTH"
);
},
{
closed = 1;
nodes = (
"65 994 OFFCURVE",
"53 968 OFFCURVE",
"53 953 CURVE SMOOTH",
"53 923 OFFCURVE",
"61 919 OFFCURVE",
"89 916 CURVE SMOOTH",
"138 911 OFFCURVE",
"199 905 OFFCURVE",
"199 819 CURVE",
"387 862 LINE",
"387 958 LINE SMOOTH",
"387 979 OFFCURVE",
"378 994 OFFCURVE",
"350 994 CURVE SMOOTH",
"87 994 LINE SMOOTH"
);
},
{
closed = 1;
nodes = (
"793 189 OFFCURVE",
"787 189 OFFCURVE",
"787 173 CURVE SMOOTH",
"786 151 OFFCURVE",
"807 -25 OFFCURVE",
"920 -25 CURVE SMOOTH",
"1028 -25 OFFCURVE",
"1094 22 OFFCURVE",
"1107 37 CURVE",
"1123 50 OFFCURVE",
"1104 105 OFFCURVE",
"1073 96 CURVE SMOOTH",
"1049 89 OFFCURVE",
"1034 88 OFFCURVE",
"1015 88 CURVE SMOOTH",
"993 88 OFFCURVE",
"977 140 OFFCURVE",
"977 210 CURVE",
"977 862 LINE",
"889 892 LINE",
"791 819 LINE",
"791 202 LINE"
);
}
);
width = 1178;
}
);
leftKerningGroup = u;
rightKerningGroup = u;
unicode = 0075;
},
{
glyphname = uogonek;
lastChange = "2018-05-23 18:31:45 +0000";
layers = (
{
components = (
{
name = u;
}
);
layerId = "DD6F9F34-BC40-4E8F-B1D3-DF3B42A9710F";
paths = (
{
closed = 1;
nodes = (
"705 -105 OFFCURVE",
"850 -5 OFFCURVE",
"883 16 CURVE",
"883 16 OFFCURVE",
"970 25 OFFCURVE",
"970 25 CURVE",
"935 -18 OFFCURVE",
"853 -116 OFFCURVE",
"853 -198 CURVE SMOOTH",
"853 -381 OFFCURVE",
"1052 -346 OFFCURVE",
"1100 -349 CURVE SMOOTH",
"1117 -350 OFFCURVE",
"1121 -367 OFFCURVE",
"1116 -393 CURVE SMOOTH",
"1113 -408 OFFCURVE",
"1101 -418 OFFCURVE",
"1086 -422 CURVE SMOOTH",
"1029 -438 OFFCURVE",
"976 -448 OFFCURVE",
"925 -448 CURVE SMOOTH",
"798 -448 OFFCURVE",
"705 -345 OFFCURVE",
"705 -238 CURVE SMOOTH"
);
}
);
width = 1178;
}
);
leftKerningGroup = u;
rightKerningGroup = u;
unicode = 0173;
},
{
glyphname = v;
lastChange = "2018-05-23 18:31:45 +0000";
layers = (
{
anchors = (
{
name = btm;
position = "{518, -200}";
},
{
name = top;
position = "{518, 2000}";
}
);
layerId = "DD6F9F34-BC40-4E8F-B1D3-DF3B42A9710F";
paths = (
{
closed = 1;
nodes = (
"227 892 LINE",
"139 829 LINE",
"476 -9 LINE",
"592 191 LINE",
"315 862 LINE"
);
},
{
closed = 1;
nodes = (
"-7 994 OFFCURVE",
"-19 968 OFFCURVE",
"-19 953 CURVE SMOOTH",
"-19 923 OFFCURVE",
"-11 919 OFFCURVE",
"17 916 CURVE SMOOTH",
"66 911 OFFCURVE",
"99 895 OFFCURVE",
"139 829 CURVE",
"315 862 LINE",
"315 906 OFFCURVE",
"372 911 OFFCURVE",
"421 916 CURVE SMOOTH",
"447 919 OFFCURVE",
"454 932 OFFCURVE",
"454 953 CURVE SMOOTH",
"454 968 OFFCURVE",
"443 994 OFFCURVE",
"420 994 CURVE",
"15 994 LINE"
);
},
{
closed = 1;
nodes = (
"476 -9 LINE",
"550 -9 LINE",
"897 829 LINE",
"829 892 LINE",
"811 862 LINE",
"540 181 LINE"
);
},
{
closed = 1;
nodes = (
"663 994 OFFCURVE",
"652 968 OFFCURVE",
"652 953 CURVE SMOOTH",
"652 932 OFFCURVE",
"659 919 OFFCURVE",
"685 916 CURVE SMOOTH",
"734 911 OFFCURVE",
"811 906 OFFCURVE",
"811 862 CURVE",
"897 829 LINE",
"937 895 OFFCURVE",
"970 911 OFFCURVE",
"1019 916 CURVE SMOOTH",
"1047 919 OFFCURVE",
"1055 923 OFFCURVE",
"1055 953 CURVE SMOOTH",
"1055 968 OFFCURVE",
"1043 994 OFFCURVE",
"1021 994 CURVE SMOOTH",
"686 994 LINE"
);
}
);
width = 1017;
}
);
leftKerningGroup = v;
rightKerningGroup = v;
unicode = 0076;
},
{
glyphname = w;
lastChange = "2018-05-23 18:31:45 +0000";
layers = (
{
anchors = (
{
name = btm;
position = "{761, -200}";
},
{
name = top;
position = "{761, 2000}";
}
);
layerId = "DD6F9F34-BC40-4E8F-B1D3-DF3B42A9710F";
paths = (
{
closed = 1;
nodes = (
"227 892 LINE",
"139 829 LINE",
"445 -9 LINE",
"561 191 LINE",
"315 862 LINE"
);
},
{
closed = 1;
nodes = (
"-7 994 OFFCURVE",
"-19 968 OFFCURVE",
"-19 953 CURVE SMOOTH",
"-19 923 OFFCURVE",
"-11 919 OFFCURVE",
"17 916 CURVE SMOOTH",
"66 911 OFFCURVE",
"99 895 OFFCURVE",
"139 829 CURVE",
"315 862 LINE",
"315 906 OFFCURVE",
"372 911 OFFCURVE",
"421 916 CURVE SMOOTH",
"447 919 OFFCURVE",
"454 932 OFFCURVE",
"454 953 CURVE SMOOTH",
"454 968 OFFCURVE",
"443 994 OFFCURVE",
"420 994 CURVE SMOOTH",
"15 994 LINE SMOOTH"
);
},
{
closed = 1;
nodes = (
"445 -9 LINE",
"519 -9 LINE",
"802 829 LINE",
"760 976 LINE",
"713 848 LINE",
"502 186 LINE"
);
},
{
closed = 1;
nodes = (
"760 976 LINE",
"719 829 LINE",
"1027 -9 LINE",
"1143 191 LINE",
"856 976 LINE"
);
},
{
closed = 1;
nodes = (
"1027 -9 LINE",
"1101 -9 LINE",
"1393 829 LINE",
"1325 892 LINE",
"1307 862 LINE",
"1076 174 LINE"
);
},
{
closed = 1;
nodes = (
"1159 994 OFFCURVE",
"1148 968 OFFCURVE",
"1148 953 CURVE SMOOTH",
"1148 932 OFFCURVE",
"1155 919 OFFCURVE",
"1181 916 CURVE SMOOTH",
"1230 911 OFFCURVE",
"1307 906 OFFCURVE",
"1307 862 CURVE",
"1393 829 LINE",
"1433 895 OFFCURVE",
"1456 911 OFFCURVE",
"1505 916 CURVE SMOOTH",
"1533 919 OFFCURVE",
"1541 923 OFFCURVE",
"1541 953 CURVE SMOOTH",
"1541 968 OFFCURVE",
"1529 994 OFFCURVE",
"1507 994 CURVE SMOOTH",
"1182 994 LINE SMOOTH"
);
}
);
width = 1510;
}
);
leftKerningGroup = w;
rightKerningGroup = w;
unicode = 0077;
},
{
glyphname = x;
lastChange = "2018-05-23 18:31:45 +0000";
layers = (
{
anchors = (
{
name = btm;
position = "{520, -200}";
},
{
name = top;
position = "{520, 2000}";
}
);
layerId = "DD6F9F34-BC40-4E8F-B1D3-DF3B42A9710F";
paths = (
{
closed = 1;
nodes = (
"660 132 LINE",
"788 110 LINE",
"858 165 LINE",
"395 862 LINE",
"267 889 LINE",
"197 829 LINE"
);
},
{
closed = 1;
nodes = (
"1017 0 OFFCURVE",
"1028 26 OFFCURVE",
"1028 41 CURVE SMOOTH",
"1028 70 OFFCURVE",
"1017 75 OFFCURVE",
"995 78 CURVE SMOOTH",
"945 85 OFFCURVE",
"908 105 OFFCURVE",
"858 165 CURVE",
"660 132 LINE",
"698 89 OFFCURVE",
"645 82 OFFCURVE",
"604 78 CURVE SMOOTH",
"577 75 OFFCURVE",
"573 62 OFFCURVE",
"573 41 CURVE SMOOTH",
"573 26 OFFCURVE",
"584 0 OFFCURVE",
"607 0 CURVE SMOOTH",
"994 0 LINE SMOOTH"
);
},
{
closed = 1;
nodes = (
"38 994 OFFCURVE",
"27 968 OFFCURVE",
"27 953 CURVE SMOOTH",
"27 924 OFFCURVE",
"38 919 OFFCURVE",
"60 916 CURVE SMOOTH",
"110 909 OFFCURVE",
"147 889 OFFCURVE",
"197 829 CURVE",
"395 862 LINE",
"357 915 OFFCURVE",
"408 912 OFFCURVE",
"451 916 CURVE SMOOTH",
"478 919 OFFCURVE",
"482 932 OFFCURVE",
"482 953 CURVE SMOOTH",
"482 968 OFFCURVE",
"471 994 OFFCURVE",
"448 994 CURVE SMOOTH",
"61 994 LINE SMOOTH"
);
},
{
closed = 1;
nodes = (
"813 829 LINE",
"783 884 LINE",
"709 848 LINE",
"192 165 LINE",
"180 89 LINE",
"296 146 LINE"
);
},
{
closed = 1;
nodes = (
"613 994 OFFCURVE",
"602 968 OFFCURVE",
"602 953 CURVE SMOOTH",
"602 932 OFFCURVE",
"607 919 OFFCURVE",
"633 916 CURVE SMOOTH",
"675 912 OFFCURVE",
"746 896 OFFCURVE",
"709 848 CURVE",
"813 829 LINE",
"851 871 OFFCURVE",
"892 916 OFFCURVE",
"960 916 CURVE SMOOTH",
"982 916 OFFCURVE",
"993 929 OFFCURVE",
"993 953 CURVE SMOOTH",
"993 968 OFFCURVE",
"982 994 OFFCURVE",
"959 994 CURVE SMOOTH",
"636 994 LINE SMOOTH"
);
},
{
closed = 1;
nodes = (
"392 0 OFFCURVE",
"403 26 OFFCURVE",
"403 41 CURVE SMOOTH",
"403 62 OFFCURVE",
"398 75 OFFCURVE",
"372 78 CURVE SMOOTH",
"330 82 OFFCURVE",
"266 94 OFFCURVE",
"296 146 CURVE",
"192 165 LINE",
"157 128 OFFCURVE",
"113 78 OFFCURVE",
"45 78 CURVE SMOOTH",
"23 78 OFFCURVE",
"12 65 OFFCURVE",
"12 41 CURVE SMOOTH",
"12 26 OFFCURVE",
"23 0 OFFCURVE",
"46 0 CURVE SMOOTH",
"369 0 LINE SMOOTH"
);
}
);
width = 1034;
}
);
leftKerningGroup = x;
rightKerningGroup = x;
unicode = 0078;
},
{
glyphname = y;
lastChange = "2018-05-23 18:31:45 +0000";
layers = (
{
anchors = (
{
name = btm;
position = "{518, -200}";
},
{
name = top;
position = "{518, 2000}";
}
);
layerId = "DD6F9F34-BC40-4E8F-B1D3-DF3B42A9710F";
paths = (
{
closed = 1;
nodes = (
"236 892 LINE",
"148 829 LINE",
"465 -39 LINE",
"561 166 LINE",
"331 862 LINE"
);
},
{
closed = 1;
nodes = (
"1 994 OFFCURVE",
"-10 968 OFFCURVE",
"-10 953 CURVE SMOOTH",
"-10 923 OFFCURVE",
"-2 919 OFFCURVE",
"26 916 CURVE SMOOTH",
"75 911 OFFCURVE",
"108 895 OFFCURVE",
"148 829 CURVE",
"331 862 LINE",
"331 906 OFFCURVE",
"388 911 OFFCURVE",
"437 916 CURVE SMOOTH",
"463 919 OFFCURVE",
"470 932 OFFCURVE",
"470 953 CURVE SMOOTH",
"470 968 OFFCURVE",
"459 994 OFFCURVE",
"436 994 CURVE SMOOTH",
"23 994 LINE SMOOTH"
);
},
{
closed = 1;
nodes = (
"642 994 OFFCURVE",
"631 968 OFFCURVE",
"631 953 CURVE SMOOTH",
"631 932 OFFCURVE",
"638 919 OFFCURVE",
"664 916 CURVE SMOOTH",
"713 911 OFFCURVE",
"780 906 OFFCURVE",
"780 862 CURVE",
"886 829 LINE",
"926 895 OFFCURVE",
"949 911 OFFCURVE",
"998 916 CURVE SMOOTH",
"1026 919 OFFCURVE",
"1034 923 OFFCURVE",
"1034 953 CURVE SMOOTH",
"1034 968 OFFCURVE",
"1022 994 OFFCURVE",
"1000 994 CURVE SMOOTH",
"665 994 LINE SMOOTH"
);
},
{
closed = 1;
nodes = (
"373 -297 OFFCURVE",
"300 -307 OFFCURVE",
"240 -337 CURVE SMOOTH",
"217 -349 OFFCURVE",
"160 -346 OFFCURVE",
"160 -349 CURVE SMOOTH",
"160 -355 OFFCURVE",
"190 -379 OFFCURVE",
"216 -379 CURVE SMOOTH",
"244 -379 OFFCURVE",
"285 -365 OFFCURVE",
"278 -352 CURVE SMOOTH",
"234 -272 OFFCURVE",
"191 -192 OFFCURVE",
"165 -182 CURVE SMOOTH",
"129 -168 OFFCURVE",
"54 -205 OFFCURVE",
"54 -310 CURVE SMOOTH",
"54 -379 OFFCURVE",
"102 -449 OFFCURVE",
"230 -449 CURVE SMOOTH",
"400 -449 OFFCURVE",
"514 -165 OFFCURVE",
"573 -9 CURVE SMOOTH",
"886 829 LINE",
"798 892 LINE",
"780 862 LINE",
"543 178 LINE",
"482 34 LINE"
);
}
);
width = 1008;
}
);
leftKerningGroup = y;
rightKerningGroup = y;
unicode = 0079;
},
{
glyphname = z;
lastChange = "2018-05-23 18:31:45 +0000";
layers = (
{
anchors = (
{
name = btm;
position = "{473, -200}";
},
{
name = top;
position = "{473, 2000}";
}
);
layerId = "DD6F9F34-BC40-4E8F-B1D3-DF3B42A9710F";
paths = (
{
closed = 1;
nodes = (
"666 911 LINE",
"328 911 LINE",
"240 911 OFFCURVE",
"195 703 OFFCURVE",
"190 654 CURVE SMOOTH",
"187 628 OFFCURVE",
"174 621 OFFCURVE",
"153 621 CURVE SMOOTH",
"138 621 OFFCURVE",
"122 632 OFFCURVE",
"122 655 CURVE SMOOTH",
"122 953 LINE",
"122 977 OFFCURVE",
"149 993 OFFCURVE",
"169 994 CURVE",
"827 994 LINE SMOOTH",
"843 994 OFFCURVE",
"861 986 OFFCURVE",
"861 967 CURVE SMOOTH",
"861 943 LINE SMOOTH",
"861 932 OFFCURVE",
"857 925 OFFCURVE",
"851 915 CURVE SMOOTH",
"269 16 LINE",
"250 83 LINE",
"627 83 LINE",
"715 83 OFFCURVE",
"760 291 OFFCURVE",
"765 340 CURVE SMOOTH",
"768 366 OFFCURVE",
"781 373 OFFCURVE",
"802 373 CURVE SMOOTH",
"817 373 OFFCURVE",
"833 362 OFFCURVE",
"833 339 CURVE SMOOTH",
"833 41 LINE",
"833 15 OFFCURVE",
"806 1 OFFCURVE",
"786 0 CURVE",
"109 0 LINE SMOOTH",
"93 0 OFFCURVE",
"85 5 OFFCURVE",
"85 24 CURVE",
"85 40 LINE SMOOTH",
"85 53 OFFCURVE",
"91 69 OFFCURVE",
"127 123 CURVE SMOOTH",
"650 942 LINE"
);
}
);
width = 909;
}
);
leftKerningGroup = z;
rightKerningGroup = z;
unicode = 007A;
},
{
glyphname = ordfeminine;
lastChange = "2018-05-23 18:31:45 +0000";
layers = (
{
layerId = "DD6F9F34-BC40-4E8F-B1D3-DF3B42A9710F";
paths = (
{
closed = 1;
nodes = (
"312 1069 OFFCURVE",
"174 979 OFFCURVE",
"177 836 CURVE SMOOTH",
"180 687 OFFCURVE",
"315 614 OFFCURVE",
"400 614 CURVE SMOOTH",
"505 614 OFFCURVE",
"633 663 OFFCURVE",
"693 761 CURVE SMOOTH",
"706 782 OFFCURVE",
"704 806 OFFCURVE",
"704 816 CURVE SMOOTH",
"704 821 OFFCURVE",
"701 824 OFFCURVE",
"696 824 CURVE SMOOTH",
"687 824 OFFCURVE",
"667 798 OFFCURVE",
"667 798 CURVE",
"667 798 OFFCURVE",
"586 710 OFFCURVE",
"447 710 CURVE SMOOTH",
"380 710 OFFCURVE",
"352 795 OFFCURVE",
"352 853 CURVE SMOOTH",
"352 925 OFFCURVE",
"354 977 OFFCURVE",
"445 1027 CURVE SMOOTH",
"497 1055 OFFCURVE",
"618 1071 OFFCURVE",
"650 1077 CURVE",
"667 1141 LINE",
"649 1155 LINE",
"601 1146 OFFCURVE",
"519 1143 OFFCURVE",
"418 1107 CURVE SMOOTH"
);
},
{
closed = 1;
nodes = (
"806 1359 OFFCURVE",
"680 1448 OFFCURVE",
"513 1448 CURVE SMOOTH",
"448 1448 OFFCURVE",
"299 1425 OFFCURVE",
"232 1353 CURVE SMOOTH",
"148 1264 OFFCURVE",
"201 1180 OFFCURVE",
"242 1180 CURVE SMOOTH",
"295 1180 OFFCURVE",
"331 1216 OFFCURVE",
"346 1249 CURVE SMOOTH",
"362 1282 OFFCURVE",
"364 1319 OFFCURVE",
"383 1341 CURVE",
"383 1341 OFFCURVE",
"445 1377 OFFCURVE",
"488 1377 CURVE SMOOTH",
"589 1377 OFFCURVE",
"645 1340 OFFCURVE",
"645 1252 CURVE SMOOTH",
"645 1202 OFFCURVE",
"644 917 OFFCURVE",
"644 755 CURVE",
"646 745 OFFCURVE",
"659 727 OFFCURVE",
"658 715 CURVE SMOOTH",
"658 698 OFFCURVE",
"650 614 OFFCURVE",
"735 614 CURVE SMOOTH",
"831 614 OFFCURVE",
"909 649 OFFCURVE",
"921 660 CURVE",
"933 670 OFFCURVE",
"919 712 OFFCURVE",
"895 705 CURVE SMOOTH",
"877 700 OFFCURVE",
"866 699 OFFCURVE",
"851 699 CURVE SMOOTH",
"819 699 OFFCURVE",
"806 738 OFFCURVE",
"806 791 CURVE SMOOTH",
"806 1239 LINE SMOOTH"
);
}
);
width = 1024;
}
);
leftKerningGroup = ordfeminine;
rightKerningGroup = ordfeminine;
unicode = 00AA;
},
{
glyphname = ordmasculine;
lastChange = "2018-05-23 18:31:45 +0000";
layers = (
{
layerId = "DD6F9F34-BC40-4E8F-B1D3-DF3B42A9710F";
paths = (
{
closed = 1;
nodes = (
"122 800 OFFCURVE",
"264 612 OFFCURVE",
"511 612 CURVE SMOOTH",
"757 612 OFFCURVE",
"902 800 OFFCURVE",
"902 1031 CURVE SMOOTH",
"902 1263 OFFCURVE",
"762 1450 OFFCURVE",
"516 1450 CURVE SMOOTH",
"270 1450 OFFCURVE",
"122 1263 OFFCURVE",
"122 1031 CURVE SMOOTH"
);
},
{
closed = 1;
nodes = (
"304 1242 OFFCURVE",
"361 1363 OFFCURVE",
"510 1363 CURVE SMOOTH",
"657 1363 OFFCURVE",
"718 1242 OFFCURVE",
"718 1031 CURVE SMOOTH",
"718 820 OFFCURVE",
"661 698 OFFCURVE",
"512 698 CURVE SMOOTH",
"364 698 OFFCURVE",
"304 820 OFFCURVE",
"304 1031 CURVE SMOOTH"
);
}
);
width = 1024;
}
);
leftKerningGroup = ordmasculine;
rightKerningGroup = ordmasculine;
unicode = 00BA;
userData = {
com.typemytype.robofont.guides = (
{
angle = 0;
isGlobal = 0;
magnetic = 5;
x = 0;
y = 615;
}
);
};
},
{
glyphname = uni03A9;
layers = (
{
layerId = "DD6F9F34-BC40-4E8F-B1D3-DF3B42A9710F";
paths = (
{
closed = 1;
nodes = (
"1039 1336 OFFCURVE",
"1241 1227 OFFCURVE",
"1241 833 CURVE SMOOTH",
"1241 441 OFFCURVE",
"1046 247 OFFCURVE",
"841 129 CURVE",
"871 0 LINE",
"905 19 OFFCURVE",
"943 81 OFFCURVE",
"980 100 CURVE SMOOTH",
"1127 176 OFFCURVE",
"1447 476 OFFCURVE",
"1447 834 CURVE SMOOTH",
"1447 1205 OFFCURVE",
"1182 1448 OFFCURVE",
"798 1448 CURVE SMOOTH",
"413 1448 OFFCURVE",
"148 1205 OFFCURVE",
"148 834 CURVE SMOOTH",
"148 476 OFFCURVE",
"468 176 OFFCURVE",
"615 100 CURVE SMOOTH",
"652 81 OFFCURVE",
"690 19 OFFCURVE",
"724 0 CURVE",
"754 129 LINE",
"549 247 OFFCURVE",
"354 441 OFFCURVE",
"354 833 CURVE SMOOTH",
"354 1227 OFFCURVE",
"556 1336 OFFCURVE",
"796 1336 CURVE SMOOTH",
"799 1336 LINE"
);
},
{
closed = 1;
nodes = (
"871 0 LINE",
"1446 0 LINE",
"1499 371 LINE SMOOTH",
"1502 394 OFFCURVE",
"1471 405 OFFCURVE",
"1456 405 CURVE SMOOTH",
"1435 405 OFFCURVE",
"1419 396 OFFCURVE",
"1411 372 CURVE SMOOTH",
"1361 263 OFFCURVE",
"1300 170 OFFCURVE",
"1207 170 CURVE SMOOTH",
"934 170 LINE"
);
},
{
closed = 1;
nodes = (
"295 170 OFFCURVE",
"234 263 OFFCURVE",
"184 372 CURVE",
"176 396 OFFCURVE",
"160 405 OFFCURVE",
"139 405 CURVE SMOOTH",
"124 405 OFFCURVE",
"93 394 OFFCURVE",
"96 371 CURVE SMOOTH",
"149 0 LINE",
"724 0 LINE",
"661 170 LINE",
"388 170 LINE"
);
}
);
width = 1595;
}
);
unicode = 03A9;
},
{
glyphname = mu;
lastChange = "2018-05-23 18:31:45 +0000";
layers = (
{
layerId = "DD6F9F34-BC40-4E8F-B1D3-DF3B42A9710F";
paths = (
{
closed = 1;
nodes = (
"740 190 OFFCURVE",
"678 113 OFFCURVE",
"578 113 CURVE SMOOTH",
"397 113 OFFCURVE",
"379 252 OFFCURVE",
"379 301 CURVE SMOOTH",
"379 381 OFFCURVE",
"379 864 OFFCURVE",
"379 864 CURVE",
"291 886 LINE",
"191 831 LINE",
"191 831 OFFCURVE",
"191 346 OFFCURVE",
"191 270 CURVE SMOOTH",
"191 203 OFFCURVE",
"241 191 OFFCURVE",
"259 150 CURVE SMOOTH",
"321 39 OFFCURVE",
"406 -27 OFFCURVE",
"547 -27 CURVE SMOOTH",
"652 -27 OFFCURVE",
"763 66 OFFCURVE",
"791 131 CURVE",
"806 182 LINE",
"791 260 LINE"
);
},
{
closed = 1;
nodes = (
"889 894 LINE",
"791 831 LINE",
"791 39 LINE",
"977 208 LINE",
"977 864 LINE"
);
},
{
closed = 1;
nodes = (
"878 0 OFFCURVE",
"993 1 OFFCURVE",
"1126 9 CURVE SMOOTH",
"1142 10 OFFCURVE",
"1150 27 OFFCURVE",
"1150 43 CURVE SMOOTH",
"1150 68 OFFCURVE",
"1140 77 OFFCURVE",
"1126 83 CURVE",
"1072 97 OFFCURVE",
"977 84 OFFCURVE",
"977 208 CURVE SMOOTH",
"977 209 OFFCURVE",
"977 210 OFFCURVE",
"976 210 CURVE SMOOTH",
"955 210 OFFCURVE",
"791 67 OFFCURVE",
"791 39 CURVE",
"794 7 OFFCURVE",
"810 -1 OFFCURVE",
"821 -1 CURVE SMOOTH"
);
},
{
closed = 1;
nodes = (
"655 996 OFFCURVE",
"643 980 OFFCURVE",
"643 965 CURVE SMOOTH",
"643 935 OFFCURVE",
"651 931 OFFCURVE",
"679 928 CURVE SMOOTH",
"728 923 OFFCURVE",
"791 917 OFFCURVE",
"791 831 CURVE",
"977 864 LINE",
"977 960 LINE SMOOTH",
"977 981 OFFCURVE",
"968 996 OFFCURVE",
"940 996 CURVE SMOOTH",
"677 996 LINE SMOOTH"
);
},
{
closed = 1;
nodes = (
"57 996 OFFCURVE",
"45 980 OFFCURVE",
"45 965 CURVE SMOOTH",
"45 935 OFFCURVE",
"53 931 OFFCURVE",
"81 928 CURVE SMOOTH",
"130 923 OFFCURVE",
"191 917 OFFCURVE",
"191 831 CURVE",
"379 864 LINE",
"379 960 LINE SMOOTH",
"379 981 OFFCURVE",
"370 996 OFFCURVE",
"342 996 CURVE SMOOTH",
"79 996 LINE SMOOTH"
);
},
{
closed = 1;
nodes = (
"191 65 OFFCURVE",
"126 -240 OFFCURVE",
"126 -307 CURVE SMOOTH",
"126 -385 OFFCURVE",
"163 -446 OFFCURVE",
"237 -446 CURVE SMOOTH",
"310 -446 OFFCURVE",
"348 -385 OFFCURVE",
"348 -307 CURVE SMOOTH",
"348 -240 OFFCURVE",
"267 65 OFFCURVE",
"267 358 CURVE",
"191 358 LINE"
);
}
);
width = 1186;
}
);
leftKerningGroup = p;
rightKerningGroup = u;
unicode = 03BC;
},
{
glyphname = pi;
lastChange = "2018-05-23 18:31:45 +0000";
layers = (
{
layerId = "DD6F9F34-BC40-4E8F-B1D3-DF3B42A9710F";
paths = (
{
closed = 1;
nodes = (
"106 793 OFFCURVE",
"167 835 OFFCURVE",
"257 834 CURVE",
"1104 833 LINE",
"1125 995 LINE",
"302 995 LINE SMOOTH",
"171 995 OFFCURVE",
"83 958 OFFCURVE",
"26 853 CURVE",
"9 819 OFFCURVE",
"8 777 OFFCURVE",
"12 757 CURVE",
"84 744 LINE"
);
},
{
closed = 1;
nodes = (
"753 249 LINE SMOOTH",
"739 70 OFFCURVE",
"768 -29 OFFCURVE",
"940 -29 CURVE SMOOTH",
"1078 -29 OFFCURVE",
"1102 0 OFFCURVE",
"1154 41 CURVE",
"1122 134 LINE",
"1077 108 OFFCURVE",
"1041 98 OFFCURVE",
"988 108 CURVE SMOOTH",
"932 116 OFFCURVE",
"908 155 OFFCURVE",
"913 241 CURVE SMOOTH",
"931 938 LINE",
"786 936 LINE"
);
},
{
closed = 1;
nodes = (
"157 160 OFFCURVE",
"9 89 OFFCURVE",
"41 22 CURVE SMOOTH",
"55 -7 OFFCURVE",
"90 -29 OFFCURVE",
"142 -29 CURVE SMOOTH",
"175 -29 OFFCURVE",
"209 -17 OFFCURVE",
"234 -8 CURVE SMOOTH",
"391 50 OFFCURVE",
"435 201 OFFCURVE",
"451 428 CURVE SMOOTH",
"486 936 LINE",
"343 936 LINE",
"311 641 OFFCURVE",
"292 317 OFFCURVE",
"219 151 CURVE",
"279 226 LINE"
);
}
);
width = 1231;
}
);
leftKerningGroup = pi;
rightKerningGroup = pi;
unicode = 03C0;
},
{
glyphname = zero;
lastChange = "2018-05-23 18:31:45 +0000";
layers = (
{
layerId = "DD6F9F34-BC40-4E8F-B1D3-DF3B42A9710F";
paths = (
{
closed = 1;
nodes = (
"143 206 OFFCURVE",
"320 -29 OFFCURVE",
"626 -29 CURVE SMOOTH",
"932 -29 OFFCURVE",
"1113 206 OFFCURVE",
"1113 582 CURVE SMOOTH",
"1113 965 OFFCURVE",
"939 1205 OFFCURVE",
"633 1205 CURVE SMOOTH",
"327 1205 OFFCURVE",
"143 965 OFFCURVE",
"143 582 CURVE SMOOTH"
);
},
{
closed = 1;
nodes = (
"358 936 OFFCURVE",
"415 1110 OFFCURVE",
"625 1110 CURVE SMOOTH",
"834 1110 OFFCURVE",
"896 936 OFFCURVE",
"896 582 CURVE SMOOTH",
"896 234 OFFCURVE",
"838 66 OFFCURVE",
"629 66 CURVE SMOOTH",
"419 66 OFFCURVE",
"358 234 OFFCURVE",
"358 582 CURVE SMOOTH"
);
}
);
width = 1257;
}
);
leftKerningGroup = zero;
rightKerningGroup = zero;
unicode = 0030;
},
{
glyphname = one;
lastChange = "2018-05-23 18:31:45 +0000";
layers = (
{
layerId = "DD6F9F34-BC40-4E8F-B1D3-DF3B42A9710F";
paths = (
{
closed = 1;
nodes = (
"238 984 OFFCURVE",
"323 985 OFFCURVE",
"380 994 CURVE",
"379 142 LINE SMOOTH",
"379 98 OFFCURVE",
"308 83 OFFCURVE",
"244 78 CURVE",
"218 75 OFFCURVE",
"211 62 OFFCURVE",
"211 41 CURVE SMOOTH",
"211 26 OFFCURVE",
"222 0 OFFCURVE",
"245 0 CURVE SMOOTH",
"720 0 LINE SMOOTH",
"743 0 OFFCURVE",
"754 26 OFFCURVE",
"754 41 CURVE SMOOTH",
"754 71 OFFCURVE",
"746 75 OFFCURVE",
"718 78 CURVE SMOOTH",
"657 83 OFFCURVE",
"576 89 OFFCURVE",
"576 175 CURVE SMOOTH",
"577 1189 LINE",
"508 1189 LINE",
"416 1116 OFFCURVE",
"256 1077 OFFCURVE",
"195 1072 CURVE SMOOTH",
"167 1069 OFFCURVE",
"159 1045 OFFCURVE",
"159 1015 CURVE SMOOTH",
"159 1000 OFFCURVE",
"170 984 OFFCURVE",
"193 984 CURVE SMOOTH"
);
}
);
width = 880;
}
);
leftKerningGroup = one;
rightKerningGroup = one;
unicode = 0031;
},
{
glyphname = two;
lastChange = "2018-05-23 18:31:45 +0000";
layers = (
{
layerId = "DD6F9F34-BC40-4E8F-B1D3-DF3B42A9710F";
paths = (
{
closed = 1;
nodes = (
"764 1109 OFFCURVE",
"812 951 OFFCURVE",
"812 850 CURVE SMOOTH",
"812 587 OFFCURVE",
"493 285 OFFCURVE",
"181 75 CURVE",
"180 0 LINE",
"1047 0 LINE",
"1057 165 LINE",
"434 165 LINE",
"393 117 LINE",
"627 266 OFFCURVE",
"1021 571 OFFCURVE",
"1021 851 CURVE SMOOTH",
"1021 1079 OFFCURVE",
"855 1205 OFFCURVE",
"589 1205 CURVE SMOOTH",
"383 1205 OFFCURVE",
"220 1080 OFFCURVE",
"180 960 CURVE SMOOTH",
"129 806 OFFCURVE",
"247 774 OFFCURVE",
"292 774 CURVE SMOOTH",
"332 774 OFFCURVE",
"352 808 OFFCURVE",
"359 849 CURVE SMOOTH",
"366 889 OFFCURVE",
"375 950 OFFCURVE",
"386 1002 CURVE",
"413 1045 OFFCURVE",
"425 1109 OFFCURVE",
"574 1109 CURVE SMOOTH"
);
}
);
width = 1144;
}
);
leftKerningGroup = two;
rightKerningGroup = two;
unicode = 0032;
},
{
glyphname = three;
lastChange = "2018-05-23 18:31:45 +0000";
layers = (
{
layerId = "DD6F9F34-BC40-4E8F-B1D3-DF3B42A9710F";
paths = (
{
closed = 1;
nodes = (
"425 505 LINE",
"425 391 LINE",
"488 391 LINE",
"591 391 OFFCURVE",
"849 325 OFFCURVE",
"849 46 CURVE SMOOTH",
"849 -179 OFFCURVE",
"721 -299 OFFCURVE",
"531 -299 CURVE SMOOTH",
"273 -299 OFFCURVE",
"271 -91 OFFCURVE",
"271 -91 CURVE SMOOTH",
"245 -91 OFFCURVE",
"213 -114 OFFCURVE",
"213 -117 CURVE SMOOTH",
"213 -123 OFFCURVE",
"268 -239 OFFCURVE",
"275 -214 CURVE SMOOTH",
"284 -181 OFFCURVE",
"327 -42 OFFCURVE",
"334 -13 CURVE SMOOTH",
"349 51 OFFCURVE",
"285 90 OFFCURVE",
"242 90 CURVE SMOOTH",
"180 90 OFFCURVE",
"113 22 OFFCURVE",
"113 -68 CURVE SMOOTH",
"113 -303 OFFCURVE",
"370 -394 OFFCURVE",
"546 -394 CURVE SMOOTH",
"840 -394 OFFCURVE",
"1046 -211 OFFCURVE",
"1046 63 CURVE SMOOTH",
"1046 363 OFFCURVE",
"834 454 OFFCURVE",
"654 456 CURVE",
"785 486 OFFCURVE",
"983 634 OFFCURVE",
"983 840 CURVE SMOOTH",
"983 1068 OFFCURVE",
"821 1205 OFFCURVE",
"569 1205 CURVE SMOOTH",
"363 1205 OFFCURVE",
"197 1080 OFFCURVE",
"157 960 CURVE SMOOTH",
"106 806 OFFCURVE",
"227 774 OFFCURVE",
"272 774 CURVE SMOOTH",
"312 774 OFFCURVE",
"332 808 OFFCURVE",
"339 849 CURVE SMOOTH",
"346 889 OFFCURVE",
"355 950 OFFCURVE",
"366 1002 CURVE",
"393 1045 OFFCURVE",
"405 1109 OFFCURVE",
"554 1109 CURVE SMOOTH",
"744 1109 OFFCURVE",
"774 922 OFFCURVE",
"774 821 CURVE SMOOTH",
"774 606 OFFCURVE",
"589 506 OFFCURVE",
"488 505 CURVE"
);
}
);
width = 1130;
}
);
leftKerningGroup = three;
rightKerningGroup = three;
unicode = 0033;
},
{
glyphname = four;
lastChange = "2018-05-23 18:31:45 +0000";
layers = (
{
layerId = "DD6F9F34-BC40-4E8F-B1D3-DF3B42A9710F";
paths = (
{
closed = 1;
nodes = (
"854 1209 OFFCURVE",
"821 1298 OFFCURVE",
"767 1319 CURVE SMOOTH",
"709 1341 OFFCURVE",
"674 1310 OFFCURVE",
"667 1294 CURVE",
"44 87 LINE",
"74 0 LINE",
"1097 0 LINE",
"1107 164 LINE",
"225 164 LINE",
"839 1186 LINE"
);
},
{
closed = 1;
nodes = (
"875 -384 LINE",
"875 556 LINE",
"712 546 LINE",
"712 -384 LINE"
);
}
);
width = 1157;
}
);
leftKerningGroup = four;
rightKerningGroup = four;
unicode = 0034;
},
{
glyphname = five;
lastChange = "2018-05-23 18:31:45 +0000";
layers = (
{
layerId = "DD6F9F34-BC40-4E8F-B1D3-DF3B42A9710F";
paths = (
{
closed = 1;
nodes = (
"307 -285 OFFCURVE",
"283 -230 OFFCURVE",
"283 -230 CURVE",
"269 -197 OFFCURVE",
"245 -100 OFFCURVE",
"234 -52 CURVE SMOOTH",
"225 -4 OFFCURVE",
"208 23 OFFCURVE",
"156 23 CURVE SMOOTH",
"100 23 OFFCURVE",
"27 -34 OFFCURVE",
"83 -188 CURVE SMOOTH",
"126 -308 OFFCURVE",
"304 -392 OFFCURVE",
"450 -392 CURVE SMOOTH",
"749 -392 OFFCURVE",
"1006 -169 OFFCURVE",
"1009 180 CURVE SMOOTH",
"1012 444 OFFCURVE",
"850 627 OFFCURVE",
"564 627 CURVE SMOOTH",
"485 627 OFFCURVE",
"375 602 OFFCURVE",
"304 564 CURVE",
"360 1020 LINE",
"952 1020 LINE",
"962 1189 LINE",
"244 1189 LINE",
"163 413 LINE",
"231 380 LINE",
"293 477 OFFCURVE",
"428 516 OFFCURVE",
"532 516 CURVE SMOOTH",
"678 516 OFFCURVE",
"793 402 OFFCURVE",
"789 158 CURVE SMOOTH",
"786 -69 OFFCURVE",
"678 -316 OFFCURVE",
"451 -297 CURVE SMOOTH"
);
}
);
width = 1082;
}
);
leftKerningGroup = five;
rightKerningGroup = five;
unicode = 0035;
},
{
glyphname = six;
lastChange = "2018-05-23 18:31:45 +0000";
layers = (
{
layerId = "DD6F9F34-BC40-4E8F-B1D3-DF3B42A9710F";
paths = (
{
closed = 1;
nodes = (
"370 729 OFFCURVE",
"484 815 OFFCURVE",
"624 815 CURVE SMOOTH",
"788 815 OFFCURVE",
"860 676 OFFCURVE",
"860 472 CURVE SMOOTH",
"860 222 OFFCURVE",
"802 66 OFFCURVE",
"593 66 CURVE SMOOTH",
"383 66 OFFCURVE",
"322 222 OFFCURVE",
"322 472 CURVE SMOOTH",
"322 733 OFFCURVE",
"351 1294 OFFCURVE",
"950 1437 CURVE",
"949 1529 LINE",
"340 1437 OFFCURVE",
"110 915 OFFCURVE",
"110 522 CURVE SMOOTH",
"110 245 OFFCURVE",
"291 -29 OFFCURVE",
"597 -29 CURVE SMOOTH",
"903 -29 OFFCURVE",
"1077 195 OFFCURVE",
"1077 472 CURVE SMOOTH",
"1077 729 OFFCURVE",
"953 933 OFFCURVE",
"650 933 CURVE SMOOTH",
"423 933 OFFCURVE",
"347 786 OFFCURVE",
"287 726 CURVE",
"315 649 LINE"
);
}
);
width = 1159;
}
);
leftKerningGroup = six;
rightKerningGroup = six;
unicode = 0036;
userData = {
com.typemytype.robofont.mark = (
0.967,
0.6,
1,
1
);
};
},
{
glyphname = seven;
lastChange = "2018-05-23 18:31:45 +0000";
layers = (
{
layerId = "DD6F9F34-BC40-4E8F-B1D3-DF3B42A9710F";
paths = (
{
closed = 1;
nodes = (
"474 -383 LINE",
"1026 1122 LINE",
"973 1189 LINE",
"136 1190 LINE",
"101 786 LINE",
"101 763 OFFCURVE",
"127 752 OFFCURVE",
"142 752 CURVE SMOOTH",
"163 752 OFFCURVE",
"186 759 OFFCURVE",
"189 785 CURVE SMOOTH",
"194 824 OFFCURVE",
"251 1028 OFFCURVE",
"373 1028 CURVE",
"869 1028 LINE",
"252 -382 LINE"
);
}
);
width = 1029;
}
);
leftKerningGroup = seven;
rightKerningGroup = seven;
unicode = 0037;
},
{
glyphname = eight;
lastChange = "2018-05-23 18:31:45 +0000";
layers = (
{
layerId = "DD6F9F34-BC40-4E8F-B1D3-DF3B42A9710F";
paths = (
{
closed = 1;
nodes = (
"735 551 OFFCURVE",
"887 488 OFFCURVE",
"887 314 CURVE SMOOTH",
"887 159 OFFCURVE",
"790 65 OFFCURVE",
"620 65 CURVE SMOOTH",
"393 65 OFFCURVE",
"329 251 OFFCURVE",
"329 362 CURVE SMOOTH",
"329 545 OFFCURVE",
"410 658 OFFCURVE",
"522 698 CURVE",
"504 766 LINE",
"374 750 OFFCURVE",
"140 617 OFFCURVE",
"140 373 CURVE SMOOTH",
"140 154 OFFCURVE",
"297 -30 OFFCURVE",
"617 -30 CURVE SMOOTH",
"934 -30 OFFCURVE",
"1084 146 OFFCURVE",
"1084 358 CURVE SMOOTH",
"1084 608 OFFCURVE",
"869 722 OFFCURVE",
"665 830 CURVE SMOOTH",
"483 927 OFFCURVE",
"407 1001 OFFCURVE",
"407 1107 CURVE SMOOTH",
"407 1260 OFFCURVE",
"479 1354 OFFCURVE",
"624 1354 CURVE SMOOTH",
"786 1354 OFFCURVE",
"845 1233 OFFCURVE",
"845 1102 CURVE SMOOTH",
"845 887 OFFCURVE",
"762 817 OFFCURVE",
"662 776 CURVE",
"680 708 LINE",
"799 729 OFFCURVE",
"1031 871 OFFCURVE",
"1031 1091 CURVE SMOOTH",
"1031 1285 OFFCURVE",
"916 1449 OFFCURVE",
"627 1449 CURVE SMOOTH",
"362 1449 OFFCURVE",
"210 1265 OFFCURVE",
"210 1102 CURVE SMOOTH",
"210 858 OFFCURVE",
"411 726 OFFCURVE",
"605 621 CURVE SMOOTH"
);
}
);
width = 1221;
}
);
leftKerningGroup = eight;
rightKerningGroup = eight;
unicode = 0038;
},
{
glyphname = nine;
lastChange = "2018-05-23 18:31:45 +0000";
layers = (
{
layerId = "DD6F9F34-BC40-4E8F-B1D3-DF3B42A9710F";
paths = (
{
closed = 1;
nodes = (
"817 447 OFFCURVE",
"703 361 OFFCURVE",
"563 361 CURVE SMOOTH",
"399 361 OFFCURVE",
"327 500 OFFCURVE",
"327 704 CURVE SMOOTH",
"327 954 OFFCURVE",
"385 1110 OFFCURVE",
"594 1110 CURVE SMOOTH",
"804 1110 OFFCURVE",
"865 954 OFFCURVE",
"865 704 CURVE SMOOTH",
"865 443 OFFCURVE",
"836 -118 OFFCURVE",
"237 -261 CURVE",
"238 -353 LINE",
"847 -261 OFFCURVE",
"1077 261 OFFCURVE",
"1077 654 CURVE SMOOTH",
"1077 931 OFFCURVE",
"896 1205 OFFCURVE",
"590 1205 CURVE SMOOTH",
"284 1205 OFFCURVE",
"110 981 OFFCURVE",
"110 704 CURVE SMOOTH",
"110 447 OFFCURVE",
"234 243 OFFCURVE",
"537 243 CURVE SMOOTH",
"764 243 OFFCURVE",
"840 390 OFFCURVE",
"900 450 CURVE",
"872 527 LINE"
);
}
);
width = 1159;
}
);
leftKerningGroup = nine;
rightKerningGroup = nine;
unicode = 0039;
},
{
glyphname = zero.lf;
lastChange = "2018-05-23 18:31:45 +0000";
layers = (
{
layerId = "DD6F9F34-BC40-4E8F-B1D3-DF3B42A9710F";
paths = (
{
closed = 1;
nodes = (
"143 287 OFFCURVE",
"350 -29 OFFCURVE",
"656 -29 CURVE SMOOTH",
"962 -29 OFFCURVE",
"1163 287 OFFCURVE",
"1163 713 CURVE SMOOTH",
"1163 1146 OFFCURVE",
"969 1451 OFFCURVE",
"663 1451 CURVE SMOOTH",
"357 1451 OFFCURVE",
"143 1146 OFFCURVE",
"143 713 CURVE SMOOTH"
);
},
{
closed = 1;
nodes = (
"358 1117 OFFCURVE",
"445 1356 OFFCURVE",
"655 1356 CURVE SMOOTH",
"864 1356 OFFCURVE",
"946 1117 OFFCURVE",
"946 713 CURVE SMOOTH",
"946 315 OFFCURVE",
"868 66 OFFCURVE",
"659 66 CURVE SMOOTH",
"449 66 OFFCURVE",
"358 315 OFFCURVE",
"358 713 CURVE SMOOTH"
);
}
);
width = 1306;
}
);
leftKerningGroup = zero.lf;
rightKerningGroup = zero.lf;
},
{
glyphname = one.lf;
lastChange = "2018-05-23 18:31:45 +0000";
layers = (
{
layerId = "DD6F9F34-BC40-4E8F-B1D3-DF3B42A9710F";
paths = (
{
closed = 1;
nodes = (
"238 1214 OFFCURVE",
"323 1215 OFFCURVE",
"380 1224 CURVE",
"379 142 LINE SMOOTH",
"379 98 OFFCURVE",
"308 83 OFFCURVE",
"244 78 CURVE",
"218 75 OFFCURVE",
"211 62 OFFCURVE",
"211 41 CURVE SMOOTH",
"211 26 OFFCURVE",
"222 0 OFFCURVE",
"245 0 CURVE SMOOTH",
"720 0 LINE SMOOTH",
"743 0 OFFCURVE",
"754 26 OFFCURVE",
"754 41 CURVE SMOOTH",
"754 71 OFFCURVE",
"746 75 OFFCURVE",
"718 78 CURVE SMOOTH",
"657 83 OFFCURVE",
"576 89 OFFCURVE",
"576 175 CURVE SMOOTH",
"577 1419 LINE",
"508 1419 LINE",
"416 1346 OFFCURVE",
"256 1306 OFFCURVE",
"195 1302 CURVE SMOOTH",
"167 1300 OFFCURVE",
"159 1275 OFFCURVE",
"159 1245 CURVE SMOOTH",
"159 1230 OFFCURVE",
"170 1214 OFFCURVE",
"193 1214 CURVE SMOOTH"
);
}
);
width = 880;
}
);
leftKerningGroup = one.lf;
rightKerningGroup = one.lf;
},
{
glyphname = two.lf;
lastChange = "2018-05-23 18:31:45 +0000";
layers = (
{
layerId = "DD6F9F34-BC40-4E8F-B1D3-DF3B42A9710F";
paths = (
{
closed = 1;
nodes = (
"764 1355 OFFCURVE",
"812 1177 OFFCURVE",
"812 993 CURVE SMOOTH",
"812 574 OFFCURVE",
"493 285 OFFCURVE",
"181 75 CURVE",
"180 0 LINE",
"1047 0 LINE",
"1057 165 LINE",
"434 165 LINE",
"393 117 LINE",
"627 266 OFFCURVE",
"1021 599 OFFCURVE",
"1021 994 CURVE SMOOTH",
"1021 1271 OFFCURVE",
"855 1451 OFFCURVE",
"589 1451 CURVE SMOOTH",
"383 1451 OFFCURVE",
"220 1326 OFFCURVE",
"180 1206 CURVE SMOOTH",
"129 1052 OFFCURVE",
"247 1020 OFFCURVE",
"292 1020 CURVE SMOOTH",
"332 1020 OFFCURVE",
"352 1054 OFFCURVE",
"359 1095 CURVE SMOOTH",
"366 1135 OFFCURVE",
"375 1196 OFFCURVE",
"386 1248 CURVE",
"413 1291 OFFCURVE",
"425 1355 OFFCURVE",
"574 1355 CURVE SMOOTH"
);
}
);
width = 1144;
}
);
leftKerningGroup = two.lf;
rightKerningGroup = two.lf;
},
{
glyphname = three.lf;
lastChange = "2018-05-23 18:31:45 +0000";
layers = (
{
layerId = "DD6F9F34-BC40-4E8F-B1D3-DF3B42A9710F";
paths = (
{
closed = 1;
nodes = (
"425 811 LINE",
"425 697 LINE",
"488 697 LINE",
"591 697 OFFCURVE",
"849 691 OFFCURVE",
"849 412 CURVE SMOOTH",
"849 187 OFFCURVE",
"721 67 OFFCURVE",
"531 67 CURVE SMOOTH",
"273 67 OFFCURVE",
"271 275 OFFCURVE",
"271 275 CURVE SMOOTH",
"245 275 OFFCURVE",
"213 252 OFFCURVE",
"213 249 CURVE SMOOTH",
"213 243 OFFCURVE",
"268 127 OFFCURVE",
"275 152 CURVE SMOOTH",
"284 185 OFFCURVE",
"327 324 OFFCURVE",
"334 353 CURVE SMOOTH",
"349 417 OFFCURVE",
"285 456 OFFCURVE",
"242 456 CURVE SMOOTH",
"180 456 OFFCURVE",
"113 388 OFFCURVE",
"113 298 CURVE SMOOTH",
"113 63 OFFCURVE",
"370 -28 OFFCURVE",
"546 -28 CURVE SMOOTH",
"840 -28 OFFCURVE",
"1046 155 OFFCURVE",
"1046 429 CURVE SMOOTH",
"1046 729 OFFCURVE",
"834 760 OFFCURVE",
"654 762 CURVE",
"785 792 OFFCURVE",
"983 920 OFFCURVE",
"983 1086 CURVE SMOOTH",
"983 1314 OFFCURVE",
"821 1451 OFFCURVE",
"569 1451 CURVE SMOOTH",
"363 1451 OFFCURVE",
"197 1326 OFFCURVE",
"157 1206 CURVE SMOOTH",
"106 1052 OFFCURVE",
"227 1020 OFFCURVE",
"272 1020 CURVE SMOOTH",
"312 1020 OFFCURVE",
"332 1054 OFFCURVE",
"339 1095 CURVE SMOOTH",
"346 1135 OFFCURVE",
"355 1196 OFFCURVE",
"366 1248 CURVE",
"393 1291 OFFCURVE",
"405 1355 OFFCURVE",
"554 1355 CURVE SMOOTH",
"744 1355 OFFCURVE",
"774 1168 OFFCURVE",
"774 1067 CURVE SMOOTH",
"774 912 OFFCURVE",
"589 812 OFFCURVE",
"488 811 CURVE"
);
}
);
width = 1130;
}
);
leftKerningGroup = three.lf;
rightKerningGroup = three.lf;
},
{
glyphname = four.lf;
lastChange = "2018-05-23 18:31:45 +0000";
layers = (
{
layerId = "DD6F9F34-BC40-4E8F-B1D3-DF3B42A9710F";
paths = (
{
closed = 1;
nodes = (
"797 1322 OFFCURVE",
"764 1411 OFFCURVE",
"710 1432 CURVE SMOOTH",
"652 1454 OFFCURVE",
"617 1423 OFFCURVE",
"610 1407 CURVE",
"44 337 LINE",
"74 250 LINE",
"1097 250 LINE",
"1107 414 LINE",
"225 414 LINE",
"782 1299 LINE"
);
},
{
closed = 1;
nodes = (
"875 0 LINE",
"875 806 LINE",
"712 796 LINE",
"712 0 LINE"
);
}
);
width = 1157;
}
);
leftKerningGroup = four.lf;
rightKerningGroup = four.lf;
},
{
glyphname = five.lf;
lastChange = "2018-05-23 18:31:45 +0000";
layers = (
{
layerId = "DD6F9F34-BC40-4E8F-B1D3-DF3B42A9710F";
paths = (
{
closed = 1;
nodes = (
"307 -55 OFFCURVE",
"283 0 OFFCURVE",
"283 0 CURVE",
"269 33 OFFCURVE",
"245 130 OFFCURVE",
"234 178 CURVE SMOOTH",
"223 226 OFFCURVE",
"208 253 OFFCURVE",
"156 253 CURVE SMOOTH",
"100 253 OFFCURVE",
"27 196 OFFCURVE",
"83 42 CURVE SMOOTH",
"127 -78 OFFCURVE",
"304 -162 OFFCURVE",
"450 -162 CURVE SMOOTH",
"749 -162 OFFCURVE",
"1006 61 OFFCURVE",
"1009 410 CURVE SMOOTH",
"1011 674 OFFCURVE",
"850 857 OFFCURVE",
"564 857 CURVE SMOOTH",
"485 857 OFFCURVE",
"375 832 OFFCURVE",
"304 794 CURVE",
"360 1250 LINE",
"952 1250 LINE",
"962 1419 LINE",
"244 1419 LINE",
"163 643 LINE",
"231 610 LINE",
"293 707 OFFCURVE",
"428 746 OFFCURVE",
"532 746 CURVE SMOOTH",
"678 746 OFFCURVE",
"793 632 OFFCURVE",
"789 388 CURVE SMOOTH",
"785 161 OFFCURVE",
"678 -86 OFFCURVE",
"451 -67 CURVE SMOOTH"
);
}
);
width = 1082;
}
);
leftKerningGroup = five.lf;
rightKerningGroup = five.lf;
},
{
glyphname = six.lf;
lastChange = "2018-05-23 18:31:45 +0000";
layers = (
{
layerId = "DD6F9F34-BC40-4E8F-B1D3-DF3B42A9710F";
paths = (
{
closed = 1;
nodes = (
"370 729 OFFCURVE",
"484 815 OFFCURVE",
"624 815 CURVE SMOOTH",
"788 815 OFFCURVE",
"860 676 OFFCURVE",
"860 472 CURVE SMOOTH",
"860 222 OFFCURVE",
"802 66 OFFCURVE",
"593 66 CURVE SMOOTH",
"383 66 OFFCURVE",
"322 222 OFFCURVE",
"322 472 CURVE SMOOTH",
"322 733 OFFCURVE",
"351 1294 OFFCURVE",
"950 1437 CURVE",
"949 1529 LINE",
"340 1437 OFFCURVE",
"110 915 OFFCURVE",
"110 522 CURVE SMOOTH",
"110 245 OFFCURVE",
"291 -29 OFFCURVE",
"597 -29 CURVE SMOOTH",
"903 -29 OFFCURVE",
"1077 195 OFFCURVE",
"1077 472 CURVE SMOOTH",
"1077 729 OFFCURVE",
"953 933 OFFCURVE",
"650 933 CURVE SMOOTH",
"423 933 OFFCURVE",
"347 786 OFFCURVE",
"287 726 CURVE",
"315 649 LINE"
);
}
);
width = 1159;
}
);
leftKerningGroup = six.lf;
rightKerningGroup = six.lf;
userData = {
com.typemytype.robofont.mark = (
0.967,
0.6,
1,
1
);
};
},
{
glyphname = seven.lf;
lastChange = "2018-05-23 18:31:45 +0000";
layers = (
{
layerId = "DD6F9F34-BC40-4E8F-B1D3-DF3B42A9710F";
paths = (
{
closed = 1;
nodes = (
"474 0 LINE",
"1026 1351 LINE",
"973 1418 LINE",
"136 1419 LINE",
"101 1015 LINE",
"101 992 OFFCURVE",
"127 981 OFFCURVE",
"142 981 CURVE SMOOTH",
"163 981 OFFCURVE",
"186 988 OFFCURVE",
"189 1014 CURVE SMOOTH",
"194 1053 OFFCURVE",
"251 1257 OFFCURVE",
"373 1257 CURVE",
"869 1257 LINE",
"252 1 LINE"
);
}
);
width = 1029;
}
);
leftKerningGroup = seven.lf;
rightKerningGroup = seven.lf;
},
{
glyphname = eight.lf;
lastChange = "2018-05-23 18:31:45 +0000";
layers = (
{
layerId = "DD6F9F34-BC40-4E8F-B1D3-DF3B42A9710F";
paths = (
{
closed = 1;
nodes = (
"735 551 OFFCURVE",
"887 488 OFFCURVE",
"887 314 CURVE SMOOTH",
"887 159 OFFCURVE",
"790 66 OFFCURVE",
"620 66 CURVE SMOOTH",
"393 66 OFFCURVE",
"329 251 OFFCURVE",
"329 362 CURVE SMOOTH",
"329 545 OFFCURVE",
"410 658 OFFCURVE",
"522 698 CURVE",
"504 766 LINE",
"374 750 OFFCURVE",
"140 617 OFFCURVE",
"140 373 CURVE SMOOTH",
"140 154 OFFCURVE",
"297 -29 OFFCURVE",
"617 -29 CURVE SMOOTH",
"934 -29 OFFCURVE",
"1084 146 OFFCURVE",
"1084 358 CURVE SMOOTH",
"1084 608 OFFCURVE",
"869 722 OFFCURVE",
"665 830 CURVE SMOOTH",
"483 927 OFFCURVE",
"407 1001 OFFCURVE",
"407 1107 CURVE SMOOTH",
"407 1260 OFFCURVE",
"479 1355 OFFCURVE",
"624 1355 CURVE SMOOTH",
"786 1355 OFFCURVE",
"845 1233 OFFCURVE",
"845 1102 CURVE SMOOTH",
"845 887 OFFCURVE",
"762 817 OFFCURVE",
"662 776 CURVE",
"680 708 LINE",
"799 729 OFFCURVE",
"1031 871 OFFCURVE",
"1031 1091 CURVE SMOOTH",
"1031 1285 OFFCURVE",
"916 1450 OFFCURVE",
"627 1450 CURVE SMOOTH",
"362 1450 OFFCURVE",
"210 1265 OFFCURVE",
"210 1102 CURVE SMOOTH",
"210 858 OFFCURVE",
"411 726 OFFCURVE",
"605 621 CURVE SMOOTH"
);
}
);
width = 1221;
}
);
leftKerningGroup = eight.lf;
rightKerningGroup = eight.lf;
},
{
glyphname = nine.lf;
lastChange = "2018-05-23 18:31:45 +0000";
layers = (
{
layerId = "DD6F9F34-BC40-4E8F-B1D3-DF3B42A9710F";
paths = (
{
closed = 1;
nodes = (
"817 695 OFFCURVE",
"703 609 OFFCURVE",
"563 609 CURVE SMOOTH",
"399 609 OFFCURVE",
"327 748 OFFCURVE",
"327 952 CURVE SMOOTH",
"327 1202 OFFCURVE",
"385 1358 OFFCURVE",
"594 1358 CURVE SMOOTH",
"804 1358 OFFCURVE",
"865 1202 OFFCURVE",
"865 952 CURVE SMOOTH",
"865 691 OFFCURVE",
"836 130 OFFCURVE",
"237 -13 CURVE",
"238 -105 LINE",
"847 -13 OFFCURVE",
"1077 509 OFFCURVE",
"1077 902 CURVE SMOOTH",
"1077 1179 OFFCURVE",
"896 1453 OFFCURVE",
"590 1453 CURVE SMOOTH",
"284 1453 OFFCURVE",
"110 1229 OFFCURVE",
"110 952 CURVE SMOOTH",
"110 695 OFFCURVE",
"234 491 OFFCURVE",
"537 491 CURVE SMOOTH",
"764 491 OFFCURVE",
"840 638 OFFCURVE",
"900 698 CURVE",
"872 775 LINE"
);
}
);
width = 1159;
}
);
leftKerningGroup = nine.lf;
rightKerningGroup = nine.lf;
},
{
glyphname = zero.osf;
lastChange = "2018-05-23 18:31:45 +0000";
layers = (
{
layerId = "DD6F9F34-BC40-4E8F-B1D3-DF3B42A9710F";
paths = (
{
closed = 1;
nodes = (
"143 206 OFFCURVE",
"320 -29 OFFCURVE",
"626 -29 CURVE SMOOTH",
"932 -29 OFFCURVE",
"1113 206 OFFCURVE",
"1113 582 CURVE SMOOTH",
"1113 965 OFFCURVE",
"939 1205 OFFCURVE",
"633 1205 CURVE SMOOTH",
"327 1205 OFFCURVE",
"143 965 OFFCURVE",
"143 582 CURVE SMOOTH"
);
},
{
closed = 1;
nodes = (
"358 936 OFFCURVE",
"415 1110 OFFCURVE",
"625 1110 CURVE SMOOTH",
"834 1110 OFFCURVE",
"896 936 OFFCURVE",
"896 582 CURVE SMOOTH",
"896 234 OFFCURVE",
"838 66 OFFCURVE",
"629 66 CURVE SMOOTH",
"419 66 OFFCURVE",
"358 234 OFFCURVE",
"358 582 CURVE SMOOTH"
);
}
);
width = 1257;
}
);
leftKerningGroup = zero.op;
rightKerningGroup = zero.op;
},
{
glyphname = one.osf;
lastChange = "2018-05-23 18:31:45 +0000";
layers = (
{
layerId = "DD6F9F34-BC40-4E8F-B1D3-DF3B42A9710F";
paths = (
{
closed = 1;
nodes = (
"238 984 OFFCURVE",
"323 985 OFFCURVE",
"380 994 CURVE",
"379 142 LINE SMOOTH",
"379 98 OFFCURVE",
"308 83 OFFCURVE",
"244 78 CURVE",
"218 75 OFFCURVE",
"211 62 OFFCURVE",
"211 41 CURVE SMOOTH",
"211 26 OFFCURVE",
"222 0 OFFCURVE",
"245 0 CURVE SMOOTH",
"720 0 LINE SMOOTH",
"743 0 OFFCURVE",
"754 26 OFFCURVE",
"754 41 CURVE SMOOTH",
"754 71 OFFCURVE",
"746 75 OFFCURVE",
"718 78 CURVE SMOOTH",
"657 83 OFFCURVE",
"576 89 OFFCURVE",
"576 175 CURVE SMOOTH",
"577 1189 LINE",
"508 1189 LINE",
"416 1116 OFFCURVE",
"256 1077 OFFCURVE",
"195 1072 CURVE SMOOTH",
"167 1069 OFFCURVE",
"159 1045 OFFCURVE",
"159 1015 CURVE SMOOTH",
"159 1000 OFFCURVE",
"170 984 OFFCURVE",
"193 984 CURVE SMOOTH"
);
}
);
width = 880;
}
);
leftKerningGroup = one.op;
rightKerningGroup = one.op;
},
{
glyphname = two.osf;
lastChange = "2018-05-23 18:31:45 +0000";
layers = (
{
layerId = "DD6F9F34-BC40-4E8F-B1D3-DF3B42A9710F";
paths = (
{
closed = 1;
nodes = (
"764 1109 OFFCURVE",
"812 951 OFFCURVE",
"812 850 CURVE SMOOTH",
"812 587 OFFCURVE",
"493 285 OFFCURVE",
"181 75 CURVE",
"180 0 LINE",
"1047 0 LINE",
"1057 165 LINE",
"434 165 LINE",
"393 117 LINE",
"627 266 OFFCURVE",
"1021 571 OFFCURVE",
"1021 851 CURVE SMOOTH",
"1021 1079 OFFCURVE",
"855 1205 OFFCURVE",
"589 1205 CURVE SMOOTH",
"383 1205 OFFCURVE",
"220 1080 OFFCURVE",
"180 960 CURVE SMOOTH",
"129 806 OFFCURVE",
"247 774 OFFCURVE",
"292 774 CURVE SMOOTH",
"332 774 OFFCURVE",
"352 808 OFFCURVE",
"359 849 CURVE SMOOTH",
"366 889 OFFCURVE",
"375 950 OFFCURVE",
"386 1002 CURVE",
"413 1045 OFFCURVE",
"425 1109 OFFCURVE",
"574 1109 CURVE SMOOTH"
);
}
);
width = 1144;
}
);
leftKerningGroup = two.op;
rightKerningGroup = two.op;
},
{
glyphname = three.osf;
lastChange = "2018-05-23 18:31:45 +0000";
layers = (
{
layerId = "DD6F9F34-BC40-4E8F-B1D3-DF3B42A9710F";
paths = (
{
closed = 1;
nodes = (
"425 505 LINE",
"425 391 LINE",
"488 391 LINE",
"591 391 OFFCURVE",
"849 325 OFFCURVE",
"849 46 CURVE SMOOTH",
"849 -179 OFFCURVE",
"721 -299 OFFCURVE",
"531 -299 CURVE SMOOTH",
"273 -299 OFFCURVE",
"271 -91 OFFCURVE",
"271 -91 CURVE SMOOTH",
"245 -91 OFFCURVE",
"213 -114 OFFCURVE",
"213 -117 CURVE SMOOTH",
"213 -123 OFFCURVE",
"268 -239 OFFCURVE",
"275 -214 CURVE SMOOTH",
"284 -181 OFFCURVE",
"327 -42 OFFCURVE",
"334 -13 CURVE SMOOTH",
"349 51 OFFCURVE",
"285 90 OFFCURVE",
"242 90 CURVE SMOOTH",
"180 90 OFFCURVE",
"113 22 OFFCURVE",
"113 -68 CURVE SMOOTH",
"113 -303 OFFCURVE",
"370 -394 OFFCURVE",
"546 -394 CURVE SMOOTH",
"840 -394 OFFCURVE",
"1046 -211 OFFCURVE",
"1046 63 CURVE SMOOTH",
"1046 363 OFFCURVE",
"834 454 OFFCURVE",
"654 456 CURVE",
"785 486 OFFCURVE",
"983 634 OFFCURVE",
"983 840 CURVE SMOOTH",
"983 1068 OFFCURVE",
"821 1205 OFFCURVE",
"569 1205 CURVE SMOOTH",
"363 1205 OFFCURVE",
"197 1080 OFFCURVE",
"157 960 CURVE SMOOTH",
"106 806 OFFCURVE",
"227 774 OFFCURVE",
"272 774 CURVE SMOOTH",
"312 774 OFFCURVE",
"332 808 OFFCURVE",
"339 849 CURVE SMOOTH",
"346 889 OFFCURVE",
"355 950 OFFCURVE",
"366 1002 CURVE",
"393 1045 OFFCURVE",
"405 1109 OFFCURVE",
"554 1109 CURVE SMOOTH",
"744 1109 OFFCURVE",
"774 922 OFFCURVE",
"774 821 CURVE SMOOTH",
"774 606 OFFCURVE",
"589 506 OFFCURVE",
"488 505 CURVE"
);
}
);
width = 1130;
}
);
leftKerningGroup = three.op;
rightKerningGroup = three.op;
},
{
glyphname = four.osf;
lastChange = "2018-05-23 18:31:45 +0000";
layers = (
{
layerId = "DD6F9F34-BC40-4E8F-B1D3-DF3B42A9710F";
paths = (
{
closed = 1;
nodes = (
"854 1209 OFFCURVE",
"821 1298 OFFCURVE",
"767 1319 CURVE SMOOTH",
"709 1341 OFFCURVE",
"674 1310 OFFCURVE",
"667 1294 CURVE",
"44 87 LINE",
"74 0 LINE",
"1097 0 LINE",
"1107 164 LINE",
"225 164 LINE",
"839 1186 LINE"
);
},
{
closed = 1;
nodes = (
"875 -384 LINE",
"875 556 LINE",
"712 546 LINE",
"712 -384 LINE"
);
}
);
width = 1157;
}
);
leftKerningGroup = four.op;
rightKerningGroup = four.op;
},
{
glyphname = five.osf;
lastChange = "2018-05-23 18:31:45 +0000";
layers = (
{
layerId = "DD6F9F34-BC40-4E8F-B1D3-DF3B42A9710F";
paths = (
{
closed = 1;
nodes = (
"307 -285 OFFCURVE",
"283 -230 OFFCURVE",
"283 -230 CURVE",
"269 -197 OFFCURVE",
"245 -100 OFFCURVE",
"234 -52 CURVE SMOOTH",
"225 -4 OFFCURVE",
"208 23 OFFCURVE",
"156 23 CURVE SMOOTH",
"100 23 OFFCURVE",
"27 -34 OFFCURVE",
"83 -188 CURVE SMOOTH",
"126 -308 OFFCURVE",
"304 -392 OFFCURVE",
"450 -392 CURVE SMOOTH",
"749 -392 OFFCURVE",
"1006 -169 OFFCURVE",
"1009 180 CURVE SMOOTH",
"1012 444 OFFCURVE",
"850 627 OFFCURVE",
"564 627 CURVE SMOOTH",
"485 627 OFFCURVE",
"375 602 OFFCURVE",
"304 564 CURVE",
"360 1020 LINE",
"952 1020 LINE",
"962 1189 LINE",
"244 1189 LINE",
"163 413 LINE",
"231 380 LINE",
"293 477 OFFCURVE",
"428 516 OFFCURVE",
"532 516 CURVE SMOOTH",
"678 516 OFFCURVE",
"793 402 OFFCURVE",
"789 158 CURVE SMOOTH",
"786 -69 OFFCURVE",
"678 -316 OFFCURVE",
"451 -297 CURVE SMOOTH"
);
}
);
width = 1082;
}
);
leftKerningGroup = five.op;
rightKerningGroup = five.op;
},
{
glyphname = six.osf;
lastChange = "2018-05-23 18:31:45 +0000";
layers = (
{
layerId = "DD6F9F34-BC40-4E8F-B1D3-DF3B42A9710F";
paths = (
{
closed = 1;
nodes = (
"370 729 OFFCURVE",
"484 815 OFFCURVE",
"624 815 CURVE SMOOTH",
"788 815 OFFCURVE",
"860 676 OFFCURVE",
"860 472 CURVE SMOOTH",
"860 222 OFFCURVE",
"802 66 OFFCURVE",
"593 66 CURVE SMOOTH",
"383 66 OFFCURVE",
"322 222 OFFCURVE",
"322 472 CURVE SMOOTH",
"322 733 OFFCURVE",
"351 1294 OFFCURVE",
"950 1437 CURVE",
"949 1529 LINE",
"340 1437 OFFCURVE",
"110 915 OFFCURVE",
"110 522 CURVE SMOOTH",
"110 245 OFFCURVE",
"291 -29 OFFCURVE",
"597 -29 CURVE SMOOTH",
"903 -29 OFFCURVE",
"1077 195 OFFCURVE",
"1077 472 CURVE SMOOTH",
"1077 729 OFFCURVE",
"953 933 OFFCURVE",
"650 933 CURVE SMOOTH",
"423 933 OFFCURVE",
"347 786 OFFCURVE",
"287 726 CURVE",
"315 649 LINE"
);
}
);
width = 1159;
}
);
leftKerningGroup = six.op;
rightKerningGroup = six.op;
userData = {
com.typemytype.robofont.mark = (
0.967,
0.6,
1,
1
);
};
},
{
glyphname = seven.osf;
lastChange = "2018-05-23 18:31:45 +0000";
layers = (
{
layerId = "DD6F9F34-BC40-4E8F-B1D3-DF3B42A9710F";
paths = (
{
closed = 1;
nodes = (
"474 -383 LINE",
"1026 1122 LINE",
"973 1189 LINE",
"136 1190 LINE",
"101 786 LINE",
"101 763 OFFCURVE",
"127 752 OFFCURVE",
"142 752 CURVE SMOOTH",
"163 752 OFFCURVE",
"186 759 OFFCURVE",
"189 785 CURVE SMOOTH",
"194 824 OFFCURVE",
"251 1028 OFFCURVE",
"373 1028 CURVE",
"869 1028 LINE",
"252 -382 LINE"
);
}
);
width = 1029;
}
);
leftKerningGroup = seven.op;
rightKerningGroup = seven.op;
},
{
glyphname = eight.osf;
lastChange = "2018-05-23 18:31:45 +0000";
layers = (
{
layerId = "DD6F9F34-BC40-4E8F-B1D3-DF3B42A9710F";
paths = (
{
closed = 1;
nodes = (
"735 551 OFFCURVE",
"887 488 OFFCURVE",
"887 314 CURVE SMOOTH",
"887 159 OFFCURVE",
"790 65 OFFCURVE",
"620 65 CURVE SMOOTH",
"393 65 OFFCURVE",
"329 251 OFFCURVE",
"329 362 CURVE SMOOTH",
"329 545 OFFCURVE",
"410 658 OFFCURVE",
"522 698 CURVE",
"504 766 LINE",
"374 750 OFFCURVE",
"140 617 OFFCURVE",
"140 373 CURVE SMOOTH",
"140 154 OFFCURVE",
"297 -30 OFFCURVE",
"617 -30 CURVE SMOOTH",
"934 -30 OFFCURVE",
"1084 146 OFFCURVE",
"1084 358 CURVE SMOOTH",
"1084 608 OFFCURVE",
"869 722 OFFCURVE",
"665 830 CURVE SMOOTH",
"483 927 OFFCURVE",
"407 1001 OFFCURVE",
"407 1107 CURVE SMOOTH",
"407 1260 OFFCURVE",
"479 1354 OFFCURVE",
"624 1354 CURVE SMOOTH",
"786 1354 OFFCURVE",
"845 1233 OFFCURVE",
"845 1102 CURVE SMOOTH",
"845 887 OFFCURVE",
"762 817 OFFCURVE",
"662 776 CURVE",
"680 708 LINE",
"799 729 OFFCURVE",
"1031 871 OFFCURVE",
"1031 1091 CURVE SMOOTH",
"1031 1285 OFFCURVE",
"916 1449 OFFCURVE",
"627 1449 CURVE SMOOTH",
"362 1449 OFFCURVE",
"210 1265 OFFCURVE",
"210 1102 CURVE SMOOTH",
"210 858 OFFCURVE",
"411 726 OFFCURVE",
"605 621 CURVE SMOOTH"
);
}
);
width = 1221;
}
);
leftKerningGroup = eight.op;
rightKerningGroup = eight.op;
},
{
glyphname = nine.osf;
lastChange = "2018-05-23 18:31:45 +0000";
layers = (
{
layerId = "DD6F9F34-BC40-4E8F-B1D3-DF3B42A9710F";
paths = (
{
closed = 1;
nodes = (
"817 447 OFFCURVE",
"703 361 OFFCURVE",
"563 361 CURVE SMOOTH",
"399 361 OFFCURVE",
"327 500 OFFCURVE",
"327 704 CURVE SMOOTH",
"327 954 OFFCURVE",
"385 1110 OFFCURVE",
"594 1110 CURVE SMOOTH",
"804 1110 OFFCURVE",
"865 954 OFFCURVE",
"865 704 CURVE SMOOTH",
"865 443 OFFCURVE",
"836 -118 OFFCURVE",
"237 -261 CURVE",
"238 -353 LINE",
"847 -261 OFFCURVE",
"1077 261 OFFCURVE",
"1077 654 CURVE SMOOTH",
"1077 931 OFFCURVE",
"896 1205 OFFCURVE",
"590 1205 CURVE SMOOTH",
"284 1205 OFFCURVE",
"110 981 OFFCURVE",
"110 704 CURVE SMOOTH",
"110 447 OFFCURVE",
"234 243 OFFCURVE",
"537 243 CURVE SMOOTH",
"764 243 OFFCURVE",
"840 390 OFFCURVE",
"900 450 CURVE",
"872 527 LINE"
);
}
);
width = 1159;
}
);
leftKerningGroup = nine.op;
rightKerningGroup = nine.op;
},
{
glyphname = onesuperior;
lastChange = "2018-05-23 18:31:45 +0000";
layers = (
{
layerId = "DD6F9F34-BC40-4E8F-B1D3-DF3B42A9710F";
paths = (
{
closed = 1;
nodes = (
"294 1253 OFFCURVE",
"359 1254 OFFCURVE",
"416 1263 CURVE",
"415 624 LINE SMOOTH",
"415 580 OFFCURVE",
"344 565 OFFCURVE",
"280 560 CURVE",
"254 557 OFFCURVE",
"247 544 OFFCURVE",
"247 523 CURVE SMOOTH",
"247 508 OFFCURVE",
"258 492 OFFCURVE",
"281 492 CURVE SMOOTH",
"746 492 LINE SMOOTH",
"769 492 OFFCURVE",
"780 508 OFFCURVE",
"780 523 CURVE SMOOTH",
"780 553 OFFCURVE",
"772 557 OFFCURVE",
"744 560 CURVE SMOOTH",
"683 565 OFFCURVE",
"602 571 OFFCURVE",
"602 657 CURVE SMOOTH",
"603 1448 LINE",
"524 1448 LINE",
"432 1375 OFFCURVE",
"312 1336 OFFCURVE",
"251 1331 CURVE SMOOTH",
"223 1328 OFFCURVE",
"215 1314 OFFCURVE",
"215 1284 CURVE SMOOTH",
"215 1269 OFFCURVE",
"226 1253 OFFCURVE",
"249 1253 CURVE SMOOTH"
);
}
);
width = 1024;
}
);
leftKerningGroup = onesuperior;
rightKerningGroup = onesuperior;
unicode = 00B9;
},
{
glyphname = twosuperior;
lastChange = "2018-05-23 18:31:45 +0000";
layers = (
{
layerId = "DD6F9F34-BC40-4E8F-B1D3-DF3B42A9710F";
paths = (
{
closed = 1;
nodes = (
"653 1373 OFFCURVE",
"664 1246 OFFCURVE",
"664 1165 CURVE SMOOTH",
"664 926 OFFCURVE",
"432 743 OFFCURVE",
"161 545 CURVE",
"161 493 LINE",
"893 493 LINE",
"893 629 LINE",
"346 629 LINE",
"353 587 LINE",
"581 706 OFFCURVE",
"869 931 OFFCURVE",
"869 1156 CURVE SMOOTH",
"869 1339 OFFCURVE",
"766 1449 OFFCURVE",
"507 1449 CURVE SMOOTH",
"307 1449 OFFCURVE",
"185 1349 OFFCURVE",
"147 1253 CURVE SMOOTH",
"97 1130 OFFCURVE",
"172 1069 OFFCURVE",
"223 1081 CURVE SMOOTH",
"290 1095 OFFCURVE",
"317 1137 OFFCURVE",
"325 1175 CURVE SMOOTH",
"333 1214 OFFCURVE",
"340 1265 OFFCURVE",
"340 1287 CURVE SMOOTH",
"340 1287 OFFCURVE",
"339 1373 OFFCURVE",
"493 1373 CURVE SMOOTH"
);
}
);
width = 1024;
}
);
leftKerningGroup = twosuperior;
rightKerningGroup = twosuperior;
unicode = 00B2;
},
{
glyphname = threesuperior;
lastChange = "2018-05-23 18:31:45 +0000";
layers = (
{
layerId = "DD6F9F34-BC40-4E8F-B1D3-DF3B42A9710F";
paths = (
{
closed = 1;
nodes = (
"413 985 LINE",
"413 910 LINE",
"463 910 LINE SMOOTH",
"544 910 OFFCURVE",
"715 882 OFFCURVE",
"715 705 CURVE SMOOTH",
"715 568 OFFCURVE",
"612 488 OFFCURVE",
"486 488 CURVE SMOOTH",
"299 488 OFFCURVE",
"270 634 OFFCURVE",
"249 634 CURVE",
"228 634 OFFCURVE",
"219 589 OFFCURVE",
"219 587 CURVE SMOOTH",
"219 583 OFFCURVE",
"252 508 OFFCURVE",
"263 526 CURVE",
"309 702 LINE SMOOTH",
"322 751 OFFCURVE",
"270 769 OFFCURVE",
"236 769 CURVE SMOOTH",
"199 769 OFFCURVE",
"140 718 OFFCURVE",
"140 659 CURVE SMOOTH",
"140 505 OFFCURVE",
"300 406 OFFCURVE",
"498 406 CURVE SMOOTH",
"741 406 OFFCURVE",
"910 543 OFFCURVE",
"910 704 CURVE SMOOTH",
"910 887 OFFCURVE",
"791 962 OFFCURVE",
"669 966 CURVE",
"756 986 OFFCURVE",
"853 1067 OFFCURVE",
"853 1218 CURVE SMOOTH",
"853 1367 OFFCURVE",
"717 1449 OFFCURVE",
"512 1449 CURVE SMOOTH",
"334 1449 OFFCURVE",
"207 1368 OFFCURVE",
"175 1290 CURVE SMOOTH",
"135 1189 OFFCURVE",
"210 1134 OFFCURVE",
"245 1141 CURVE",
"290 1152 OFFCURVE",
"329 1180 OFFCURVE",
"334 1207 CURVE SMOOTH",
"340 1233 OFFCURVE",
"344 1302 OFFCURVE",
"344 1317 CURVE SMOOTH",
"344 1317 OFFCURVE",
"376 1367 OFFCURVE",
"501 1367 CURVE SMOOTH",
"650 1367 OFFCURVE",
"678 1269 OFFCURVE",
"678 1203 CURVE SMOOTH",
"678 1050 OFFCURVE",
"542 985 OFFCURVE",
"463 985 CURVE"
);
}
);
width = 1024;
}
);
leftKerningGroup = threesuperior;
rightKerningGroup = threesuperior;
unicode = 00B3;
},
{
glyphname = fraction;
lastChange = "2018-05-23 18:31:45 +0000";
layers = (
{
layerId = "DD6F9F34-BC40-4E8F-B1D3-DF3B42A9710F";
paths = (
{
closed = 1;
nodes = (
"-339 0 LINE",
"-194 0 LINE",
"505 1419 LINE",
"358 1419 LINE"
);
}
);
width = 166;
}
);
leftKerningGroup = fraction;
rightKerningGroup = fraction;
unicode = 2044;
},
{
glyphname = onequarter;
lastChange = "2018-05-23 18:31:45 +0000";
layers = (
{
components = (
{
name = onesuperior;
transform = "{1, 0, 0, 1, -29, 0}";
},
{
name = fraction;
transform = "{1, 0, 0, 1, 912, 0}";
}
);
layerId = "DD6F9F34-BC40-4E8F-B1D3-DF3B42A9710F";
paths = (
{
closed = 1;
nodes = (
"1738 865 OFFCURVE",
"1738 942 OFFCURVE",
"1684 963 CURVE SMOOTH",
"1626 985 OFFCURVE",
"1548 956 OFFCURVE",
"1541 940 CURVE",
"1068 87 LINE",
"1098 0 LINE",
"2011 0 LINE",
"2011 137 LINE",
"1238 137 LINE",
"1723 842 LINE"
);
},
{
closed = 1;
nodes = (
"1779 -251 LINE",
"1779 386 LINE",
"1612 386 LINE",
"1612 -251 LINE"
);
}
);
width = 2150;
}
);
leftKerningGroup = one.numr;
rightKerningGroup = one.numr;
unicode = 00BC;
},
{
glyphname = threequarters;
lastChange = "2018-05-23 18:31:45 +0000";
layers = (
{
components = (
{
name = threesuperior;
transform = "{1, 0, 0, 1, -139, 0}";
},
{
name = fraction;
transform = "{1, 0, 0, 1, 912, 0}";
}
);
layerId = "DD6F9F34-BC40-4E8F-B1D3-DF3B42A9710F";
paths = (
{
closed = 1;
nodes = (
"1738 865 OFFCURVE",
"1738 942 OFFCURVE",
"1684 963 CURVE SMOOTH",
"1626 985 OFFCURVE",
"1548 956 OFFCURVE",
"1541 940 CURVE",
"1068 87 LINE",
"1098 0 LINE",
"2011 0 LINE",
"2011 137 LINE",
"1238 137 LINE",
"1723 842 LINE SMOOTH"
);
},
{
closed = 1;
nodes = (
"1779 -251 LINE",
"1779 386 LINE",
"1612 386 LINE",
"1612 -251 LINE"
);
}
);
width = 2150;
}
);
leftKerningGroup = three.numr;
rightKerningGroup = three.numr;
unicode = 00BE;
},
{
glyphname = period;
lastChange = "2018-05-23 18:31:45 +0000";
layers = (
{
layerId = "DD6F9F34-BC40-4E8F-B1D3-DF3B42A9710F";
paths = (
{
closed = 1;
nodes = (
"138 47 OFFCURVE",
"199 -20 OFFCURVE",
"278 -20 CURVE SMOOTH",
"357 -20 OFFCURVE",
"419 47 OFFCURVE",
"419 122 CURVE SMOOTH",
"419 197 OFFCURVE",
"357 257 OFFCURVE",
"278 257 CURVE SMOOTH",
"199 257 OFFCURVE",
"138 197 OFFCURVE",
"138 122 CURVE SMOOTH"
);
}
);
width = 552;
}
);
leftKerningGroup = period;
rightKerningGroup = period;
unicode = 002E;
},
{
glyphname = comma;
lastChange = "2018-05-23 18:31:45 +0000";
layers = (
{
layerId = "DD6F9F34-BC40-4E8F-B1D3-DF3B42A9710F";
paths = (
{
closed = 1;
nodes = (
"246 5 OFFCURVE",
"135 -10 OFFCURVE",
"135 111 CURVE SMOOTH",
"135 209 OFFCURVE",
"205 257 OFFCURVE",
"288 257 CURVE SMOOTH",
"351 257 OFFCURVE",
"430 214 OFFCURVE",
"430 52 CURVE SMOOTH",
"430 -110 OFFCURVE",
"288 -310 OFFCURVE",
"228 -352 CURVE SMOOTH",
"195 -375 OFFCURVE",
"119 -345 OFFCURVE",
"180 -281 CURVE SMOOTH",
"264 -193 OFFCURVE",
"258 -45 OFFCURVE",
"249 -7 CURVE SMOOTH"
);
}
);
width = 552;
}
);
leftKerningGroup = period;
rightKerningGroup = period;
unicode = 002C;
},
{
glyphname = exclam;
lastChange = "2018-05-23 18:31:45 +0000";
layers = (
{
layerId = "DD6F9F34-BC40-4E8F-B1D3-DF3B42A9710F";
paths = (
{
closed = 1;
nodes = (
"406 1013 OFFCURVE",
"469 1322 OFFCURVE",
"469 1389 CURVE SMOOTH",
"469 1467 OFFCURVE",
"411 1528 OFFCURVE",
"338 1528 CURVE SMOOTH",
"264 1528 OFFCURVE",
"207 1467 OFFCURVE",
"207 1389 CURVE SMOOTH",
"207 1322 OFFCURVE",
"254 1013 OFFCURVE",
"298 432 CURVE",
"378 432 LINE"
);
},
{
closed = 1;
nodes = (
"198 47 OFFCURVE",
"259 -20 OFFCURVE",
"338 -20 CURVE SMOOTH",
"417 -20 OFFCURVE",
"479 47 OFFCURVE",
"479 122 CURVE SMOOTH",
"479 197 OFFCURVE",
"417 257 OFFCURVE",
"338 257 CURVE SMOOTH",
"259 257 OFFCURVE",
"198 197 OFFCURVE",
"198 122 CURVE SMOOTH"
);
}
);
width = 678;
}
);
leftKerningGroup = exclam;
rightKerningGroup = exclam;
unicode = 0021;
},
{
glyphname = question;
lastChange = "2018-05-23 18:31:45 +0000";
layers = (
{
layerId = "DD6F9F34-BC40-4E8F-B1D3-DF3B42A9710F";
paths = (
{
closed = 1;
nodes = (
"667 1443 OFFCURVE",
"711 1211 OFFCURVE",
"711 1086 CURVE SMOOTH",
"711 837 OFFCURVE",
"502 714 OFFCURVE",
"387 706 CURVE",
"387 377 LINE",
"499 377 LINE",
"499 598 LINE",
"704 644 OFFCURVE",
"920 823 OFFCURVE",
"920 1097 CURVE SMOOTH",
"920 1317 OFFCURVE",
"804 1528 OFFCURVE",
"486 1528 CURVE SMOOTH",
"252 1528 OFFCURVE",
"107 1402 OFFCURVE",
"62 1284 CURVE SMOOTH",
"4 1135 OFFCURVE",
"99 1079 OFFCURVE",
"154 1079 CURVE SMOOTH",
"197 1079 OFFCURVE",
"217 1087 OFFCURVE",
"224 1117 CURVE",
"265 1347 LINE",
"265 1347 OFFCURVE",
"327 1443 OFFCURVE",
"469 1443 CURVE SMOOTH"
);
},
{
closed = 1;
nodes = (
"309 47 OFFCURVE",
"370 -20 OFFCURVE",
"449 -20 CURVE SMOOTH",
"528 -20 OFFCURVE",
"590 47 OFFCURVE",
"590 122 CURVE SMOOTH",
"590 197 OFFCURVE",
"528 257 OFFCURVE",
"449 257 CURVE SMOOTH",
"370 257 OFFCURVE",
"309 197 OFFCURVE",
"309 122 CURVE SMOOTH"
);
}
);
width = 980;
}
);
leftKerningGroup = question;
rightKerningGroup = question;
unicode = 003F;
userData = {
com.typemytype.robofont.mark = (
0.967,
0.6,
1,
1
);
};
},
{
glyphname = bullet;
lastChange = "2018-05-23 18:31:45 +0000";
layers = (
{
layerId = "DD6F9F34-BC40-4E8F-B1D3-DF3B42A9710F";
paths = (
{
closed = 1;
nodes = (
"146 439 OFFCURVE",
"253 336 OFFCURVE",
"402 336 CURVE SMOOTH",
"551 336 OFFCURVE",
"659 439 OFFCURVE",
"659 601 CURVE SMOOTH",
"659 763 OFFCURVE",
"551 866 OFFCURVE",
"402 866 CURVE SMOOTH",
"253 866 OFFCURVE",
"146 763 OFFCURVE",
"146 601 CURVE SMOOTH"
);
}
);
width = 804;
}
);
leftKerningGroup = bullet;
rightKerningGroup = bullet;
unicode = 2022;
},
{
glyphname = asterisk;
lastChange = "2018-05-23 18:31:45 +0000";
layers = (
{
layerId = "DD6F9F34-BC40-4E8F-B1D3-DF3B42A9710F";
paths = (
{
closed = 1;
nodes = (
"351 912 OFFCURVE",
"234 811 OFFCURVE",
"216 786 CURVE SMOOTH",
"201 765 OFFCURVE",
"192 738 OFFCURVE",
"192 714 CURVE SMOOTH",
"192 662 OFFCURVE",
"236 620 OFFCURVE",
"285 620 CURVE SMOOTH",
"317 620 OFFCURVE",
"351 640 OFFCURVE",
"374 673 CURVE SMOOTH",
"394 702 OFFCURVE",
"451 870 OFFCURVE",
"484 934 CURVE",
"518 867 OFFCURVE",
"574 698 OFFCURVE",
"592 673 CURVE SMOOTH",
"614 642 OFFCURVE",
"649 621 OFFCURVE",
"682 621 CURVE SMOOTH",
"734 621 OFFCURVE",
"775 666 OFFCURVE",
"775 714 CURVE SMOOTH",
"775 738 OFFCURVE",
"766 765 OFFCURVE",
"748 788 CURVE SMOOTH",
"693 860 OFFCURVE",
"610 916 OFFCURVE",
"548 980 CURVE",
"602 993 OFFCURVE",
"767 990 OFFCURVE",
"811 1003 CURVE SMOOTH",
"860 1017 OFFCURVE",
"893 1051 OFFCURVE",
"893 1096 CURVE SMOOTH",
"893 1161 OFFCURVE",
"845 1194 OFFCURVE",
"796 1194 CURVE SMOOTH",
"784 1194 OFFCURVE",
"766 1191 OFFCURVE",
"753 1187 CURVE SMOOTH",
"729 1179 OFFCURVE",
"601 1097 OFFCURVE",
"523 1055 CURVE",
"526 1080 OFFCURVE",
"524 1064 OFFCURVE",
"528 1086 CURVE SMOOTH",
"536 1138 OFFCURVE",
"581 1308 OFFCURVE",
"581 1336 CURVE SMOOTH",
"581 1400 OFFCURVE",
"547 1449 OFFCURVE",
"484 1449 CURVE SMOOTH",
"419 1449 OFFCURVE",
"386 1400 OFFCURVE",
"386 1336 CURVE SMOOTH",
"386 1308 OFFCURVE",
"432 1138 OFFCURVE",
"443 1056 CURVE",
"360 1097 OFFCURVE",
"242 1178 OFFCURVE",
"213 1187 CURVE SMOOTH",
"197 1192 OFFCURVE",
"184 1194 OFFCURVE",
"170 1194 CURVE SMOOTH",
"121 1194 OFFCURVE",
"72 1161 OFFCURVE",
"72 1098 CURVE SMOOTH",
"72 1052 OFFCURVE",
"107 1018 OFFCURVE",
"154 1003 CURVE SMOOTH",
"195 990 OFFCURVE",
"369 994 OFFCURVE",
"419 980 CURVE"
);
}
);
width = 967;
}
);
leftKerningGroup = asterisk;
rightKerningGroup = asterisk;
unicode = 002A;
},
{
glyphname = numbersign;
lastChange = "2018-05-23 18:31:45 +0000";
layers = (
{
layerId = "DD6F9F34-BC40-4E8F-B1D3-DF3B42A9710F";
paths = (
{
closed = 1;
nodes = (
"232 0 LINE",
"357 0 LINE",
"606 1419 LINE",
"479 1419 LINE"
);
},
{
closed = 1;
nodes = (
"649 0 LINE",
"774 0 LINE",
"1023 1419 LINE",
"896 1419 LINE"
);
},
{
closed = 1;
nodes = (
"1208 870 LINE",
"1208 976 LINE",
"158 976 LINE",
"158 870 LINE"
);
},
{
closed = 1;
nodes = (
"1138 450 LINE",
"1138 556 LINE",
"108 556 LINE",
"108 450 LINE"
);
}
);
width = 1317;
}
);
leftKerningGroup = numbersign;
rightKerningGroup = numbersign;
unicode = 0023;
},
{
glyphname = slash;
lastChange = "2018-05-23 18:31:45 +0000";
layers = (
{
layerId = "DD6F9F34-BC40-4E8F-B1D3-DF3B42A9710F";
paths = (
{
closed = 1;
nodes = (
"174 -340 LINE",
"309 -340 LINE",
"786 1700 LINE",
"649 1700 LINE"
);
}
);
width = 960;
}
);
leftKerningGroup = slash;
rightKerningGroup = slash;
unicode = 002F;
},
{
glyphname = parenleft;
lastChange = "2018-05-23 18:31:45 +0000";
layers = (
{
layerId = "DD6F9F34-BC40-4E8F-B1D3-DF3B42A9710F";
paths = (
{
closed = 1;
nodes = (
"323 -164 OFFCURVE",
"596 -257 OFFCURVE",
"701 -257 CURVE",
"701 -257 OFFCURVE",
"701 -340 OFFCURVE",
"701 -340 CURVE SMOOTH",
"483 -340 OFFCURVE",
"118 -115 OFFCURVE",
"118 596 CURVE SMOOTH",
"118 1307 OFFCURVE",
"483 1532 OFFCURVE",
"701 1532 CURVE",
"701 1532 OFFCURVE",
"701 1449 OFFCURVE",
"701 1449 CURVE",
"596 1449 OFFCURVE",
"323 1356 OFFCURVE",
"323 596 CURVE SMOOTH"
);
}
);
width = 768;
}
);
leftKerningGroup = parenleft;
rightKerningGroup = parenleft;
unicode = 0028;
userData = {
com.typemytype.robofont.mark = (
0.967,
0.6,
1,
1
);
};
},
{
glyphname = braceleft;
lastChange = "2018-05-23 18:31:45 +0000";
layers = (
{
layerId = "DD6F9F34-BC40-4E8F-B1D3-DF3B42A9710F";
paths = (
{
closed = 1;
nodes = (
"66 659 LINE",
"66 658 LINE",
"66 659 LINE",
"136 659 LINE SMOOTH",
"241 659 OFFCURVE",
"355 741 OFFCURVE",
"355 850 CURVE SMOOTH",
"355 1237 LINE SMOOTH",
"355 1459 OFFCURVE",
"542 1536 OFFCURVE",
"682 1536 CURVE SMOOTH",
"815 1536 LINE",
"815 1449 LINE",
"702 1449 LINE SMOOTH",
"594 1449 OFFCURVE",
"556 1356 OFFCURVE",
"556 1280 CURVE SMOOTH",
"556 883 LINE SMOOTH",
"556 720 OFFCURVE",
"396 611 OFFCURVE",
"224 604 CURVE",
"396 596 OFFCURVE",
"556 488 OFFCURVE",
"556 325 CURVE SMOOTH",
"556 -72 LINE SMOOTH",
"556 -148 OFFCURVE",
"594 -241 OFFCURVE",
"702 -241 CURVE SMOOTH",
"815 -241 LINE",
"815 -328 LINE",
"682 -328 LINE SMOOTH",
"542 -328 OFFCURVE",
"355 -251 OFFCURVE",
"355 -29 CURVE SMOOTH",
"355 358 LINE SMOOTH",
"355 467 OFFCURVE",
"241 549 OFFCURVE",
"136 549 CURVE SMOOTH",
"66 549 LINE"
);
}
);
width = 881;
}
);
leftKerningGroup = braceleft;
rightKerningGroup = braceleft;
unicode = 007B;
},
{
glyphname = bracketleft;
lastChange = "2018-05-23 18:31:45 +0000";
layers = (
{
layerId = "DD6F9F34-BC40-4E8F-B1D3-DF3B42A9710F";
paths = (
{
closed = 1;
nodes = (
"606 1439 LINE",
"357 1439 LINE",
"357 -231 LINE",
"606 -231 LINE",
"606 -328 LINE",
"162 -327 LINE",
"162 1535 LINE",
"606 1536 LINE"
);
}
);
width = 768;
}
);
leftKerningGroup = bracketleft;
rightKerningGroup = bracketleft;
unicode = 005B;
},
{
glyphname = hyphen;
lastChange = "2018-05-23 18:31:45 +0000";
layers = (
{
layerId = "DD6F9F34-BC40-4E8F-B1D3-DF3B42A9710F";
paths = (
{
closed = 1;
nodes = (
"661 496 LINE",
"661 622 LINE",
"104 622 LINE",
"104 496 LINE"
);
}
);
width = 766;
}
);
leftKerningGroup = hyphen;
rightKerningGroup = hyphen;
unicode = 002D;
},
{
glyphname = endash;
lastChange = "2018-05-23 18:31:45 +0000";
layers = (
{
layerId = "DD6F9F34-BC40-4E8F-B1D3-DF3B42A9710F";
paths = (
{
closed = 1;
nodes = (
"1212 496 LINE",
"1212 622 LINE",
"105 622 LINE",
"105 496 LINE"
);
}
);
width = 1317;
}
);
leftKerningGroup = hyphen;
rightKerningGroup = hyphen;
unicode = 2013;
},
{
glyphname = emdash;
lastChange = "2018-05-23 18:31:45 +0000";
layers = (
{
layerId = "DD6F9F34-BC40-4E8F-B1D3-DF3B42A9710F";
paths = (
{
closed = 1;
nodes = (
"1649 496 LINE",
"1649 622 LINE",
"105 622 LINE",
"105 496 LINE"
);
}
);
width = 1755;
}
);
leftKerningGroup = hyphen;
rightKerningGroup = hyphen;
unicode = 2014;
},
{
glyphname = underscore;
lastChange = "2018-05-23 18:31:45 +0000";
layers = (
{
layerId = "DD6F9F34-BC40-4E8F-B1D3-DF3B42A9710F";
paths = (
{
closed = 1;
nodes = (
"1342 -296 LINE",
"1342 -190 LINE",
"-25 -190 LINE",
"-25 -296 LINE"
);
}
);
width = 1317;
}
);
leftKerningGroup = underscore;
rightKerningGroup = underscore;
unicode = 005F;
},
{
glyphname = quoteright;
lastChange = "2018-05-23 18:31:45 +0000";
layers = (
{
layerId = "DD6F9F34-BC40-4E8F-B1D3-DF3B42A9710F";
paths = (
{
closed = 1;
nodes = (
"244 1429 OFFCURVE",
"123 1434 OFFCURVE",
"123 1555 CURVE SMOOTH",
"123 1633 OFFCURVE",
"181 1681 OFFCURVE",
"264 1681 CURVE SMOOTH",
"327 1681 OFFCURVE",
"404 1638 OFFCURVE",
"404 1476 CURVE SMOOTH",
"404 1302 OFFCURVE",
"271 1101 OFFCURVE",
"211 1056 CURVE SMOOTH",
"178 1033 OFFCURVE",
"102 1063 OFFCURVE",
"163 1127 CURVE SMOOTH",
"247 1227 OFFCURVE",
"256 1373 OFFCURVE",
"247 1417 CURVE SMOOTH"
);
}
);
width = 464;
}
);
leftKerningGroup = quotedblleft;
rightKerningGroup = quotedblleft;
unicode = 2019;
},
{
glyphname = guilsinglleft;
lastChange = "2018-05-23 18:31:45 +0000";
layers = (
{
layerId = "DD6F9F34-BC40-4E8F-B1D3-DF3B42A9710F";
paths = (
{
closed = 1;
nodes = (
"168 614 LINE",
"168 495 LINE",
"641 70 LINE",
"641 214 LINE",
"376 554 LINE",
"641 895 LINE",
"641 1041 LINE"
);
}
);
width = 850;
}
);
leftKerningGroup = guillemotleft;
rightKerningGroup = guillemotleft;
unicode = 2039;
},
{
glyphname = quotesingle;
lastChange = "2018-05-23 18:31:45 +0000";
layers = (
{
layerId = "DD6F9F34-BC40-4E8F-B1D3-DF3B42A9710F";
paths = (
{
closed = 1;
nodes = (
"276 1154 OFFCURVE",
"331 1475 OFFCURVE",
"331 1542 CURVE SMOOTH",
"331 1620 OFFCURVE",
"293 1681 OFFCURVE",
"220 1681 CURVE SMOOTH",
"146 1681 OFFCURVE",
"109 1620 OFFCURVE",
"109 1542 CURVE SMOOTH",
"109 1475 OFFCURVE",
"164 1154 OFFCURVE",
"190 967 CURVE",
"250 967 LINE"
);
}
);
width = 441;
}
);
leftKerningGroup = quotesingle;
rightKerningGroup = quotesingle;
unicode = 0027;
},
{
glyphname = .notdef;
lastChange = "2018-05-23 18:31:45 +0000";
layers = (
{
layerId = "DD6F9F34-BC40-4E8F-B1D3-DF3B42A9710F";
paths = (
{
closed = 1;
nodes = (
"1802 0 LINE",
"1802 1547 LINE",
"246 1547 LINE",
"246 0 LINE"
);
},
{
closed = 1;
nodes = (
"1696 1457 LINE",
"1696 90 LINE",
"352 90 LINE",
"352 1457 LINE"
);
},
{
closed = 1;
nodes = (
"1385 312 LINE",
"1477 397 LINE",
"663 1224 LINE",
"571 1138 LINE"
);
},
{
closed = 1;
nodes = (
"571 397 LINE",
"663 312 LINE",
"1477 1138 LINE",
"1385 1224 LINE"
);
}
);
width = 2048;
}
);
leftKerningGroup = .notdef;
rightKerningGroup = .notdef;
},
{
glyphname = cent;
lastChange = "2018-05-23 18:31:45 +0000";
layers = (
{
components = (
{
name = c;
transform = "{1, 0, 0, 1, 117, 0}";
}
);
layerId = "DD6F9F34-BC40-4E8F-B1D3-DF3B42A9710F";
paths = (
{
closed = 1;
nodes = (
"667 1225 LINE",
"561 1225 LINE",
"561 977 LINE",
"667 977 LINE"
);
},
{
closed = 1;
nodes = (
"667 3 LINE",
"561 3 LINE",
"561 -228 LINE",
"667 -228 LINE"
);
}
);
width = 1137;
}
);
leftKerningGroup = o;
rightKerningGroup = c;
unicode = 00A2;
},
{
glyphname = currency;
lastChange = "2018-05-23 18:31:45 +0000";
layers = (
{
layerId = "DD6F9F34-BC40-4E8F-B1D3-DF3B42A9710F";
paths = (
{
closed = 1;
nodes = (
"255 365 OFFCURVE",
"382 211 OFFCURVE",
"584 211 CURVE SMOOTH",
"786 211 OFFCURVE",
"915 365 OFFCURVE",
"915 555 CURVE SMOOTH",
"915 745 OFFCURVE",
"790 899 OFFCURVE",
"588 899 CURVE SMOOTH",
"386 899 OFFCURVE",
"255 745 OFFCURVE",
"255 555 CURVE SMOOTH"
);
},
{
closed = 1;
nodes = (
"772 400 OFFCURVE",
"704 324 OFFCURVE",
"586 324 CURVE SMOOTH",
"467 324 OFFCURVE",
"397 400 OFFCURVE",
"397 555 CURVE SMOOTH",
"397 710 OFFCURVE",
"464 786 OFFCURVE",
"583 786 CURVE SMOOTH",
"701 786 OFFCURVE",
"772 710 OFFCURVE",
"772 555 CURVE SMOOTH"
);
},
{
closed = 1;
nodes = (
"946 99 LINE",
"1038 184 LINE",
"813 412 LINE",
"735 313 LINE"
);
},
{
closed = 1;
nodes = (
"224 1011 LINE",
"132 925 LINE",
"355 699 LINE",
"436 796 LINE"
);
},
{
closed = 1;
nodes = (
"132 184 LINE",
"224 99 LINE",
"438 316 LINE",
"347 403 LINE"
);
},
{
closed = 1;
nodes = (
"1038 925 LINE",
"946 1011 LINE",
"734 796 LINE",
"814 698 LINE"
);
}
);
width = 1170;
}
);
leftKerningGroup = currency;
rightKerningGroup = currency;
unicode = 00A4;
},
{
glyphname = dollar;
lastChange = "2018-05-23 18:31:45 +0000";
layers = (
{
layerId = "DD6F9F34-BC40-4E8F-B1D3-DF3B42A9710F";
paths = (
{
closed = 1;
nodes = (
"707 1548 LINE",
"601 1548 LINE",
"601 1300 LINE",
"707 1300 LINE"
);
},
{
closed = 1;
nodes = (
"707 3 LINE",
"601 3 LINE",
"601 -245 LINE",
"707 -245 LINE"
);
},
{
closed = 1;
nodes = (
"409 1214 OFFCURVE",
"507 1272 OFFCURVE",
"645 1272 CURVE SMOOTH",
"790 1272 OFFCURVE",
"913 1179 OFFCURVE",
"953 965 CURVE SMOOTH",
"958 937 OFFCURVE",
"1047 917 OFFCURVE",
"1034 1014 CURVE SMOOTH",
"1020 1124 OFFCURVE",
"1009 1271 OFFCURVE",
"1009 1296 CURVE SMOOTH",
"1009 1323 OFFCURVE",
"972 1346 OFFCURVE",
"942 1327 CURVE SMOOTH",
"919 1313 OFFCURVE",
"915 1293 OFFCURVE",
"860 1303 CURVE SMOOTH",
"825 1309 OFFCURVE",
"746 1351 OFFCURVE",
"628 1351 CURVE SMOOTH",
"445 1351 OFFCURVE",
"211 1246 OFFCURVE",
"211 1005 CURVE SMOOTH",
"211 782 OFFCURVE",
"410 664 OFFCURVE",
"594 576 CURVE SMOOTH",
"751 506 OFFCURVE",
"888 426 OFFCURVE",
"888 311 CURVE SMOOTH",
"888 132 OFFCURVE",
"778 59 OFFCURVE",
"658 59 CURVE SMOOTH",
"554 59 OFFCURVE",
"388 121 OFFCURVE",
"316 274 CURVE SMOOTH",
"262 389 OFFCURVE",
"253 434 OFFCURVE",
"246 468 CURVE SMOOTH",
"234 528 OFFCURVE",
"147 526 OFFCURVE",
"157 448 CURVE",
"166 368 OFFCURVE",
"184 214 OFFCURVE",
"175 72 CURVE SMOOTH",
"172 22 OFFCURVE",
"218 -1 OFFCURVE",
"276 65 CURVE SMOOTH",
"313 107 OFFCURVE",
"334 61 OFFCURVE",
"390 41 CURVE",
"434 24 OFFCURVE",
"513 -30 OFFCURVE",
"675 -30 CURVE SMOOTH",
"916 -30 OFFCURVE",
"1092 97 OFFCURVE",
"1092 352 CURVE SMOOTH",
"1092 551 OFFCURVE",
"900 671 OFFCURVE",
"715 765 CURVE SMOOTH",
"557 840 OFFCURVE",
"409 932 OFFCURVE",
"409 1049 CURVE SMOOTH"
);
}
);
width = 1249;
}
);
leftKerningGroup = dollar;
rightKerningGroup = dollar;
unicode = 0024;
},
{
glyphname = euro;
lastChange = "2018-05-23 18:31:45 +0000";
layers = (
{
layerId = "DD6F9F34-BC40-4E8F-B1D3-DF3B42A9710F";
paths = (
{
closed = 1;
nodes = (
"984 1355 OFFCURVE",
"1098 1200 OFFCURVE",
"1138 1031 CURVE",
"1143 1005 OFFCURVE",
"1157 1000 OFFCURVE",
"1179 1002 CURVE SMOOTH",
"1195 1004 OFFCURVE",
"1218 1018 OFFCURVE",
"1216 1041 CURVE SMOOTH",
"1192 1362 LINE",
"1129 1393 OFFCURVE",
"1015 1450 OFFCURVE",
"774 1450 CURVE SMOOTH",
"510 1450 OFFCURVE",
"158 1235 OFFCURVE",
"158 706 CURVE SMOOTH",
"158 144 OFFCURVE",
"494 -30 OFFCURVE",
"785 -30 CURVE SMOOTH",
"1026 -30 OFFCURVE",
"1192 80 OFFCURVE",
"1196 108 CURVE SMOOTH",
"1229 379 LINE",
"1229 402 OFFCURVE",
"1204 413 OFFCURVE",
"1188 413 CURVE SMOOTH",
"1166 413 OFFCURVE",
"1153 406 OFFCURVE",
"1151 380 CURVE",
"1131 207 OFFCURVE",
"1004 65 OFFCURVE",
"784 65 CURVE SMOOTH",
"645 65 OFFCURVE",
"383 152 OFFCURVE",
"383 706 CURVE SMOOTH",
"383 1289 OFFCURVE",
"621 1354 OFFCURVE",
"772 1354 CURVE SMOOTH"
);
},
{
closed = 1;
nodes = (
"865 813 OFFCURVE",
"875 835 OFFCURVE",
"875 860 CURVE SMOOTH",
"875 876 OFFCURVE",
"867 893 OFFCURVE",
"851 894 CURVE",
"42 894 LINE",
"28 888 OFFCURVE",
"18 866 OFFCURVE",
"18 841 CURVE SMOOTH",
"18 825 OFFCURVE",
"26 808 OFFCURVE",
"42 807 CURVE",
"851 807 LINE"
);
},
{
closed = 1;
nodes = (
"865 535 OFFCURVE",
"875 557 OFFCURVE",
"875 582 CURVE SMOOTH",
"875 598 OFFCURVE",
"867 615 OFFCURVE",
"851 616 CURVE",
"42 616 LINE",
"28 610 OFFCURVE",
"18 588 OFFCURVE",
"18 563 CURVE SMOOTH",
"18 547 OFFCURVE",
"26 530 OFFCURVE",
"42 529 CURVE",
"851 529 LINE"
);
}
);
width = 1315;
}
);
leftKerningGroup = euro;
rightKerningGroup = euro;
unicode = 20AC;
},
{
glyphname = florin;
lastChange = "2018-05-23 18:31:45 +0000";
layers = (
{
layerId = "DD6F9F34-BC40-4E8F-B1D3-DF3B42A9710F";
paths = (
{
closed = 1;
nodes = (
"307 -80 LINE",
"428 38 LINE",
"555 851 LINE",
"369 819 LINE",
"242 6 LINE"
);
},
{
closed = 1;
nodes = (
"595 1211 OFFCURVE",
"682 1225 OFFCURVE",
"776 1225 CURVE SMOOTH",
"802 1225 OFFCURVE",
"856 1234 OFFCURVE",
"856 1237 CURVE SMOOTH",
"856 1243 OFFCURVE",
"830 1247 OFFCURVE",
"804 1247 CURVE SMOOTH",
"775 1247 OFFCURVE",
"745 1243 OFFCURVE",
"752 1230 CURVE SMOOTH",
"796 1150 OFFCURVE",
"829 1094 OFFCURVE",
"854 1080 CURVE",
"876 1065 OFFCURVE",
"986 1088 OFFCURVE",
"986 1178 CURVE SMOOTH",
"986 1247 OFFCURVE",
"918 1317 OFFCURVE",
"790 1317 CURVE SMOOTH",
"534 1317 OFFCURVE",
"399 1074 OFFCURVE",
"369 819 CURVE",
"457 788 LINE",
"555 851 LINE"
);
},
{
closed = 1;
nodes = (
"202 -354 OFFCURVE",
"115 -368 OFFCURVE",
"21 -368 CURVE SMOOTH",
"-5 -368 OFFCURVE",
"-59 -377 OFFCURVE",
"-59 -380 CURVE SMOOTH",
"-59 -386 OFFCURVE",
"-33 -390 OFFCURVE",
"-7 -390 CURVE SMOOTH",
"22 -390 OFFCURVE",
"52 -386 OFFCURVE",
"45 -373 CURVE SMOOTH",
"1 -293 OFFCURVE",
"-32 -237 OFFCURVE",
"-57 -223 CURVE",
"-79 -208 OFFCURVE",
"-189 -231 OFFCURVE",
"-189 -321 CURVE SMOOTH",
"-189 -390 OFFCURVE",
"-121 -460 OFFCURVE",
"7 -460 CURVE SMOOTH",
"263 -460 OFFCURVE",
"398 -217 OFFCURVE",
"428 38 CURVE",
"340 69 LINE",
"242 6 LINE"
);
},
{
closed = 1;
nodes = (
"823 515 OFFCURVE",
"833 537 OFFCURVE",
"833 562 CURVE SMOOTH",
"833 578 OFFCURVE",
"825 595 OFFCURVE",
"809 596 CURVE",
"180 596 LINE",
"166 590 OFFCURVE",
"156 568 OFFCURVE",
"156 543 CURVE SMOOTH",
"156 527 OFFCURVE",
"164 510 OFFCURVE",
"180 509 CURVE",
"809 509 LINE"
);
}
);
width = 1063;
}
);
leftKerningGroup = florin;
rightKerningGroup = florin;
unicode = 0192;
},
